G04 #@! TF.GenerationSoftware,KiCad,Pcbnew,(5.1.0)-1*
G04 #@! TF.CreationDate,2019-06-16T12:43:21+02:00*
G04 #@! TF.ProjectId,Micromouse,4d696372-6f6d-46f7-9573-652e6b696361,rev?*
G04 #@! TF.SameCoordinates,Original*
G04 #@! TF.FileFunction,Copper,L2,Bot*
G04 #@! TF.FilePolarity,Positive*
%FSLAX46Y46*%
G04 Gerber Fmt 4.6, Leading zero omitted, Abs format (unit mm)*
G04 Created by KiCad (PCBNEW (5.1.0)-1) date 2019-06-16 12:43:21*
%MOMM*%
%LPD*%
G04 APERTURE LIST*
%ADD10C,1.800000*%
%ADD11R,1.800000X1.800000*%
%ADD12O,1.700000X1.700000*%
%ADD13R,1.700000X1.700000*%
%ADD14C,1.524000*%
%ADD15C,3.000000*%
%ADD16R,3.000000X3.000000*%
%ADD17C,1.700000*%
%ADD18C,1.700000*%
%ADD19C,0.100000*%
%ADD20C,0.800000*%
%ADD21C,0.750000*%
%ADD22C,0.250000*%
%ADD23C,1.000000*%
%ADD24C,0.500000*%
G04 APERTURE END LIST*
D10*
X169359580Y-102613460D03*
D11*
X169359580Y-100073460D03*
D12*
X170010000Y-136370000D03*
D13*
X172550000Y-136370000D03*
D12*
X177800000Y-135890000D03*
X180340000Y-135890000D03*
X182880000Y-135890000D03*
D13*
X185420000Y-135890000D03*
D12*
X144340000Y-138650000D03*
X141800000Y-138650000D03*
X139260000Y-138650000D03*
D13*
X136720000Y-138650000D03*
D12*
X166370000Y-111760000D03*
X163830000Y-111760000D03*
X161290000Y-111760000D03*
X158750000Y-111760000D03*
X156210000Y-111760000D03*
X153670000Y-111760000D03*
X151130000Y-111760000D03*
D13*
X148590000Y-111760000D03*
D12*
X180340000Y-127000000D03*
X180340000Y-124460000D03*
X180340000Y-121920000D03*
X180340000Y-119380000D03*
X180340000Y-116840000D03*
D13*
X180340000Y-114300000D03*
D12*
X134620000Y-127000000D03*
X134620000Y-124460000D03*
X134620000Y-121920000D03*
X134620000Y-119380000D03*
X134620000Y-116840000D03*
D13*
X134620000Y-114300000D03*
D14*
X144780000Y-118110000D03*
X147320000Y-118110000D03*
X149860000Y-118110000D03*
X152400000Y-118110000D03*
X154940000Y-118110000D03*
X157480000Y-118110000D03*
X160020000Y-118110000D03*
X160020000Y-125730000D03*
X157480000Y-125730000D03*
X154940000Y-125730000D03*
X152400000Y-125730000D03*
X149860000Y-125730000D03*
X147320000Y-125730000D03*
X144780000Y-125730000D03*
D12*
X144340000Y-134000000D03*
X141800000Y-134000000D03*
X139260000Y-134000000D03*
D13*
X136720000Y-134000000D03*
D15*
X156210000Y-137160000D03*
D16*
X151130000Y-137160000D03*
D12*
X149860000Y-81280000D03*
X152400000Y-81280000D03*
X154940000Y-81280000D03*
X157480000Y-81280000D03*
X160020000Y-81280000D03*
D13*
X162560000Y-81280000D03*
D12*
X125730000Y-116840000D03*
X125730000Y-114300000D03*
X125730000Y-111760000D03*
X125730000Y-109220000D03*
X125730000Y-106680000D03*
D13*
X125730000Y-104140000D03*
D12*
X187960000Y-104140000D03*
X187960000Y-106680000D03*
X187960000Y-109220000D03*
X187960000Y-111760000D03*
X187960000Y-114300000D03*
D13*
X187960000Y-116840000D03*
D17*
X126909744Y-92800256D03*
D18*
X126909744Y-92800256D02*
X126909744Y-92800256D01*
D17*
X128705795Y-91004205D03*
D18*
X128705795Y-91004205D02*
X128705795Y-91004205D01*
D17*
X130501846Y-89208154D03*
D18*
X130501846Y-89208154D02*
X130501846Y-89208154D01*
D17*
X132297898Y-87412102D03*
D18*
X132297898Y-87412102D02*
X132297898Y-87412102D01*
D17*
X134093949Y-85616051D03*
D18*
X134093949Y-85616051D02*
X134093949Y-85616051D01*
D17*
X135890000Y-83820000D03*
D19*
G36*
X134687918Y-83820000D02*
G01*
X135890000Y-82617918D01*
X137092082Y-83820000D01*
X135890000Y-85022082D01*
X134687918Y-83820000D01*
X134687918Y-83820000D01*
G37*
D17*
X176439744Y-83511846D03*
D18*
X176439744Y-83511846D02*
X176439744Y-83511846D01*
D17*
X178235795Y-85307897D03*
D18*
X178235795Y-85307897D02*
X178235795Y-85307897D01*
D17*
X180031846Y-87103948D03*
D18*
X180031846Y-87103948D02*
X180031846Y-87103948D01*
D17*
X181827898Y-88900000D03*
D18*
X181827898Y-88900000D02*
X181827898Y-88900000D01*
D17*
X183623949Y-90696051D03*
D18*
X183623949Y-90696051D02*
X183623949Y-90696051D01*
D17*
X185420000Y-92492102D03*
D19*
G36*
X185420000Y-91290020D02*
G01*
X186622082Y-92492102D01*
X185420000Y-93694184D01*
X184217918Y-92492102D01*
X185420000Y-91290020D01*
X185420000Y-91290020D01*
G37*
D20*
X152235000Y-99060000D03*
X153685000Y-100330000D03*
X160185000Y-100330000D03*
X160020000Y-92710000D03*
X142240000Y-105410000D03*
X180340000Y-124460000D03*
X180340000Y-124460000D03*
X180340000Y-124460000D03*
X149225000Y-101600000D03*
X180340000Y-124460000D03*
X152235000Y-92710000D03*
X180340000Y-124460000D03*
X168148000Y-127000000D03*
X173228000Y-127000000D03*
X134620000Y-129540000D03*
X139700000Y-129540000D03*
X153024840Y-104000300D03*
X161925000Y-90170000D03*
X170180000Y-93980000D03*
X181610000Y-92710000D03*
X177800000Y-88900000D03*
X157480000Y-83820000D03*
X153670000Y-83820000D03*
X135890000Y-87630000D03*
X132080000Y-91440000D03*
X185420000Y-103494840D03*
X132080000Y-109220000D03*
X129540000Y-109220000D03*
X147955000Y-107315000D03*
X155925520Y-98907600D03*
X154284680Y-95313500D03*
X154914600Y-92605860D03*
X144150080Y-87820500D03*
X141605000Y-93980000D03*
X141605000Y-91440000D03*
X148590000Y-88900000D03*
X154904142Y-88864142D03*
X147764500Y-97853500D03*
X147764001Y-103441001D03*
X154241500Y-96456500D03*
X152146000Y-96393000D03*
X154940000Y-87630000D03*
X147955000Y-93345000D03*
X147955000Y-95885000D03*
X151130000Y-87630000D03*
X175260000Y-132080000D03*
X165100000Y-132080000D03*
X146685000Y-106045000D03*
X144780000Y-101600000D03*
X152400000Y-109220000D03*
X159108140Y-87876380D03*
X167640000Y-89625000D03*
X141605000Y-114300000D03*
X139065000Y-126365000D03*
X151328120Y-102486460D03*
X143233140Y-114231420D03*
X143258540Y-123022360D03*
X148064220Y-123355100D03*
X157060900Y-133918960D03*
X146928840Y-101764000D03*
X146278600Y-103832660D03*
X129471420Y-114561620D03*
X157502860Y-113555780D03*
X149865080Y-114574320D03*
X158013400Y-88943180D03*
X163088320Y-87598420D03*
X169448480Y-88745060D03*
X152397460Y-114490500D03*
X172951140Y-92999560D03*
X165658800Y-87835740D03*
D21*
X187960000Y-116840000D02*
X190500000Y-116840000D01*
X190500000Y-116840000D02*
X190500000Y-93980000D01*
X187107102Y-90805000D02*
X187325000Y-90805000D01*
X185420000Y-92492102D02*
X187107102Y-90805000D01*
X190500000Y-93980000D02*
X187325000Y-90805000D01*
X162560000Y-78740000D02*
X162560000Y-81280000D01*
X187325000Y-90805000D02*
X175260000Y-78740000D01*
X138430000Y-78740000D02*
X137160000Y-78740000D01*
X135890000Y-83820000D02*
X133985000Y-81915000D01*
X137160000Y-78740000D02*
X133985000Y-81915000D01*
X123190000Y-104140000D02*
X125730000Y-104140000D01*
X133985000Y-81915000D02*
X123190000Y-92710000D01*
X123190000Y-92710000D02*
X123190000Y-104140000D01*
X129540000Y-124460000D02*
X134620000Y-124460000D01*
X123190000Y-104140000D02*
X123190000Y-118110000D01*
X123190000Y-118110000D02*
X129540000Y-124460000D01*
X138430000Y-78740000D02*
X162560000Y-78740000D01*
D22*
X152235000Y-99060000D02*
X153670000Y-99060000D01*
X153685000Y-99075000D02*
X153670000Y-99060000D01*
X153685000Y-100330000D02*
X153685000Y-99075000D01*
X160005000Y-99075000D02*
X160020000Y-99090000D01*
X160185000Y-99255000D02*
X160005000Y-99075000D01*
X160185000Y-100330000D02*
X160185000Y-99255000D01*
X160005000Y-92725000D02*
X160020000Y-92710000D01*
D21*
X162560000Y-78740000D02*
X175260000Y-78740000D01*
D23*
X142240000Y-105410000D02*
X148590000Y-111760000D01*
D22*
X149225000Y-111125000D02*
X148590000Y-111760000D01*
X149225000Y-101600000D02*
X149225000Y-111125000D01*
X160185000Y-100330000D02*
X153685000Y-100330000D01*
X152400000Y-92710000D02*
X152235000Y-92710000D01*
X152235000Y-92710000D02*
X152235000Y-93355260D01*
X153382740Y-94503000D02*
X160005000Y-94503000D01*
X152235000Y-93355260D02*
X153382740Y-94503000D01*
X160005000Y-99075000D02*
X160005000Y-94503000D01*
X160005000Y-94503000D02*
X160005000Y-92725000D01*
D23*
X168148000Y-127000000D02*
X173228000Y-127000000D01*
D21*
X134620000Y-129540000D02*
X139700000Y-129540000D01*
D22*
X151130000Y-111760000D02*
X151130000Y-105895140D01*
X151130000Y-105895140D02*
X153024840Y-104000300D01*
X182880000Y-135890000D02*
X182880000Y-123190000D01*
X182880000Y-123190000D02*
X185420000Y-120650000D01*
X185420000Y-110209962D02*
X183449990Y-108239953D01*
X185420000Y-120650000D02*
X185420000Y-110209962D01*
X183449990Y-98079952D02*
X172430048Y-87060010D01*
X183449990Y-108239953D02*
X183449990Y-98079952D01*
X172430048Y-87060010D02*
X165034990Y-87060010D01*
X165034990Y-87060010D02*
X161925000Y-90170000D01*
X182429990Y-133800010D02*
X182429991Y-123003599D01*
X180340000Y-135890000D02*
X182429990Y-133800010D01*
X182429991Y-123003599D02*
X184969990Y-120463600D01*
X184969990Y-120463600D02*
X184969990Y-110396363D01*
X184969990Y-110396363D02*
X182880000Y-108306373D01*
X182880000Y-108306373D02*
X182880000Y-98425000D01*
X182880000Y-98425000D02*
X178435000Y-93980000D01*
X178435000Y-93980000D02*
X170180000Y-93980000D01*
D21*
X187960000Y-109220000D02*
X185420000Y-106680000D01*
X185420000Y-96520000D02*
X181610000Y-92710000D01*
X178235794Y-88900000D02*
X180031846Y-87103948D01*
X177800000Y-88900000D02*
X178235794Y-88900000D01*
X177800000Y-88900000D02*
X172720000Y-83820000D01*
X157480000Y-83820000D02*
X157480000Y-81280000D01*
X139700000Y-83820000D02*
X135890000Y-87630000D01*
X132080000Y-90786308D02*
X130501846Y-89208154D01*
X132080000Y-91440000D02*
X132080000Y-90786308D01*
X125730000Y-111760000D02*
X130810000Y-111760000D01*
X130810000Y-92710000D02*
X132080000Y-91440000D01*
X130810000Y-111760000D02*
X130810000Y-92710000D01*
X139700000Y-83820000D02*
X153670000Y-83820000D01*
X157480000Y-83820000D02*
X172720000Y-83820000D01*
X185420000Y-106680000D02*
X185420000Y-103494840D01*
X185420000Y-103494840D02*
X185420000Y-96520000D01*
X184150000Y-107950000D02*
X184150000Y-97790000D01*
X187960000Y-111760000D02*
X184150000Y-107950000D01*
X135055796Y-90170000D02*
X135890000Y-90170000D01*
X132297898Y-87412102D02*
X135055796Y-90170000D01*
X139700000Y-86360000D02*
X135890000Y-90170000D01*
X154940000Y-81280000D02*
X154940000Y-86360000D01*
X178652898Y-92075000D02*
X178435000Y-92075000D01*
X181827898Y-88900000D02*
X178652898Y-92075000D01*
X184150000Y-97790000D02*
X178435000Y-92075000D01*
X178435000Y-92075000D02*
X172720000Y-86360000D01*
X135055796Y-90170000D02*
X135055796Y-91004204D01*
X135055796Y-91004204D02*
X132080000Y-93980000D01*
X129540000Y-109220000D02*
X125730000Y-109220000D01*
X139700000Y-86360000D02*
X154940000Y-86360000D01*
X172720000Y-86360000D02*
X154940000Y-86360000D01*
D22*
X141166998Y-101600000D02*
X132080000Y-101600000D01*
X146881998Y-107315000D02*
X141166998Y-101600000D01*
X147955000Y-107315000D02*
X146881998Y-107315000D01*
D21*
X132080000Y-93980000D02*
X132080000Y-101600000D01*
X132080000Y-101600000D02*
X132080000Y-109220000D01*
D22*
X156325519Y-98507601D02*
X156325519Y-95820179D01*
X155925520Y-98907600D02*
X156325519Y-98507601D01*
X156325519Y-95820179D02*
X154791359Y-95820179D01*
X154791359Y-95820179D02*
X154284680Y-95313500D01*
X154914600Y-92605860D02*
X152684480Y-90375740D01*
X152684480Y-90375740D02*
X145211800Y-90375740D01*
X145211800Y-90375740D02*
X144150080Y-89314020D01*
X144150080Y-89314020D02*
X144150080Y-87820500D01*
X141605000Y-93980000D02*
X141605000Y-91440000D01*
X148590000Y-88900000D02*
X154868284Y-88900000D01*
X154868284Y-88900000D02*
X154904142Y-88864142D01*
X147764500Y-103440502D02*
X147764001Y-103441001D01*
X147764500Y-97853500D02*
X147764500Y-103440502D01*
X154241500Y-96456500D02*
X152209500Y-96456500D01*
X152209500Y-96456500D02*
X152146000Y-96393000D01*
X147955000Y-93345000D02*
X147955000Y-95885000D01*
X154940000Y-87630000D02*
X151130000Y-87630000D01*
D24*
X175260000Y-132080000D02*
X165100000Y-132080000D01*
D22*
X146685000Y-106045000D02*
X146685000Y-105410000D01*
X146685000Y-105410000D02*
X144780000Y-103505000D01*
X144780000Y-103505000D02*
X144780000Y-101600000D01*
X152400000Y-109220000D02*
X166370000Y-109220000D01*
X166370000Y-109220000D02*
X166370000Y-91440000D01*
X166370000Y-91440000D02*
X161290000Y-91440000D01*
X161290000Y-91440000D02*
X160909000Y-91059000D01*
X160909000Y-91059000D02*
X160909000Y-89154000D01*
X160909000Y-89154000D02*
X160909000Y-88079580D01*
X160909000Y-88079580D02*
X160705800Y-87876380D01*
X160705800Y-87876380D02*
X159108140Y-87876380D01*
X134245997Y-115475001D02*
X172814999Y-115475001D01*
X133444999Y-116275999D02*
X134245997Y-115475001D01*
X134620000Y-119380000D02*
X133444999Y-118204999D01*
X133444999Y-118204999D02*
X133444999Y-116275999D01*
X172814999Y-115475001D02*
X182245000Y-106045000D01*
X182245000Y-106045000D02*
X182245000Y-99060000D01*
X182245000Y-99060000D02*
X178435000Y-95250000D01*
X178435000Y-95250000D02*
X169545000Y-95250000D01*
X169545000Y-95250000D02*
X167640000Y-93345000D01*
X167640000Y-93345000D02*
X167640000Y-89625000D01*
D23*
X138430000Y-116840000D02*
X134620000Y-116840000D01*
X139065000Y-117475000D02*
X138430000Y-116840000D01*
X139065000Y-123825000D02*
X139065000Y-117475000D01*
X142875000Y-127635000D02*
X139065000Y-123825000D01*
X154940000Y-125730000D02*
X153035000Y-127635000D01*
X153035000Y-127635000D02*
X142875000Y-127635000D01*
X157480000Y-125730000D02*
X157480000Y-127000000D01*
X157480000Y-127000000D02*
X154940000Y-129540000D01*
X154940000Y-129540000D02*
X141605000Y-129540000D01*
X134620000Y-114300000D02*
X141605000Y-114300000D01*
X141605000Y-129540000D02*
X141605000Y-128905000D01*
X141605000Y-128905000D02*
X139065000Y-126365000D01*
X180340000Y-116840000D02*
X181610000Y-116840000D01*
X181610000Y-116840000D02*
X182880000Y-115570000D01*
X182880000Y-115570000D02*
X182880000Y-113030000D01*
X182880000Y-113030000D02*
X181610000Y-111760000D01*
X181610000Y-111760000D02*
X177800000Y-111760000D01*
X177800000Y-111760000D02*
X168910000Y-120650000D01*
X168910000Y-120650000D02*
X151765000Y-120650000D01*
X149860000Y-122555000D02*
X149860000Y-125730000D01*
X151765000Y-120650000D02*
X149860000Y-122555000D01*
X152400000Y-123507500D02*
X152400000Y-125730000D01*
X153606500Y-122301000D02*
X152400000Y-123507500D01*
X170489000Y-122301000D02*
X153606500Y-122301000D01*
X180340000Y-114300000D02*
X178490000Y-114300000D01*
X178490000Y-114300000D02*
X170489000Y-122301000D01*
D22*
X148403582Y-114231420D02*
X143233140Y-114231420D01*
X149765001Y-112870001D02*
X148403582Y-114231420D01*
X151328120Y-102486460D02*
X149765001Y-104049579D01*
X149765001Y-104049579D02*
X149765001Y-112870001D01*
X143258540Y-123022360D02*
X147731480Y-123022360D01*
X147731480Y-123022360D02*
X148064220Y-123355100D01*
X144421040Y-133918960D02*
X144340000Y-134000000D01*
X157060900Y-133918960D02*
X144421040Y-133918960D01*
X146928840Y-102329685D02*
X146042380Y-103216145D01*
X146928840Y-101764000D02*
X146928840Y-102329685D01*
X146042380Y-103216145D02*
X146042380Y-103596440D01*
X146042380Y-103596440D02*
X146278600Y-103832660D01*
X140950001Y-133150001D02*
X141800000Y-134000000D01*
X140779990Y-132979990D02*
X140950001Y-133150001D01*
X140779990Y-129546988D02*
X140779990Y-132979990D01*
X138239991Y-127006989D02*
X140779990Y-129546988D01*
X138239991Y-126340989D02*
X138239991Y-127006989D01*
X135184001Y-123284999D02*
X138239991Y-126340989D01*
X133663439Y-123284999D02*
X135184001Y-123284999D01*
X129471420Y-119092980D02*
X133663439Y-123284999D01*
X129471420Y-114561620D02*
X129471420Y-119092980D01*
X157502860Y-113555780D02*
X150883620Y-113555780D01*
X150883620Y-113555780D02*
X149865080Y-114574320D01*
X158013400Y-88943180D02*
X158013400Y-87358220D01*
X158760139Y-87151379D02*
X162541119Y-87151379D01*
X158013400Y-87358220D02*
X158553298Y-87358220D01*
X158553298Y-87358220D02*
X158760139Y-87151379D01*
X162541119Y-87151379D02*
X162988160Y-87598420D01*
X162988160Y-87598420D02*
X163088320Y-87598420D01*
X168882795Y-88745060D02*
X169448480Y-88745060D01*
X168750715Y-88612980D02*
X168882795Y-88745060D01*
X166987220Y-88612980D02*
X168750715Y-88612980D01*
X166522400Y-89077800D02*
X166987220Y-88612980D01*
X166522400Y-90497660D02*
X166522400Y-89077800D01*
X167005000Y-90980260D02*
X166522400Y-90497660D01*
X167005000Y-95069660D02*
X167005000Y-90980260D01*
X172280580Y-114490500D02*
X181028340Y-105742740D01*
X152397460Y-114490500D02*
X172280580Y-114490500D01*
X181028340Y-105742740D02*
X181028340Y-99682300D01*
X181028340Y-99682300D02*
X178076860Y-96730820D01*
X178076860Y-96730820D02*
X168666160Y-96730820D01*
X168666160Y-96730820D02*
X167005000Y-95069660D01*
X172951140Y-92999560D02*
X172951140Y-88475820D01*
X172951140Y-88475820D02*
X172265340Y-87790020D01*
X172265340Y-87790020D02*
X165704520Y-87790020D01*
X165704520Y-87790020D02*
X165658800Y-87835740D01*
M02*
