G04 #@! TF.GenerationSoftware,KiCad,Pcbnew,(5.1.0)-1*
G04 #@! TF.CreationDate,2019-06-16T12:43:21+02:00*
G04 #@! TF.ProjectId,Micromouse,4d696372-6f6d-46f7-9573-652e6b696361,rev?*
G04 #@! TF.SameCoordinates,Original*
G04 #@! TF.FileFunction,Legend,Bot*
G04 #@! TF.FilePolarity,Positive*
%FSLAX46Y46*%
G04 Gerber Fmt 4.6, Leading zero omitted, Abs format (unit mm)*
G04 Created by KiCad (PCBNEW (5.1.0)-1) date 2019-06-16 12:43:21*
%MOMM*%
%LPD*%
G04 APERTURE LIST*
%ADD10C,0.200000*%
%ADD11C,0.010000*%
%ADD12C,0.120000*%
%ADD13C,0.150000*%
G04 APERTURE END LIST*
D10*
X132174225Y-118264770D02*
X132174225Y-118548103D01*
X132619463Y-118669532D02*
X132619463Y-118264770D01*
X131769463Y-118264770D01*
X131769463Y-118669532D01*
X132052797Y-119033818D02*
X132619463Y-119033818D01*
X132133749Y-119033818D02*
X132093273Y-119074294D01*
X132052797Y-119155246D01*
X132052797Y-119276675D01*
X132093273Y-119357627D01*
X132174225Y-119398103D01*
X132619463Y-119398103D01*
X132578987Y-120167151D02*
X132619463Y-120086199D01*
X132619463Y-119924294D01*
X132578987Y-119843341D01*
X132538511Y-119802865D01*
X132457559Y-119762389D01*
X132214701Y-119762389D01*
X132133749Y-119802865D01*
X132093273Y-119843341D01*
X132052797Y-119924294D01*
X132052797Y-120086199D01*
X132093273Y-120167151D01*
X132619463Y-120652865D02*
X132578987Y-120571913D01*
X132538511Y-120531437D01*
X132457559Y-120490960D01*
X132214701Y-120490960D01*
X132133749Y-120531437D01*
X132093273Y-120571913D01*
X132052797Y-120652865D01*
X132052797Y-120774294D01*
X132093273Y-120855246D01*
X132133749Y-120895722D01*
X132214701Y-120936199D01*
X132457559Y-120936199D01*
X132538511Y-120895722D01*
X132578987Y-120855246D01*
X132619463Y-120774294D01*
X132619463Y-120652865D01*
X132619463Y-121664770D02*
X131769463Y-121664770D01*
X132578987Y-121664770D02*
X132619463Y-121583818D01*
X132619463Y-121421913D01*
X132578987Y-121340960D01*
X132538511Y-121300484D01*
X132457559Y-121260008D01*
X132214701Y-121260008D01*
X132133749Y-121300484D01*
X132093273Y-121340960D01*
X132052797Y-121421913D01*
X132052797Y-121583818D01*
X132093273Y-121664770D01*
X132578987Y-122393341D02*
X132619463Y-122312389D01*
X132619463Y-122150484D01*
X132578987Y-122069532D01*
X132498035Y-122029056D01*
X132174225Y-122029056D01*
X132093273Y-122069532D01*
X132052797Y-122150484D01*
X132052797Y-122312389D01*
X132093273Y-122393341D01*
X132174225Y-122433818D01*
X132255178Y-122433818D01*
X132336130Y-122029056D01*
X132619463Y-122798103D02*
X132052797Y-122798103D01*
X132214701Y-122798103D02*
X132133749Y-122838580D01*
X132093273Y-122879056D01*
X132052797Y-122960008D01*
X132052797Y-123040960D01*
X132619463Y-124093341D02*
X132578987Y-124012389D01*
X132498035Y-123971913D01*
X131769463Y-123971913D01*
X132578987Y-124740960D02*
X132619463Y-124660008D01*
X132619463Y-124498103D01*
X132578987Y-124417151D01*
X132498035Y-124376675D01*
X132174225Y-124376675D01*
X132093273Y-124417151D01*
X132052797Y-124498103D01*
X132052797Y-124660008D01*
X132093273Y-124740960D01*
X132174225Y-124781437D01*
X132255178Y-124781437D01*
X132336130Y-124376675D01*
X132052797Y-125024294D02*
X132052797Y-125348103D01*
X132619463Y-125145722D02*
X131890892Y-125145722D01*
X131809940Y-125186199D01*
X131769463Y-125267151D01*
X131769463Y-125348103D01*
X132052797Y-125510008D02*
X132052797Y-125833818D01*
X131769463Y-125631437D02*
X132498035Y-125631437D01*
X132578987Y-125671913D01*
X132619463Y-125752865D01*
X132619463Y-125833818D01*
X182996594Y-126007931D02*
X182996594Y-125724598D01*
X182551356Y-125603169D02*
X182551356Y-126007931D01*
X183401356Y-126007931D01*
X183401356Y-125603169D01*
X183118022Y-125238883D02*
X182551356Y-125238883D01*
X183037070Y-125238883D02*
X183077546Y-125198407D01*
X183118022Y-125117455D01*
X183118022Y-124996026D01*
X183077546Y-124915074D01*
X182996594Y-124874598D01*
X182551356Y-124874598D01*
X182591832Y-124105550D02*
X182551356Y-124186502D01*
X182551356Y-124348407D01*
X182591832Y-124429360D01*
X182632308Y-124469836D01*
X182713260Y-124510312D01*
X182956118Y-124510312D01*
X183037070Y-124469836D01*
X183077546Y-124429360D01*
X183118022Y-124348407D01*
X183118022Y-124186502D01*
X183077546Y-124105550D01*
X182551356Y-123619836D02*
X182591832Y-123700788D01*
X182632308Y-123741264D01*
X182713260Y-123781740D01*
X182956118Y-123781740D01*
X183037070Y-123741264D01*
X183077546Y-123700788D01*
X183118022Y-123619836D01*
X183118022Y-123498407D01*
X183077546Y-123417455D01*
X183037070Y-123376979D01*
X182956118Y-123336502D01*
X182713260Y-123336502D01*
X182632308Y-123376979D01*
X182591832Y-123417455D01*
X182551356Y-123498407D01*
X182551356Y-123619836D01*
X182551356Y-122607931D02*
X183401356Y-122607931D01*
X182591832Y-122607931D02*
X182551356Y-122688883D01*
X182551356Y-122850788D01*
X182591832Y-122931740D01*
X182632308Y-122972217D01*
X182713260Y-123012693D01*
X182956118Y-123012693D01*
X183037070Y-122972217D01*
X183077546Y-122931740D01*
X183118022Y-122850788D01*
X183118022Y-122688883D01*
X183077546Y-122607931D01*
X182591832Y-121879360D02*
X182551356Y-121960312D01*
X182551356Y-122122217D01*
X182591832Y-122203169D01*
X182672784Y-122243645D01*
X182996594Y-122243645D01*
X183077546Y-122203169D01*
X183118022Y-122122217D01*
X183118022Y-121960312D01*
X183077546Y-121879360D01*
X182996594Y-121838883D01*
X182915641Y-121838883D01*
X182834689Y-122243645D01*
X182551356Y-121474598D02*
X183118022Y-121474598D01*
X182956118Y-121474598D02*
X183037070Y-121434121D01*
X183077546Y-121393645D01*
X183118022Y-121312693D01*
X183118022Y-121231740D01*
X182551356Y-120300788D02*
X183118022Y-120300788D01*
X182956118Y-120300788D02*
X183037070Y-120260312D01*
X183077546Y-120219836D01*
X183118022Y-120138883D01*
X183118022Y-120057931D01*
X182551356Y-119774598D02*
X183118022Y-119774598D01*
X183401356Y-119774598D02*
X183360880Y-119815074D01*
X183320403Y-119774598D01*
X183360880Y-119734121D01*
X183401356Y-119774598D01*
X183320403Y-119774598D01*
X183118022Y-119005550D02*
X182429927Y-119005550D01*
X182348975Y-119046026D01*
X182308499Y-119086502D01*
X182268022Y-119167455D01*
X182268022Y-119288883D01*
X182308499Y-119369836D01*
X182591832Y-119005550D02*
X182551356Y-119086502D01*
X182551356Y-119248407D01*
X182591832Y-119329360D01*
X182632308Y-119369836D01*
X182713260Y-119410312D01*
X182956118Y-119410312D01*
X183037070Y-119369836D01*
X183077546Y-119329360D01*
X183118022Y-119248407D01*
X183118022Y-119086502D01*
X183077546Y-119005550D01*
X182551356Y-118600788D02*
X183401356Y-118600788D01*
X182551356Y-118236502D02*
X182996594Y-118236502D01*
X183077546Y-118276979D01*
X183118022Y-118357931D01*
X183118022Y-118479360D01*
X183077546Y-118560312D01*
X183037070Y-118600788D01*
X183118022Y-117953169D02*
X183118022Y-117629360D01*
X183401356Y-117831740D02*
X182672784Y-117831740D01*
X182591832Y-117791264D01*
X182551356Y-117710312D01*
X182551356Y-117629360D01*
X177044800Y-119275286D02*
X176640039Y-119275286D01*
X177125753Y-119518143D02*
X176842420Y-118668143D01*
X176559086Y-119518143D01*
X176708045Y-121696725D02*
X176586617Y-121737201D01*
X176546140Y-121777678D01*
X176505664Y-121858630D01*
X176505664Y-121980059D01*
X176546140Y-122061011D01*
X176586617Y-122101487D01*
X176667569Y-122141963D01*
X176991379Y-122141963D01*
X176991379Y-121291963D01*
X176708045Y-121291963D01*
X176627093Y-121332440D01*
X176586617Y-121372916D01*
X176546140Y-121453868D01*
X176546140Y-121534820D01*
X176586617Y-121615773D01*
X176627093Y-121656249D01*
X176708045Y-121696725D01*
X176991379Y-121696725D01*
X178482442Y-116945123D02*
X178482442Y-116095123D01*
X178199109Y-116702266D01*
X177915776Y-116095123D01*
X177915776Y-116945123D01*
X177349109Y-116095123D02*
X177187204Y-116095123D01*
X177106252Y-116135600D01*
X177025300Y-116216552D01*
X176984823Y-116378457D01*
X176984823Y-116661790D01*
X177025300Y-116823695D01*
X177106252Y-116904647D01*
X177187204Y-116945123D01*
X177349109Y-116945123D01*
X177430061Y-116904647D01*
X177511014Y-116823695D01*
X177551490Y-116661790D01*
X177551490Y-116378457D01*
X177511014Y-116216552D01*
X177430061Y-116135600D01*
X177349109Y-116095123D01*
X176741966Y-116095123D02*
X176256252Y-116095123D01*
X176499109Y-116945123D02*
X176499109Y-116095123D01*
X176013395Y-116176076D02*
X175972919Y-116135600D01*
X175891966Y-116095123D01*
X175689585Y-116095123D01*
X175608633Y-116135600D01*
X175568157Y-116176076D01*
X175527680Y-116257028D01*
X175527680Y-116337980D01*
X175568157Y-116459409D01*
X176053871Y-116945123D01*
X175527680Y-116945123D01*
X178500222Y-114364483D02*
X178500222Y-113514483D01*
X178216889Y-114121626D01*
X177933556Y-113514483D01*
X177933556Y-114364483D01*
X177366889Y-113514483D02*
X177204984Y-113514483D01*
X177124032Y-113554960D01*
X177043080Y-113635912D01*
X177002603Y-113797817D01*
X177002603Y-114081150D01*
X177043080Y-114243055D01*
X177124032Y-114324007D01*
X177204984Y-114364483D01*
X177366889Y-114364483D01*
X177447841Y-114324007D01*
X177528794Y-114243055D01*
X177569270Y-114081150D01*
X177569270Y-113797817D01*
X177528794Y-113635912D01*
X177447841Y-113554960D01*
X177366889Y-113514483D01*
X176759746Y-113514483D02*
X176274032Y-113514483D01*
X176516889Y-114364483D02*
X176516889Y-113514483D01*
X175545460Y-114364483D02*
X176031175Y-114364483D01*
X175788318Y-114364483D02*
X175788318Y-113514483D01*
X175869270Y-113635912D01*
X175950222Y-113716864D01*
X176031175Y-113757340D01*
X139341042Y-114722623D02*
X139341042Y-113872623D01*
X139057709Y-114479766D01*
X138774376Y-113872623D01*
X138774376Y-114722623D01*
X138207709Y-113872623D02*
X138045804Y-113872623D01*
X137964852Y-113913100D01*
X137883900Y-113994052D01*
X137843423Y-114155957D01*
X137843423Y-114439290D01*
X137883900Y-114601195D01*
X137964852Y-114682147D01*
X138045804Y-114722623D01*
X138207709Y-114722623D01*
X138288661Y-114682147D01*
X138369614Y-114601195D01*
X138410090Y-114439290D01*
X138410090Y-114155957D01*
X138369614Y-113994052D01*
X138288661Y-113913100D01*
X138207709Y-113872623D01*
X137600566Y-113872623D02*
X137114852Y-113872623D01*
X137357709Y-114722623D02*
X137357709Y-113872623D01*
X136386280Y-114722623D02*
X136871995Y-114722623D01*
X136629138Y-114722623D02*
X136629138Y-113872623D01*
X136710090Y-113994052D01*
X136791042Y-114075004D01*
X136871995Y-114115480D01*
X139323262Y-117303263D02*
X139323262Y-116453263D01*
X139039929Y-117060406D01*
X138756596Y-116453263D01*
X138756596Y-117303263D01*
X138189929Y-116453263D02*
X138028024Y-116453263D01*
X137947072Y-116493740D01*
X137866120Y-116574692D01*
X137825643Y-116736597D01*
X137825643Y-117019930D01*
X137866120Y-117181835D01*
X137947072Y-117262787D01*
X138028024Y-117303263D01*
X138189929Y-117303263D01*
X138270881Y-117262787D01*
X138351834Y-117181835D01*
X138392310Y-117019930D01*
X138392310Y-116736597D01*
X138351834Y-116574692D01*
X138270881Y-116493740D01*
X138189929Y-116453263D01*
X137582786Y-116453263D02*
X137097072Y-116453263D01*
X137339929Y-117303263D02*
X137339929Y-116453263D01*
X136854215Y-116534216D02*
X136813739Y-116493740D01*
X136732786Y-116453263D01*
X136530405Y-116453263D01*
X136449453Y-116493740D01*
X136408977Y-116534216D01*
X136368500Y-116615168D01*
X136368500Y-116696120D01*
X136408977Y-116817549D01*
X136894691Y-117303263D01*
X136368500Y-117303263D01*
X137885620Y-119633426D02*
X137480859Y-119633426D01*
X137966573Y-119876283D02*
X137683240Y-119026283D01*
X137399906Y-119876283D01*
X137548865Y-122054865D02*
X137427437Y-122095341D01*
X137386960Y-122135818D01*
X137346484Y-122216770D01*
X137346484Y-122338199D01*
X137386960Y-122419151D01*
X137427437Y-122459627D01*
X137508389Y-122500103D01*
X137832199Y-122500103D01*
X137832199Y-121650103D01*
X137548865Y-121650103D01*
X137467913Y-121690580D01*
X137427437Y-121731056D01*
X137386960Y-121812008D01*
X137386960Y-121892960D01*
X137427437Y-121973913D01*
X137467913Y-122014389D01*
X137548865Y-122054865D01*
X137832199Y-122054865D01*
X138828781Y-124002143D02*
X138302591Y-124002143D01*
X138585924Y-124325953D01*
X138464496Y-124325953D01*
X138383543Y-124366429D01*
X138343067Y-124406905D01*
X138302591Y-124487858D01*
X138302591Y-124690239D01*
X138343067Y-124771191D01*
X138383543Y-124811667D01*
X138464496Y-124852143D01*
X138707353Y-124852143D01*
X138788305Y-124811667D01*
X138828781Y-124771191D01*
X137938305Y-124771191D02*
X137897829Y-124811667D01*
X137938305Y-124852143D01*
X137978781Y-124811667D01*
X137938305Y-124771191D01*
X137938305Y-124852143D01*
X137614496Y-124002143D02*
X137088305Y-124002143D01*
X137371639Y-124325953D01*
X137250210Y-124325953D01*
X137169258Y-124366429D01*
X137128781Y-124406905D01*
X137088305Y-124487858D01*
X137088305Y-124690239D01*
X137128781Y-124771191D01*
X137169258Y-124811667D01*
X137250210Y-124852143D01*
X137493067Y-124852143D01*
X137574020Y-124811667D01*
X137614496Y-124771191D01*
X136845448Y-124002143D02*
X136562115Y-124852143D01*
X136278781Y-124002143D01*
X138092099Y-126689300D02*
X138173051Y-126648823D01*
X138294480Y-126648823D01*
X138415908Y-126689300D01*
X138496860Y-126770252D01*
X138537337Y-126851204D01*
X138577813Y-127013109D01*
X138577813Y-127134538D01*
X138537337Y-127296442D01*
X138496860Y-127377395D01*
X138415908Y-127458347D01*
X138294480Y-127498823D01*
X138213527Y-127498823D01*
X138092099Y-127458347D01*
X138051622Y-127417871D01*
X138051622Y-127134538D01*
X138213527Y-127134538D01*
X137687337Y-127498823D02*
X137687337Y-126648823D01*
X137201622Y-127498823D01*
X137201622Y-126648823D01*
X136796860Y-127498823D02*
X136796860Y-126648823D01*
X136594480Y-126648823D01*
X136473051Y-126689300D01*
X136392099Y-126770252D01*
X136351622Y-126851204D01*
X136311146Y-127013109D01*
X136311146Y-127134538D01*
X136351622Y-127296442D01*
X136392099Y-127377395D01*
X136473051Y-127458347D01*
X136594480Y-127498823D01*
X136796860Y-127498823D01*
X178203779Y-126432760D02*
X178284731Y-126392283D01*
X178406160Y-126392283D01*
X178527588Y-126432760D01*
X178608540Y-126513712D01*
X178649017Y-126594664D01*
X178689493Y-126756569D01*
X178689493Y-126877998D01*
X178649017Y-127039902D01*
X178608540Y-127120855D01*
X178527588Y-127201807D01*
X178406160Y-127242283D01*
X178325207Y-127242283D01*
X178203779Y-127201807D01*
X178163302Y-127161331D01*
X178163302Y-126877998D01*
X178325207Y-126877998D01*
X177799017Y-127242283D02*
X177799017Y-126392283D01*
X177313302Y-127242283D01*
X177313302Y-126392283D01*
X176908540Y-127242283D02*
X176908540Y-126392283D01*
X176706160Y-126392283D01*
X176584731Y-126432760D01*
X176503779Y-126513712D01*
X176463302Y-126594664D01*
X176422826Y-126756569D01*
X176422826Y-126877998D01*
X176463302Y-127039902D01*
X176503779Y-127120855D01*
X176584731Y-127201807D01*
X176706160Y-127242283D01*
X176908540Y-127242283D01*
X178732181Y-123925943D02*
X178205991Y-123925943D01*
X178489324Y-124249753D01*
X178367896Y-124249753D01*
X178286943Y-124290229D01*
X178246467Y-124330705D01*
X178205991Y-124411658D01*
X178205991Y-124614039D01*
X178246467Y-124694991D01*
X178286943Y-124735467D01*
X178367896Y-124775943D01*
X178610753Y-124775943D01*
X178691705Y-124735467D01*
X178732181Y-124694991D01*
X177841705Y-124694991D02*
X177801229Y-124735467D01*
X177841705Y-124775943D01*
X177882181Y-124735467D01*
X177841705Y-124694991D01*
X177841705Y-124775943D01*
X177517896Y-123925943D02*
X176991705Y-123925943D01*
X177275039Y-124249753D01*
X177153610Y-124249753D01*
X177072658Y-124290229D01*
X177032181Y-124330705D01*
X176991705Y-124411658D01*
X176991705Y-124614039D01*
X177032181Y-124694991D01*
X177072658Y-124735467D01*
X177153610Y-124775943D01*
X177396467Y-124775943D01*
X177477420Y-124735467D01*
X177517896Y-124694991D01*
X176748848Y-123925943D02*
X176465515Y-124775943D01*
X176182181Y-123925943D01*
D11*
G36*
X158482771Y-97379666D02*
G01*
X158853719Y-97379572D01*
X159189151Y-97379395D01*
X159490848Y-97379117D01*
X159760589Y-97378721D01*
X160000157Y-97378187D01*
X160211331Y-97377500D01*
X160395891Y-97376641D01*
X160555618Y-97375593D01*
X160692294Y-97374338D01*
X160807697Y-97372858D01*
X160903609Y-97371137D01*
X160981811Y-97369156D01*
X161044082Y-97366898D01*
X161092203Y-97364345D01*
X161127956Y-97361479D01*
X161153119Y-97358284D01*
X161169474Y-97354741D01*
X161178802Y-97350833D01*
X161181143Y-97348989D01*
X161191878Y-97319118D01*
X161200615Y-97257647D01*
X161207326Y-97171617D01*
X161211986Y-97068065D01*
X161214567Y-96954030D01*
X161215043Y-96836551D01*
X161213388Y-96722666D01*
X161209576Y-96619415D01*
X161203578Y-96533836D01*
X161195370Y-96472967D01*
X161184924Y-96443847D01*
X161184556Y-96443521D01*
X161160055Y-96436623D01*
X161100736Y-96425857D01*
X161010604Y-96411784D01*
X160893666Y-96394967D01*
X160753928Y-96375967D01*
X160595396Y-96355347D01*
X160422077Y-96333668D01*
X160271133Y-96315423D01*
X160084228Y-96293064D01*
X159905100Y-96271410D01*
X159738362Y-96251036D01*
X159588630Y-96232516D01*
X159460517Y-96216423D01*
X159358638Y-96203330D01*
X159287605Y-96193811D01*
X159258000Y-96189468D01*
X159064275Y-96148215D01*
X158865522Y-96087605D01*
X158666720Y-96010548D01*
X158472850Y-95919952D01*
X158288891Y-95818727D01*
X158119825Y-95709781D01*
X157970632Y-95596025D01*
X157846291Y-95480367D01*
X157751783Y-95365716D01*
X157703019Y-95281144D01*
X157651039Y-95124128D01*
X157634851Y-94965274D01*
X157651910Y-94809431D01*
X157699675Y-94661450D01*
X157775600Y-94526182D01*
X157877144Y-94408477D01*
X158001763Y-94313185D01*
X158146913Y-94245156D01*
X158261538Y-94215980D01*
X158335992Y-94203930D01*
X158429435Y-94189825D01*
X158522101Y-94176645D01*
X158525307Y-94176207D01*
X158710657Y-94133375D01*
X158875989Y-94057501D01*
X159024153Y-93947234D01*
X159041498Y-93931069D01*
X159154405Y-93800413D01*
X159243596Y-93649975D01*
X159304919Y-93488995D01*
X159334219Y-93326715D01*
X159336154Y-93275539D01*
X159336075Y-93235222D01*
X159333357Y-93202564D01*
X159324281Y-93176759D01*
X159305124Y-93157002D01*
X159272166Y-93142485D01*
X159221685Y-93132403D01*
X159149961Y-93125950D01*
X159053272Y-93122319D01*
X158927898Y-93120705D01*
X158770118Y-93120301D01*
X158619605Y-93120308D01*
X158434470Y-93120325D01*
X158284672Y-93120912D01*
X158166474Y-93122876D01*
X158076135Y-93127022D01*
X158009918Y-93134156D01*
X157964084Y-93145083D01*
X157934894Y-93160610D01*
X157918609Y-93181542D01*
X157911491Y-93208685D01*
X157909800Y-93242844D01*
X157909846Y-93273270D01*
X157909846Y-93354770D01*
X155272154Y-93354770D01*
X155272154Y-93268242D01*
X155272237Y-93230643D01*
X155270067Y-93200016D01*
X155262015Y-93175645D01*
X155244451Y-93156819D01*
X155213748Y-93142822D01*
X155166276Y-93132942D01*
X155098406Y-93126464D01*
X155006508Y-93122675D01*
X154886955Y-93120861D01*
X154736116Y-93120310D01*
X154550364Y-93120305D01*
X154519923Y-93120308D01*
X154334578Y-93120487D01*
X154184463Y-93121132D01*
X154065732Y-93122408D01*
X153974538Y-93124478D01*
X153907036Y-93127506D01*
X153859379Y-93131655D01*
X153827722Y-93137089D01*
X153808219Y-93143972D01*
X153798395Y-93151011D01*
X153776812Y-93196182D01*
X153768437Y-93269701D01*
X153772154Y-93341454D01*
X153982615Y-93341454D01*
X154001322Y-93339829D01*
X154054118Y-93338362D01*
X154136014Y-93337111D01*
X154242022Y-93336134D01*
X154367155Y-93335489D01*
X154506424Y-93335233D01*
X154519923Y-93335231D01*
X155057230Y-93335231D01*
X155057230Y-93409651D01*
X155063454Y-93467364D01*
X155078727Y-93511926D01*
X155081654Y-93516326D01*
X155110682Y-93536561D01*
X155167066Y-93562735D01*
X155240521Y-93590288D01*
X155270775Y-93600172D01*
X155487744Y-93676155D01*
X155675808Y-93758695D01*
X155832721Y-93846446D01*
X155956235Y-93938062D01*
X156044104Y-94032196D01*
X156075257Y-94082265D01*
X156117475Y-94137211D01*
X156168454Y-94166568D01*
X156219343Y-94170586D01*
X156261290Y-94149515D01*
X156285443Y-94103608D01*
X156288154Y-94076227D01*
X156270992Y-93985413D01*
X156218800Y-93892994D01*
X156130518Y-93797671D01*
X156005087Y-93698147D01*
X155947147Y-93658750D01*
X155811294Y-93569693D01*
X156601685Y-93570475D01*
X156797939Y-93570759D01*
X156958332Y-93571278D01*
X157086077Y-93572169D01*
X157184391Y-93573571D01*
X157256488Y-93575623D01*
X157305583Y-93578462D01*
X157334892Y-93582226D01*
X157347628Y-93587055D01*
X157347007Y-93593086D01*
X157336245Y-93600457D01*
X157333461Y-93601947D01*
X157222819Y-93668206D01*
X157118640Y-93745876D01*
X157027506Y-93828706D01*
X156956003Y-93910446D01*
X156910713Y-93984848D01*
X156901105Y-94012352D01*
X156896660Y-94083366D01*
X156919168Y-94138179D01*
X156965016Y-94168059D01*
X156965552Y-94168195D01*
X157018107Y-94171462D01*
X157061995Y-94148158D01*
X157104773Y-94093358D01*
X157119890Y-94067602D01*
X157186765Y-93980782D01*
X157288863Y-93893360D01*
X157422434Y-93807600D01*
X157583731Y-93725764D01*
X157769005Y-93650116D01*
X157868434Y-93615656D01*
X157954250Y-93586443D01*
X158027462Y-93559476D01*
X158079277Y-93538120D01*
X158099493Y-93527270D01*
X158115094Y-93495965D01*
X158123983Y-93442551D01*
X158124769Y-93420762D01*
X158124769Y-93335231D01*
X159117077Y-93335231D01*
X159098590Y-93417509D01*
X159052150Y-93546098D01*
X158975052Y-93671608D01*
X158875126Y-93784201D01*
X158760202Y-93874036D01*
X158714687Y-93899926D01*
X158653474Y-93923726D01*
X158571673Y-93946039D01*
X158492104Y-93961192D01*
X158394711Y-93975147D01*
X158288167Y-93990366D01*
X158213954Y-94000935D01*
X158050157Y-94043076D01*
X157893194Y-94119288D01*
X157750019Y-94224563D01*
X157627584Y-94353895D01*
X157541875Y-94484841D01*
X157492880Y-94582534D01*
X157460278Y-94665626D01*
X157438363Y-94751741D01*
X157421774Y-94855930D01*
X157416600Y-95038008D01*
X157447758Y-95218462D01*
X157512871Y-95390344D01*
X157609560Y-95546707D01*
X157689618Y-95638131D01*
X157892279Y-95816320D01*
X158124532Y-95979260D01*
X158378572Y-96123035D01*
X158646594Y-96243729D01*
X158920793Y-96337426D01*
X159193364Y-96400210D01*
X159216026Y-96403967D01*
X159256606Y-96409731D01*
X159329118Y-96419247D01*
X159428709Y-96431928D01*
X159550526Y-96447186D01*
X159689716Y-96464433D01*
X159841427Y-96483081D01*
X160000805Y-96502541D01*
X160162998Y-96522227D01*
X160323152Y-96541549D01*
X160476416Y-96559920D01*
X160617935Y-96576751D01*
X160742857Y-96591456D01*
X160846330Y-96603445D01*
X160923500Y-96612131D01*
X160969515Y-96616926D01*
X160979950Y-96617693D01*
X160989246Y-96635362D01*
X160995411Y-96680940D01*
X160996923Y-96725154D01*
X160996923Y-96832616D01*
X155135384Y-96832616D01*
X155135384Y-95644667D01*
X155233316Y-95621174D01*
X155353984Y-95573670D01*
X155466700Y-95494771D01*
X155563259Y-95392154D01*
X155635455Y-95273502D01*
X155654316Y-95227168D01*
X155671914Y-95149465D01*
X155681643Y-95047226D01*
X155683298Y-94934233D01*
X155676678Y-94824267D01*
X155661616Y-94731261D01*
X155599921Y-94554534D01*
X155506614Y-94394497D01*
X155386155Y-94255261D01*
X155243000Y-94140941D01*
X155081608Y-94055650D01*
X154906436Y-94003502D01*
X154865612Y-93996761D01*
X154770772Y-93983383D01*
X154665692Y-93968539D01*
X154602165Y-93959554D01*
X154440280Y-93917933D01*
X154296736Y-93843328D01*
X154175354Y-93739037D01*
X154079957Y-93608356D01*
X154014368Y-93454584D01*
X154013570Y-93451913D01*
X153996608Y-93393774D01*
X153985365Y-93353271D01*
X153982615Y-93341454D01*
X153772154Y-93341454D01*
X153773278Y-93363138D01*
X153791341Y-93468064D01*
X153798130Y-93495903D01*
X153862306Y-93667692D01*
X153959521Y-93823203D01*
X154085262Y-93956969D01*
X154235018Y-94063525D01*
X154290760Y-94092658D01*
X154361727Y-94123925D01*
X154431372Y-94147584D01*
X154510766Y-94166447D01*
X154610980Y-94183326D01*
X154691298Y-94194404D01*
X154820713Y-94213417D01*
X154919203Y-94233103D01*
X154994903Y-94255383D01*
X155049886Y-94279044D01*
X155185012Y-94368807D01*
X155298249Y-94486902D01*
X155385396Y-94626817D01*
X155442250Y-94782037D01*
X155463562Y-94920166D01*
X155463873Y-95043281D01*
X155446454Y-95140814D01*
X155408227Y-95223412D01*
X155356476Y-95290490D01*
X155320636Y-95327357D01*
X155283788Y-95356772D01*
X155241048Y-95379693D01*
X155187533Y-95397080D01*
X155118360Y-95409892D01*
X155028646Y-95419090D01*
X154913509Y-95425633D01*
X154768064Y-95430480D01*
X154627384Y-95433765D01*
X154295212Y-95446556D01*
X153993851Y-95471210D01*
X153716430Y-95509241D01*
X153456077Y-95562163D01*
X153205923Y-95631492D01*
X152959095Y-95718740D01*
X152708723Y-95825424D01*
X152585615Y-95883811D01*
X152253556Y-96061272D01*
X151949561Y-96256870D01*
X151664380Y-96477130D01*
X151389911Y-96727454D01*
X151312778Y-96804686D01*
X151260379Y-96861510D01*
X151252639Y-96871693D01*
X151562747Y-96871693D01*
X151673642Y-96767556D01*
X151839924Y-96622812D01*
X152031598Y-96475085D01*
X152236663Y-96332731D01*
X152443115Y-96204105D01*
X152628729Y-96102673D01*
X152931875Y-95967272D01*
X153259680Y-95851856D01*
X153601632Y-95759385D01*
X153947218Y-95692817D01*
X154192654Y-95662564D01*
X154199800Y-95670085D01*
X154205506Y-95696293D01*
X154209903Y-95744459D01*
X154213125Y-95817857D01*
X154215303Y-95919760D01*
X154216571Y-96053441D01*
X154217060Y-96222173D01*
X154217077Y-96266000D01*
X154217077Y-96871693D01*
X151562747Y-96871693D01*
X151252639Y-96871693D01*
X151228370Y-96903621D01*
X151212410Y-96936717D01*
X151208154Y-96965888D01*
X151208098Y-96969385D01*
X154432000Y-96969385D01*
X154432000Y-95640770D01*
X154920461Y-95640770D01*
X154920461Y-96969385D01*
X154432000Y-96969385D01*
X151208098Y-96969385D01*
X151207798Y-96987981D01*
X151208420Y-97007205D01*
X151212559Y-97023759D01*
X151222751Y-97037841D01*
X151241534Y-97049652D01*
X151271445Y-97059390D01*
X151315021Y-97067255D01*
X151374800Y-97073445D01*
X151453319Y-97078161D01*
X151553115Y-97081601D01*
X151676725Y-97083965D01*
X151826687Y-97085452D01*
X152005537Y-97086262D01*
X152215814Y-97086592D01*
X152460054Y-97086644D01*
X152740795Y-97086616D01*
X154195762Y-97086616D01*
X154244608Y-97135462D01*
X154264129Y-97153708D01*
X154281640Y-97164770D01*
X155135384Y-97164770D01*
X155135384Y-97047539D01*
X160996923Y-97047539D01*
X160996923Y-97164770D01*
X155135384Y-97164770D01*
X154281640Y-97164770D01*
X154284745Y-97166731D01*
X154312987Y-97175410D01*
X154355389Y-97180627D01*
X154418483Y-97183261D01*
X154508803Y-97184194D01*
X154606958Y-97184308D01*
X154920461Y-97184308D01*
X154920461Y-97242923D01*
X154933710Y-97300293D01*
X154959538Y-97340616D01*
X154965157Y-97345766D01*
X154972436Y-97350443D01*
X154983198Y-97354669D01*
X154999264Y-97358467D01*
X155022454Y-97361860D01*
X155054589Y-97364870D01*
X155097491Y-97367521D01*
X155152980Y-97369836D01*
X155222879Y-97371837D01*
X155309006Y-97373547D01*
X155413185Y-97374989D01*
X155537236Y-97376186D01*
X155682979Y-97377160D01*
X155852237Y-97377935D01*
X156046829Y-97378533D01*
X156268577Y-97378977D01*
X156519303Y-97379291D01*
X156800827Y-97379496D01*
X157114970Y-97379616D01*
X157463553Y-97379673D01*
X157848398Y-97379691D01*
X158074527Y-97379693D01*
X158482771Y-97379666D01*
X158482771Y-97379666D01*
G37*
X158482771Y-97379666D02*
X158853719Y-97379572D01*
X159189151Y-97379395D01*
X159490848Y-97379117D01*
X159760589Y-97378721D01*
X160000157Y-97378187D01*
X160211331Y-97377500D01*
X160395891Y-97376641D01*
X160555618Y-97375593D01*
X160692294Y-97374338D01*
X160807697Y-97372858D01*
X160903609Y-97371137D01*
X160981811Y-97369156D01*
X161044082Y-97366898D01*
X161092203Y-97364345D01*
X161127956Y-97361479D01*
X161153119Y-97358284D01*
X161169474Y-97354741D01*
X161178802Y-97350833D01*
X161181143Y-97348989D01*
X161191878Y-97319118D01*
X161200615Y-97257647D01*
X161207326Y-97171617D01*
X161211986Y-97068065D01*
X161214567Y-96954030D01*
X161215043Y-96836551D01*
X161213388Y-96722666D01*
X161209576Y-96619415D01*
X161203578Y-96533836D01*
X161195370Y-96472967D01*
X161184924Y-96443847D01*
X161184556Y-96443521D01*
X161160055Y-96436623D01*
X161100736Y-96425857D01*
X161010604Y-96411784D01*
X160893666Y-96394967D01*
X160753928Y-96375967D01*
X160595396Y-96355347D01*
X160422077Y-96333668D01*
X160271133Y-96315423D01*
X160084228Y-96293064D01*
X159905100Y-96271410D01*
X159738362Y-96251036D01*
X159588630Y-96232516D01*
X159460517Y-96216423D01*
X159358638Y-96203330D01*
X159287605Y-96193811D01*
X159258000Y-96189468D01*
X159064275Y-96148215D01*
X158865522Y-96087605D01*
X158666720Y-96010548D01*
X158472850Y-95919952D01*
X158288891Y-95818727D01*
X158119825Y-95709781D01*
X157970632Y-95596025D01*
X157846291Y-95480367D01*
X157751783Y-95365716D01*
X157703019Y-95281144D01*
X157651039Y-95124128D01*
X157634851Y-94965274D01*
X157651910Y-94809431D01*
X157699675Y-94661450D01*
X157775600Y-94526182D01*
X157877144Y-94408477D01*
X158001763Y-94313185D01*
X158146913Y-94245156D01*
X158261538Y-94215980D01*
X158335992Y-94203930D01*
X158429435Y-94189825D01*
X158522101Y-94176645D01*
X158525307Y-94176207D01*
X158710657Y-94133375D01*
X158875989Y-94057501D01*
X159024153Y-93947234D01*
X159041498Y-93931069D01*
X159154405Y-93800413D01*
X159243596Y-93649975D01*
X159304919Y-93488995D01*
X159334219Y-93326715D01*
X159336154Y-93275539D01*
X159336075Y-93235222D01*
X159333357Y-93202564D01*
X159324281Y-93176759D01*
X159305124Y-93157002D01*
X159272166Y-93142485D01*
X159221685Y-93132403D01*
X159149961Y-93125950D01*
X159053272Y-93122319D01*
X158927898Y-93120705D01*
X158770118Y-93120301D01*
X158619605Y-93120308D01*
X158434470Y-93120325D01*
X158284672Y-93120912D01*
X158166474Y-93122876D01*
X158076135Y-93127022D01*
X158009918Y-93134156D01*
X157964084Y-93145083D01*
X157934894Y-93160610D01*
X157918609Y-93181542D01*
X157911491Y-93208685D01*
X157909800Y-93242844D01*
X157909846Y-93273270D01*
X157909846Y-93354770D01*
X155272154Y-93354770D01*
X155272154Y-93268242D01*
X155272237Y-93230643D01*
X155270067Y-93200016D01*
X155262015Y-93175645D01*
X155244451Y-93156819D01*
X155213748Y-93142822D01*
X155166276Y-93132942D01*
X155098406Y-93126464D01*
X155006508Y-93122675D01*
X154886955Y-93120861D01*
X154736116Y-93120310D01*
X154550364Y-93120305D01*
X154519923Y-93120308D01*
X154334578Y-93120487D01*
X154184463Y-93121132D01*
X154065732Y-93122408D01*
X153974538Y-93124478D01*
X153907036Y-93127506D01*
X153859379Y-93131655D01*
X153827722Y-93137089D01*
X153808219Y-93143972D01*
X153798395Y-93151011D01*
X153776812Y-93196182D01*
X153768437Y-93269701D01*
X153772154Y-93341454D01*
X153982615Y-93341454D01*
X154001322Y-93339829D01*
X154054118Y-93338362D01*
X154136014Y-93337111D01*
X154242022Y-93336134D01*
X154367155Y-93335489D01*
X154506424Y-93335233D01*
X154519923Y-93335231D01*
X155057230Y-93335231D01*
X155057230Y-93409651D01*
X155063454Y-93467364D01*
X155078727Y-93511926D01*
X155081654Y-93516326D01*
X155110682Y-93536561D01*
X155167066Y-93562735D01*
X155240521Y-93590288D01*
X155270775Y-93600172D01*
X155487744Y-93676155D01*
X155675808Y-93758695D01*
X155832721Y-93846446D01*
X155956235Y-93938062D01*
X156044104Y-94032196D01*
X156075257Y-94082265D01*
X156117475Y-94137211D01*
X156168454Y-94166568D01*
X156219343Y-94170586D01*
X156261290Y-94149515D01*
X156285443Y-94103608D01*
X156288154Y-94076227D01*
X156270992Y-93985413D01*
X156218800Y-93892994D01*
X156130518Y-93797671D01*
X156005087Y-93698147D01*
X155947147Y-93658750D01*
X155811294Y-93569693D01*
X156601685Y-93570475D01*
X156797939Y-93570759D01*
X156958332Y-93571278D01*
X157086077Y-93572169D01*
X157184391Y-93573571D01*
X157256488Y-93575623D01*
X157305583Y-93578462D01*
X157334892Y-93582226D01*
X157347628Y-93587055D01*
X157347007Y-93593086D01*
X157336245Y-93600457D01*
X157333461Y-93601947D01*
X157222819Y-93668206D01*
X157118640Y-93745876D01*
X157027506Y-93828706D01*
X156956003Y-93910446D01*
X156910713Y-93984848D01*
X156901105Y-94012352D01*
X156896660Y-94083366D01*
X156919168Y-94138179D01*
X156965016Y-94168059D01*
X156965552Y-94168195D01*
X157018107Y-94171462D01*
X157061995Y-94148158D01*
X157104773Y-94093358D01*
X157119890Y-94067602D01*
X157186765Y-93980782D01*
X157288863Y-93893360D01*
X157422434Y-93807600D01*
X157583731Y-93725764D01*
X157769005Y-93650116D01*
X157868434Y-93615656D01*
X157954250Y-93586443D01*
X158027462Y-93559476D01*
X158079277Y-93538120D01*
X158099493Y-93527270D01*
X158115094Y-93495965D01*
X158123983Y-93442551D01*
X158124769Y-93420762D01*
X158124769Y-93335231D01*
X159117077Y-93335231D01*
X159098590Y-93417509D01*
X159052150Y-93546098D01*
X158975052Y-93671608D01*
X158875126Y-93784201D01*
X158760202Y-93874036D01*
X158714687Y-93899926D01*
X158653474Y-93923726D01*
X158571673Y-93946039D01*
X158492104Y-93961192D01*
X158394711Y-93975147D01*
X158288167Y-93990366D01*
X158213954Y-94000935D01*
X158050157Y-94043076D01*
X157893194Y-94119288D01*
X157750019Y-94224563D01*
X157627584Y-94353895D01*
X157541875Y-94484841D01*
X157492880Y-94582534D01*
X157460278Y-94665626D01*
X157438363Y-94751741D01*
X157421774Y-94855930D01*
X157416600Y-95038008D01*
X157447758Y-95218462D01*
X157512871Y-95390344D01*
X157609560Y-95546707D01*
X157689618Y-95638131D01*
X157892279Y-95816320D01*
X158124532Y-95979260D01*
X158378572Y-96123035D01*
X158646594Y-96243729D01*
X158920793Y-96337426D01*
X159193364Y-96400210D01*
X159216026Y-96403967D01*
X159256606Y-96409731D01*
X159329118Y-96419247D01*
X159428709Y-96431928D01*
X159550526Y-96447186D01*
X159689716Y-96464433D01*
X159841427Y-96483081D01*
X160000805Y-96502541D01*
X160162998Y-96522227D01*
X160323152Y-96541549D01*
X160476416Y-96559920D01*
X160617935Y-96576751D01*
X160742857Y-96591456D01*
X160846330Y-96603445D01*
X160923500Y-96612131D01*
X160969515Y-96616926D01*
X160979950Y-96617693D01*
X160989246Y-96635362D01*
X160995411Y-96680940D01*
X160996923Y-96725154D01*
X160996923Y-96832616D01*
X155135384Y-96832616D01*
X155135384Y-95644667D01*
X155233316Y-95621174D01*
X155353984Y-95573670D01*
X155466700Y-95494771D01*
X155563259Y-95392154D01*
X155635455Y-95273502D01*
X155654316Y-95227168D01*
X155671914Y-95149465D01*
X155681643Y-95047226D01*
X155683298Y-94934233D01*
X155676678Y-94824267D01*
X155661616Y-94731261D01*
X155599921Y-94554534D01*
X155506614Y-94394497D01*
X155386155Y-94255261D01*
X155243000Y-94140941D01*
X155081608Y-94055650D01*
X154906436Y-94003502D01*
X154865612Y-93996761D01*
X154770772Y-93983383D01*
X154665692Y-93968539D01*
X154602165Y-93959554D01*
X154440280Y-93917933D01*
X154296736Y-93843328D01*
X154175354Y-93739037D01*
X154079957Y-93608356D01*
X154014368Y-93454584D01*
X154013570Y-93451913D01*
X153996608Y-93393774D01*
X153985365Y-93353271D01*
X153982615Y-93341454D01*
X153772154Y-93341454D01*
X153773278Y-93363138D01*
X153791341Y-93468064D01*
X153798130Y-93495903D01*
X153862306Y-93667692D01*
X153959521Y-93823203D01*
X154085262Y-93956969D01*
X154235018Y-94063525D01*
X154290760Y-94092658D01*
X154361727Y-94123925D01*
X154431372Y-94147584D01*
X154510766Y-94166447D01*
X154610980Y-94183326D01*
X154691298Y-94194404D01*
X154820713Y-94213417D01*
X154919203Y-94233103D01*
X154994903Y-94255383D01*
X155049886Y-94279044D01*
X155185012Y-94368807D01*
X155298249Y-94486902D01*
X155385396Y-94626817D01*
X155442250Y-94782037D01*
X155463562Y-94920166D01*
X155463873Y-95043281D01*
X155446454Y-95140814D01*
X155408227Y-95223412D01*
X155356476Y-95290490D01*
X155320636Y-95327357D01*
X155283788Y-95356772D01*
X155241048Y-95379693D01*
X155187533Y-95397080D01*
X155118360Y-95409892D01*
X155028646Y-95419090D01*
X154913509Y-95425633D01*
X154768064Y-95430480D01*
X154627384Y-95433765D01*
X154295212Y-95446556D01*
X153993851Y-95471210D01*
X153716430Y-95509241D01*
X153456077Y-95562163D01*
X153205923Y-95631492D01*
X152959095Y-95718740D01*
X152708723Y-95825424D01*
X152585615Y-95883811D01*
X152253556Y-96061272D01*
X151949561Y-96256870D01*
X151664380Y-96477130D01*
X151389911Y-96727454D01*
X151312778Y-96804686D01*
X151260379Y-96861510D01*
X151252639Y-96871693D01*
X151562747Y-96871693D01*
X151673642Y-96767556D01*
X151839924Y-96622812D01*
X152031598Y-96475085D01*
X152236663Y-96332731D01*
X152443115Y-96204105D01*
X152628729Y-96102673D01*
X152931875Y-95967272D01*
X153259680Y-95851856D01*
X153601632Y-95759385D01*
X153947218Y-95692817D01*
X154192654Y-95662564D01*
X154199800Y-95670085D01*
X154205506Y-95696293D01*
X154209903Y-95744459D01*
X154213125Y-95817857D01*
X154215303Y-95919760D01*
X154216571Y-96053441D01*
X154217060Y-96222173D01*
X154217077Y-96266000D01*
X154217077Y-96871693D01*
X151562747Y-96871693D01*
X151252639Y-96871693D01*
X151228370Y-96903621D01*
X151212410Y-96936717D01*
X151208154Y-96965888D01*
X151208098Y-96969385D01*
X154432000Y-96969385D01*
X154432000Y-95640770D01*
X154920461Y-95640770D01*
X154920461Y-96969385D01*
X154432000Y-96969385D01*
X151208098Y-96969385D01*
X151207798Y-96987981D01*
X151208420Y-97007205D01*
X151212559Y-97023759D01*
X151222751Y-97037841D01*
X151241534Y-97049652D01*
X151271445Y-97059390D01*
X151315021Y-97067255D01*
X151374800Y-97073445D01*
X151453319Y-97078161D01*
X151553115Y-97081601D01*
X151676725Y-97083965D01*
X151826687Y-97085452D01*
X152005537Y-97086262D01*
X152215814Y-97086592D01*
X152460054Y-97086644D01*
X152740795Y-97086616D01*
X154195762Y-97086616D01*
X154244608Y-97135462D01*
X154264129Y-97153708D01*
X154281640Y-97164770D01*
X155135384Y-97164770D01*
X155135384Y-97047539D01*
X160996923Y-97047539D01*
X160996923Y-97164770D01*
X155135384Y-97164770D01*
X154281640Y-97164770D01*
X154284745Y-97166731D01*
X154312987Y-97175410D01*
X154355389Y-97180627D01*
X154418483Y-97183261D01*
X154508803Y-97184194D01*
X154606958Y-97184308D01*
X154920461Y-97184308D01*
X154920461Y-97242923D01*
X154933710Y-97300293D01*
X154959538Y-97340616D01*
X154965157Y-97345766D01*
X154972436Y-97350443D01*
X154983198Y-97354669D01*
X154999264Y-97358467D01*
X155022454Y-97361860D01*
X155054589Y-97364870D01*
X155097491Y-97367521D01*
X155152980Y-97369836D01*
X155222879Y-97371837D01*
X155309006Y-97373547D01*
X155413185Y-97374989D01*
X155537236Y-97376186D01*
X155682979Y-97377160D01*
X155852237Y-97377935D01*
X156046829Y-97378533D01*
X156268577Y-97378977D01*
X156519303Y-97379291D01*
X156800827Y-97379496D01*
X157114970Y-97379616D01*
X157463553Y-97379673D01*
X157848398Y-97379691D01*
X158074527Y-97379693D01*
X158482771Y-97379666D01*
G36*
X150544837Y-85328242D02*
G01*
X150584319Y-85327841D01*
X150700008Y-85325049D01*
X150796897Y-85316758D01*
X150878289Y-85302076D01*
X150947485Y-85280115D01*
X151007788Y-85249986D01*
X151062500Y-85210798D01*
X151082041Y-85193776D01*
X151114458Y-85153945D01*
X151143688Y-85099895D01*
X151166217Y-85039985D01*
X151178529Y-84982569D01*
X151179808Y-84961352D01*
X151171791Y-84902539D01*
X151150309Y-84838295D01*
X151119209Y-84777487D01*
X151082342Y-84728978D01*
X151076354Y-84723126D01*
X151025629Y-84681987D01*
X150970083Y-84649873D01*
X150906512Y-84625943D01*
X150831714Y-84609355D01*
X150742486Y-84599267D01*
X150635626Y-84594839D01*
X150586680Y-84594463D01*
X150524446Y-84594763D01*
X150480680Y-84596016D01*
X150451277Y-84598754D01*
X150432129Y-84603507D01*
X150419131Y-84610807D01*
X150412163Y-84617041D01*
X150405582Y-84624614D01*
X150400420Y-84634384D01*
X150396505Y-84648968D01*
X150393665Y-84670982D01*
X150391728Y-84703044D01*
X150390524Y-84747772D01*
X150389880Y-84807782D01*
X150389625Y-84885691D01*
X150389586Y-84961352D01*
X150389338Y-85062267D01*
X150389391Y-85142881D01*
X150390351Y-85181486D01*
X150536341Y-85181486D01*
X150536341Y-84741219D01*
X150629474Y-84741304D01*
X150685515Y-84742912D01*
X150744209Y-84747052D01*
X150793180Y-84752844D01*
X150794670Y-84753082D01*
X150873816Y-84772218D01*
X150935206Y-84802021D01*
X150981903Y-84844430D01*
X151011573Y-84890347D01*
X151029855Y-84941282D01*
X151028437Y-84989108D01*
X151007220Y-85040375D01*
X150965719Y-85093409D01*
X150908210Y-85132708D01*
X150833458Y-85158977D01*
X150783500Y-85168273D01*
X150726792Y-85174801D01*
X150666689Y-85179526D01*
X150615569Y-85181491D01*
X150612541Y-85181500D01*
X150536341Y-85181486D01*
X150390351Y-85181486D01*
X150390948Y-85205457D01*
X150395210Y-85252253D01*
X150403378Y-85285530D01*
X150416652Y-85307549D01*
X150436234Y-85320569D01*
X150463325Y-85326851D01*
X150499126Y-85328655D01*
X150544837Y-85328242D01*
X150544837Y-85328242D01*
G37*
X150544837Y-85328242D02*
X150584319Y-85327841D01*
X150700008Y-85325049D01*
X150796897Y-85316758D01*
X150878289Y-85302076D01*
X150947485Y-85280115D01*
X151007788Y-85249986D01*
X151062500Y-85210798D01*
X151082041Y-85193776D01*
X151114458Y-85153945D01*
X151143688Y-85099895D01*
X151166217Y-85039985D01*
X151178529Y-84982569D01*
X151179808Y-84961352D01*
X151171791Y-84902539D01*
X151150309Y-84838295D01*
X151119209Y-84777487D01*
X151082342Y-84728978D01*
X151076354Y-84723126D01*
X151025629Y-84681987D01*
X150970083Y-84649873D01*
X150906512Y-84625943D01*
X150831714Y-84609355D01*
X150742486Y-84599267D01*
X150635626Y-84594839D01*
X150586680Y-84594463D01*
X150524446Y-84594763D01*
X150480680Y-84596016D01*
X150451277Y-84598754D01*
X150432129Y-84603507D01*
X150419131Y-84610807D01*
X150412163Y-84617041D01*
X150405582Y-84624614D01*
X150400420Y-84634384D01*
X150396505Y-84648968D01*
X150393665Y-84670982D01*
X150391728Y-84703044D01*
X150390524Y-84747772D01*
X150389880Y-84807782D01*
X150389625Y-84885691D01*
X150389586Y-84961352D01*
X150389338Y-85062267D01*
X150389391Y-85142881D01*
X150390351Y-85181486D01*
X150536341Y-85181486D01*
X150536341Y-84741219D01*
X150629474Y-84741304D01*
X150685515Y-84742912D01*
X150744209Y-84747052D01*
X150793180Y-84752844D01*
X150794670Y-84753082D01*
X150873816Y-84772218D01*
X150935206Y-84802021D01*
X150981903Y-84844430D01*
X151011573Y-84890347D01*
X151029855Y-84941282D01*
X151028437Y-84989108D01*
X151007220Y-85040375D01*
X150965719Y-85093409D01*
X150908210Y-85132708D01*
X150833458Y-85158977D01*
X150783500Y-85168273D01*
X150726792Y-85174801D01*
X150666689Y-85179526D01*
X150615569Y-85181491D01*
X150612541Y-85181500D01*
X150536341Y-85181486D01*
X150390351Y-85181486D01*
X150390948Y-85205457D01*
X150395210Y-85252253D01*
X150403378Y-85285530D01*
X150416652Y-85307549D01*
X150436234Y-85320569D01*
X150463325Y-85326851D01*
X150499126Y-85328655D01*
X150544837Y-85328242D01*
G36*
X151953414Y-85328162D02*
G01*
X152022822Y-85327790D01*
X152075211Y-85326923D01*
X152113361Y-85325362D01*
X152140049Y-85322905D01*
X152158055Y-85319351D01*
X152170159Y-85314498D01*
X152179139Y-85308147D01*
X152182390Y-85305224D01*
X152202165Y-85274166D01*
X152205726Y-85238480D01*
X152192717Y-85206798D01*
X152186702Y-85200395D01*
X152176973Y-85194187D01*
X152161307Y-85189398D01*
X152136800Y-85185794D01*
X152100547Y-85183144D01*
X152049643Y-85181213D01*
X151981182Y-85179769D01*
X151918591Y-85178890D01*
X151670874Y-85175841D01*
X151667489Y-85110930D01*
X151664103Y-85046019D01*
X151832250Y-85046019D01*
X151905249Y-85045389D01*
X151958691Y-85042755D01*
X151995580Y-85036999D01*
X152018920Y-85027004D01*
X152031714Y-85011652D01*
X152036966Y-84989826D01*
X152037763Y-84969570D01*
X152035285Y-84944716D01*
X152025931Y-84926402D01*
X152006825Y-84913671D01*
X151975090Y-84905567D01*
X151927849Y-84901132D01*
X151862225Y-84899409D01*
X151826407Y-84899263D01*
X151665230Y-84899263D01*
X151665230Y-84741219D01*
X151913586Y-84741219D01*
X151994995Y-84741106D01*
X152056866Y-84740596D01*
X152102240Y-84739438D01*
X152134154Y-84737378D01*
X152155649Y-84734162D01*
X152169765Y-84729536D01*
X152179540Y-84723249D01*
X152184519Y-84718641D01*
X152201598Y-84691748D01*
X152207097Y-84667841D01*
X152199245Y-84638641D01*
X152184519Y-84617041D01*
X152176662Y-84610242D01*
X152166520Y-84604962D01*
X152151364Y-84601010D01*
X152128467Y-84598195D01*
X152095099Y-84596326D01*
X152048533Y-84595210D01*
X151986041Y-84594657D01*
X151904894Y-84594475D01*
X151862786Y-84594463D01*
X151772610Y-84594543D01*
X151702284Y-84594910D01*
X151649079Y-84595756D01*
X151610268Y-84597272D01*
X151583121Y-84599649D01*
X151564910Y-84603079D01*
X151552908Y-84607754D01*
X151544386Y-84613864D01*
X151541052Y-84617041D01*
X151534453Y-84624638D01*
X151529281Y-84634438D01*
X151525362Y-84649069D01*
X151522524Y-84671156D01*
X151520593Y-84703326D01*
X151519396Y-84748205D01*
X151518760Y-84808419D01*
X151518511Y-84886595D01*
X151518474Y-84959385D01*
X151518508Y-85052601D01*
X151518743Y-85125877D01*
X151519378Y-85181850D01*
X151520614Y-85223157D01*
X151522652Y-85252436D01*
X151525691Y-85272324D01*
X151529931Y-85285458D01*
X151535573Y-85294476D01*
X151542817Y-85302015D01*
X151544602Y-85303696D01*
X151553263Y-85311136D01*
X151563326Y-85316899D01*
X151577583Y-85321196D01*
X151598825Y-85324244D01*
X151629844Y-85326257D01*
X151673431Y-85327448D01*
X151732377Y-85328033D01*
X151809474Y-85328225D01*
X151864207Y-85328241D01*
X151953414Y-85328162D01*
X151953414Y-85328162D01*
G37*
X151953414Y-85328162D02*
X152022822Y-85327790D01*
X152075211Y-85326923D01*
X152113361Y-85325362D01*
X152140049Y-85322905D01*
X152158055Y-85319351D01*
X152170159Y-85314498D01*
X152179139Y-85308147D01*
X152182390Y-85305224D01*
X152202165Y-85274166D01*
X152205726Y-85238480D01*
X152192717Y-85206798D01*
X152186702Y-85200395D01*
X152176973Y-85194187D01*
X152161307Y-85189398D01*
X152136800Y-85185794D01*
X152100547Y-85183144D01*
X152049643Y-85181213D01*
X151981182Y-85179769D01*
X151918591Y-85178890D01*
X151670874Y-85175841D01*
X151667489Y-85110930D01*
X151664103Y-85046019D01*
X151832250Y-85046019D01*
X151905249Y-85045389D01*
X151958691Y-85042755D01*
X151995580Y-85036999D01*
X152018920Y-85027004D01*
X152031714Y-85011652D01*
X152036966Y-84989826D01*
X152037763Y-84969570D01*
X152035285Y-84944716D01*
X152025931Y-84926402D01*
X152006825Y-84913671D01*
X151975090Y-84905567D01*
X151927849Y-84901132D01*
X151862225Y-84899409D01*
X151826407Y-84899263D01*
X151665230Y-84899263D01*
X151665230Y-84741219D01*
X151913586Y-84741219D01*
X151994995Y-84741106D01*
X152056866Y-84740596D01*
X152102240Y-84739438D01*
X152134154Y-84737378D01*
X152155649Y-84734162D01*
X152169765Y-84729536D01*
X152179540Y-84723249D01*
X152184519Y-84718641D01*
X152201598Y-84691748D01*
X152207097Y-84667841D01*
X152199245Y-84638641D01*
X152184519Y-84617041D01*
X152176662Y-84610242D01*
X152166520Y-84604962D01*
X152151364Y-84601010D01*
X152128467Y-84598195D01*
X152095099Y-84596326D01*
X152048533Y-84595210D01*
X151986041Y-84594657D01*
X151904894Y-84594475D01*
X151862786Y-84594463D01*
X151772610Y-84594543D01*
X151702284Y-84594910D01*
X151649079Y-84595756D01*
X151610268Y-84597272D01*
X151583121Y-84599649D01*
X151564910Y-84603079D01*
X151552908Y-84607754D01*
X151544386Y-84613864D01*
X151541052Y-84617041D01*
X151534453Y-84624638D01*
X151529281Y-84634438D01*
X151525362Y-84649069D01*
X151522524Y-84671156D01*
X151520593Y-84703326D01*
X151519396Y-84748205D01*
X151518760Y-84808419D01*
X151518511Y-84886595D01*
X151518474Y-84959385D01*
X151518508Y-85052601D01*
X151518743Y-85125877D01*
X151519378Y-85181850D01*
X151520614Y-85223157D01*
X151522652Y-85252436D01*
X151525691Y-85272324D01*
X151529931Y-85285458D01*
X151535573Y-85294476D01*
X151542817Y-85302015D01*
X151544602Y-85303696D01*
X151553263Y-85311136D01*
X151563326Y-85316899D01*
X151577583Y-85321196D01*
X151598825Y-85324244D01*
X151629844Y-85326257D01*
X151673431Y-85327448D01*
X151732377Y-85328033D01*
X151809474Y-85328225D01*
X151864207Y-85328241D01*
X151953414Y-85328162D01*
G36*
X152974505Y-85326957D02*
G01*
X153049320Y-85321727D01*
X153118902Y-85313558D01*
X153179206Y-85302758D01*
X153226188Y-85289635D01*
X153255802Y-85274495D01*
X153260348Y-85270039D01*
X153276154Y-85235458D01*
X153271361Y-85199957D01*
X153246844Y-85169583D01*
X153245674Y-85168712D01*
X153231254Y-85159354D01*
X153216200Y-85154432D01*
X153195203Y-85153835D01*
X153162951Y-85157447D01*
X153114135Y-85165154D01*
X153110208Y-85165803D01*
X153037469Y-85174739D01*
X152958991Y-85179147D01*
X152880281Y-85179189D01*
X152806847Y-85175029D01*
X152744197Y-85166829D01*
X152697838Y-85154751D01*
X152694792Y-85153537D01*
X152661160Y-85134693D01*
X152649344Y-85115623D01*
X152658594Y-85096869D01*
X152688161Y-85078971D01*
X152737297Y-85062471D01*
X152805251Y-85047912D01*
X152850563Y-85040902D01*
X152944752Y-85027419D01*
X153019664Y-85015094D01*
X153078491Y-85002859D01*
X153124423Y-84989647D01*
X153160653Y-84974391D01*
X153190370Y-84956023D01*
X153216766Y-84933477D01*
X153237978Y-84911337D01*
X153263143Y-84880489D01*
X153275527Y-84853963D01*
X153279400Y-84821282D01*
X153279541Y-84809313D01*
X153276632Y-84769596D01*
X153265006Y-84740049D01*
X153244885Y-84713822D01*
X153203992Y-84673732D01*
X153158391Y-84643159D01*
X153104695Y-84621105D01*
X153039516Y-84606573D01*
X152959464Y-84598567D01*
X152861151Y-84596090D01*
X152844919Y-84596131D01*
X152779359Y-84597490D01*
X152714342Y-84600578D01*
X152656956Y-84604952D01*
X152614286Y-84610168D01*
X152610836Y-84610767D01*
X152568412Y-84620817D01*
X152532428Y-84633512D01*
X152512058Y-84645118D01*
X152493101Y-84675736D01*
X152491781Y-84711390D01*
X152508123Y-84743164D01*
X152511779Y-84746757D01*
X152526893Y-84757432D01*
X152545793Y-84762032D01*
X152575046Y-84761249D01*
X152610557Y-84757181D01*
X152650238Y-84753546D01*
X152705863Y-84750480D01*
X152770802Y-84748255D01*
X152838423Y-84747144D01*
X152856208Y-84747071D01*
X152924080Y-84747344D01*
X152973754Y-84748662D01*
X153009598Y-84751481D01*
X153035984Y-84756258D01*
X153057282Y-84763451D01*
X153070082Y-84769441D01*
X153098208Y-84786075D01*
X153116140Y-84801140D01*
X153118761Y-84805411D01*
X153113232Y-84823045D01*
X153086948Y-84840116D01*
X153041730Y-84855850D01*
X152979400Y-84869470D01*
X152961037Y-84872504D01*
X152865118Y-84887570D01*
X152788567Y-84900162D01*
X152728428Y-84911197D01*
X152681748Y-84921588D01*
X152645571Y-84932252D01*
X152616943Y-84944103D01*
X152592910Y-84958057D01*
X152570516Y-84975027D01*
X152546806Y-84995930D01*
X152538828Y-85003259D01*
X152510855Y-85030609D01*
X152496048Y-85052279D01*
X152490256Y-85077076D01*
X152489319Y-85108325D01*
X152499633Y-85169603D01*
X152530456Y-85221668D01*
X152581613Y-85264350D01*
X152652925Y-85297483D01*
X152703808Y-85312344D01*
X152759108Y-85321942D01*
X152825355Y-85327372D01*
X152898502Y-85328941D01*
X152974505Y-85326957D01*
X152974505Y-85326957D01*
G37*
X152974505Y-85326957D02*
X153049320Y-85321727D01*
X153118902Y-85313558D01*
X153179206Y-85302758D01*
X153226188Y-85289635D01*
X153255802Y-85274495D01*
X153260348Y-85270039D01*
X153276154Y-85235458D01*
X153271361Y-85199957D01*
X153246844Y-85169583D01*
X153245674Y-85168712D01*
X153231254Y-85159354D01*
X153216200Y-85154432D01*
X153195203Y-85153835D01*
X153162951Y-85157447D01*
X153114135Y-85165154D01*
X153110208Y-85165803D01*
X153037469Y-85174739D01*
X152958991Y-85179147D01*
X152880281Y-85179189D01*
X152806847Y-85175029D01*
X152744197Y-85166829D01*
X152697838Y-85154751D01*
X152694792Y-85153537D01*
X152661160Y-85134693D01*
X152649344Y-85115623D01*
X152658594Y-85096869D01*
X152688161Y-85078971D01*
X152737297Y-85062471D01*
X152805251Y-85047912D01*
X152850563Y-85040902D01*
X152944752Y-85027419D01*
X153019664Y-85015094D01*
X153078491Y-85002859D01*
X153124423Y-84989647D01*
X153160653Y-84974391D01*
X153190370Y-84956023D01*
X153216766Y-84933477D01*
X153237978Y-84911337D01*
X153263143Y-84880489D01*
X153275527Y-84853963D01*
X153279400Y-84821282D01*
X153279541Y-84809313D01*
X153276632Y-84769596D01*
X153265006Y-84740049D01*
X153244885Y-84713822D01*
X153203992Y-84673732D01*
X153158391Y-84643159D01*
X153104695Y-84621105D01*
X153039516Y-84606573D01*
X152959464Y-84598567D01*
X152861151Y-84596090D01*
X152844919Y-84596131D01*
X152779359Y-84597490D01*
X152714342Y-84600578D01*
X152656956Y-84604952D01*
X152614286Y-84610168D01*
X152610836Y-84610767D01*
X152568412Y-84620817D01*
X152532428Y-84633512D01*
X152512058Y-84645118D01*
X152493101Y-84675736D01*
X152491781Y-84711390D01*
X152508123Y-84743164D01*
X152511779Y-84746757D01*
X152526893Y-84757432D01*
X152545793Y-84762032D01*
X152575046Y-84761249D01*
X152610557Y-84757181D01*
X152650238Y-84753546D01*
X152705863Y-84750480D01*
X152770802Y-84748255D01*
X152838423Y-84747144D01*
X152856208Y-84747071D01*
X152924080Y-84747344D01*
X152973754Y-84748662D01*
X153009598Y-84751481D01*
X153035984Y-84756258D01*
X153057282Y-84763451D01*
X153070082Y-84769441D01*
X153098208Y-84786075D01*
X153116140Y-84801140D01*
X153118761Y-84805411D01*
X153113232Y-84823045D01*
X153086948Y-84840116D01*
X153041730Y-84855850D01*
X152979400Y-84869470D01*
X152961037Y-84872504D01*
X152865118Y-84887570D01*
X152788567Y-84900162D01*
X152728428Y-84911197D01*
X152681748Y-84921588D01*
X152645571Y-84932252D01*
X152616943Y-84944103D01*
X152592910Y-84958057D01*
X152570516Y-84975027D01*
X152546806Y-84995930D01*
X152538828Y-85003259D01*
X152510855Y-85030609D01*
X152496048Y-85052279D01*
X152490256Y-85077076D01*
X152489319Y-85108325D01*
X152499633Y-85169603D01*
X152530456Y-85221668D01*
X152581613Y-85264350D01*
X152652925Y-85297483D01*
X152703808Y-85312344D01*
X152759108Y-85321942D01*
X152825355Y-85327372D01*
X152898502Y-85328941D01*
X152974505Y-85326957D01*
G36*
X153742386Y-85305663D02*
G01*
X153748966Y-85298090D01*
X153754129Y-85288321D01*
X153758044Y-85273737D01*
X153760884Y-85251723D01*
X153762821Y-85219660D01*
X153764025Y-85174933D01*
X153764669Y-85114923D01*
X153764924Y-85037014D01*
X153764963Y-84961352D01*
X153764894Y-84867506D01*
X153764570Y-84793619D01*
X153763822Y-84737076D01*
X153762476Y-84695259D01*
X153760362Y-84665551D01*
X153757308Y-84645335D01*
X153753142Y-84631994D01*
X153747692Y-84622910D01*
X153742386Y-84617041D01*
X153709382Y-84597361D01*
X153674217Y-84599127D01*
X153642753Y-84620591D01*
X153635524Y-84628971D01*
X153629874Y-84638694D01*
X153625609Y-84652447D01*
X153622535Y-84672919D01*
X153620456Y-84702796D01*
X153619178Y-84744767D01*
X153618507Y-84801519D01*
X153618249Y-84875741D01*
X153618208Y-84959771D01*
X153618208Y-85272823D01*
X153645917Y-85300532D01*
X153680071Y-85323845D01*
X153713202Y-85324685D01*
X153742386Y-85305663D01*
X153742386Y-85305663D01*
G37*
X153742386Y-85305663D02*
X153748966Y-85298090D01*
X153754129Y-85288321D01*
X153758044Y-85273737D01*
X153760884Y-85251723D01*
X153762821Y-85219660D01*
X153764025Y-85174933D01*
X153764669Y-85114923D01*
X153764924Y-85037014D01*
X153764963Y-84961352D01*
X153764894Y-84867506D01*
X153764570Y-84793619D01*
X153763822Y-84737076D01*
X153762476Y-84695259D01*
X153760362Y-84665551D01*
X153757308Y-84645335D01*
X153753142Y-84631994D01*
X153747692Y-84622910D01*
X153742386Y-84617041D01*
X153709382Y-84597361D01*
X153674217Y-84599127D01*
X153642753Y-84620591D01*
X153635524Y-84628971D01*
X153629874Y-84638694D01*
X153625609Y-84652447D01*
X153622535Y-84672919D01*
X153620456Y-84702796D01*
X153619178Y-84744767D01*
X153618507Y-84801519D01*
X153618249Y-84875741D01*
X153618208Y-84959771D01*
X153618208Y-85272823D01*
X153645917Y-85300532D01*
X153680071Y-85323845D01*
X153713202Y-85324685D01*
X153742386Y-85305663D01*
G36*
X154716127Y-85322709D02*
G01*
X154784643Y-85311213D01*
X154837265Y-85293341D01*
X154871500Y-85269809D01*
X154880829Y-85256384D01*
X154890315Y-85225160D01*
X154883931Y-85196913D01*
X154863778Y-85170126D01*
X154832463Y-85157595D01*
X154787025Y-85158612D01*
X154751882Y-85165402D01*
X154673789Y-85178337D01*
X154593982Y-85179566D01*
X154504653Y-85169067D01*
X154479979Y-85164618D01*
X154396917Y-85141200D01*
X154331935Y-85106363D01*
X154285747Y-85060704D01*
X154259063Y-85004814D01*
X154253545Y-84975920D01*
X154257157Y-84917296D01*
X154280479Y-84865429D01*
X154321384Y-84821330D01*
X154377749Y-84786009D01*
X154447448Y-84760479D01*
X154528356Y-84745749D01*
X154618348Y-84742830D01*
X154715298Y-84752733D01*
X154720772Y-84753667D01*
X154759333Y-84760849D01*
X154780714Y-84767787D01*
X154789981Y-84778081D01*
X154792202Y-84795332D01*
X154792252Y-84804467D01*
X154792252Y-84842819D01*
X154723777Y-84842819D01*
X154663308Y-84846961D01*
X154622043Y-84860161D01*
X154598033Y-84883578D01*
X154589331Y-84918372D01*
X154589225Y-84922914D01*
X154594316Y-84952654D01*
X154611775Y-84973889D01*
X154644269Y-84987942D01*
X154694465Y-84996135D01*
X154743085Y-84999147D01*
X154813752Y-85000875D01*
X154865010Y-84998238D01*
X154899969Y-84988508D01*
X154921738Y-84968955D01*
X154933428Y-84936852D01*
X154938148Y-84889470D01*
X154939008Y-84827237D01*
X154937599Y-84757773D01*
X154933360Y-84710522D01*
X154926272Y-84685296D01*
X154924897Y-84683320D01*
X154885980Y-84651800D01*
X154828922Y-84626838D01*
X154757339Y-84608968D01*
X154674850Y-84598722D01*
X154585069Y-84596635D01*
X154491616Y-84603240D01*
X154436652Y-84611352D01*
X154350442Y-84635754D01*
X154270316Y-84675646D01*
X154203231Y-84727421D01*
X154193035Y-84737769D01*
X154159906Y-84781273D01*
X154130014Y-84835190D01*
X154106851Y-84891716D01*
X154093910Y-84943049D01*
X154092350Y-84962764D01*
X154098990Y-85003889D01*
X154116640Y-85055056D01*
X154141911Y-85108914D01*
X154171419Y-85158113D01*
X154197489Y-85190974D01*
X154258443Y-85239856D01*
X154337239Y-85278763D01*
X154431051Y-85306814D01*
X154537058Y-85323129D01*
X154634208Y-85327116D01*
X154716127Y-85322709D01*
X154716127Y-85322709D01*
G37*
X154716127Y-85322709D02*
X154784643Y-85311213D01*
X154837265Y-85293341D01*
X154871500Y-85269809D01*
X154880829Y-85256384D01*
X154890315Y-85225160D01*
X154883931Y-85196913D01*
X154863778Y-85170126D01*
X154832463Y-85157595D01*
X154787025Y-85158612D01*
X154751882Y-85165402D01*
X154673789Y-85178337D01*
X154593982Y-85179566D01*
X154504653Y-85169067D01*
X154479979Y-85164618D01*
X154396917Y-85141200D01*
X154331935Y-85106363D01*
X154285747Y-85060704D01*
X154259063Y-85004814D01*
X154253545Y-84975920D01*
X154257157Y-84917296D01*
X154280479Y-84865429D01*
X154321384Y-84821330D01*
X154377749Y-84786009D01*
X154447448Y-84760479D01*
X154528356Y-84745749D01*
X154618348Y-84742830D01*
X154715298Y-84752733D01*
X154720772Y-84753667D01*
X154759333Y-84760849D01*
X154780714Y-84767787D01*
X154789981Y-84778081D01*
X154792202Y-84795332D01*
X154792252Y-84804467D01*
X154792252Y-84842819D01*
X154723777Y-84842819D01*
X154663308Y-84846961D01*
X154622043Y-84860161D01*
X154598033Y-84883578D01*
X154589331Y-84918372D01*
X154589225Y-84922914D01*
X154594316Y-84952654D01*
X154611775Y-84973889D01*
X154644269Y-84987942D01*
X154694465Y-84996135D01*
X154743085Y-84999147D01*
X154813752Y-85000875D01*
X154865010Y-84998238D01*
X154899969Y-84988508D01*
X154921738Y-84968955D01*
X154933428Y-84936852D01*
X154938148Y-84889470D01*
X154939008Y-84827237D01*
X154937599Y-84757773D01*
X154933360Y-84710522D01*
X154926272Y-84685296D01*
X154924897Y-84683320D01*
X154885980Y-84651800D01*
X154828922Y-84626838D01*
X154757339Y-84608968D01*
X154674850Y-84598722D01*
X154585069Y-84596635D01*
X154491616Y-84603240D01*
X154436652Y-84611352D01*
X154350442Y-84635754D01*
X154270316Y-84675646D01*
X154203231Y-84727421D01*
X154193035Y-84737769D01*
X154159906Y-84781273D01*
X154130014Y-84835190D01*
X154106851Y-84891716D01*
X154093910Y-84943049D01*
X154092350Y-84962764D01*
X154098990Y-85003889D01*
X154116640Y-85055056D01*
X154141911Y-85108914D01*
X154171419Y-85158113D01*
X154197489Y-85190974D01*
X154258443Y-85239856D01*
X154337239Y-85278763D01*
X154431051Y-85306814D01*
X154537058Y-85323129D01*
X154634208Y-85327116D01*
X154716127Y-85322709D01*
G36*
X155366094Y-85323860D02*
G01*
X155389660Y-85310035D01*
X155420473Y-85287427D01*
X155460130Y-85254970D01*
X155510228Y-85211600D01*
X155572365Y-85156250D01*
X155648136Y-85087857D01*
X155734874Y-85009224D01*
X155915497Y-84845430D01*
X155921141Y-85065279D01*
X155923179Y-85140957D01*
X155925145Y-85197314D01*
X155927474Y-85237602D01*
X155930602Y-85265073D01*
X155934963Y-85282979D01*
X155940992Y-85294571D01*
X155949124Y-85303100D01*
X155953436Y-85306685D01*
X155987967Y-85325638D01*
X156020825Y-85322867D01*
X156046890Y-85306675D01*
X156073541Y-85285109D01*
X156076856Y-84970157D01*
X156077773Y-84877529D01*
X156078240Y-84804764D01*
X156078095Y-84749147D01*
X156077176Y-84707966D01*
X156075321Y-84678505D01*
X156072369Y-84658053D01*
X156068158Y-84643895D01*
X156062526Y-84633317D01*
X156056281Y-84624834D01*
X156042769Y-84609101D01*
X156029325Y-84598672D01*
X156014084Y-84594669D01*
X155995182Y-84598214D01*
X155970753Y-84610429D01*
X155938935Y-84632437D01*
X155897860Y-84665359D01*
X155845666Y-84710317D01*
X155780486Y-84768433D01*
X155706652Y-84835209D01*
X155441363Y-85075850D01*
X155435719Y-84856719D01*
X155433677Y-84781180D01*
X155431706Y-84724954D01*
X155429369Y-84684784D01*
X155426227Y-84657412D01*
X155421844Y-84639580D01*
X155415784Y-84628029D01*
X155407608Y-84619501D01*
X155403424Y-84616026D01*
X155366443Y-84596936D01*
X155331500Y-84599815D01*
X155301072Y-84624208D01*
X155294111Y-84634022D01*
X155288685Y-84645482D01*
X155284605Y-84661340D01*
X155281679Y-84684345D01*
X155279716Y-84717246D01*
X155278525Y-84762792D01*
X155277916Y-84823735D01*
X155277697Y-84902822D01*
X155277674Y-84961352D01*
X155277748Y-85052901D01*
X155278095Y-85124621D01*
X155278907Y-85179263D01*
X155280375Y-85219576D01*
X155282689Y-85248310D01*
X155286041Y-85268215D01*
X155290620Y-85282040D01*
X155296619Y-85292536D01*
X155301072Y-85298497D01*
X155312358Y-85312617D01*
X155322907Y-85323279D01*
X155334315Y-85329416D01*
X155348178Y-85329965D01*
X155366094Y-85323860D01*
X155366094Y-85323860D01*
G37*
X155366094Y-85323860D02*
X155389660Y-85310035D01*
X155420473Y-85287427D01*
X155460130Y-85254970D01*
X155510228Y-85211600D01*
X155572365Y-85156250D01*
X155648136Y-85087857D01*
X155734874Y-85009224D01*
X155915497Y-84845430D01*
X155921141Y-85065279D01*
X155923179Y-85140957D01*
X155925145Y-85197314D01*
X155927474Y-85237602D01*
X155930602Y-85265073D01*
X155934963Y-85282979D01*
X155940992Y-85294571D01*
X155949124Y-85303100D01*
X155953436Y-85306685D01*
X155987967Y-85325638D01*
X156020825Y-85322867D01*
X156046890Y-85306675D01*
X156073541Y-85285109D01*
X156076856Y-84970157D01*
X156077773Y-84877529D01*
X156078240Y-84804764D01*
X156078095Y-84749147D01*
X156077176Y-84707966D01*
X156075321Y-84678505D01*
X156072369Y-84658053D01*
X156068158Y-84643895D01*
X156062526Y-84633317D01*
X156056281Y-84624834D01*
X156042769Y-84609101D01*
X156029325Y-84598672D01*
X156014084Y-84594669D01*
X155995182Y-84598214D01*
X155970753Y-84610429D01*
X155938935Y-84632437D01*
X155897860Y-84665359D01*
X155845666Y-84710317D01*
X155780486Y-84768433D01*
X155706652Y-84835209D01*
X155441363Y-85075850D01*
X155435719Y-84856719D01*
X155433677Y-84781180D01*
X155431706Y-84724954D01*
X155429369Y-84684784D01*
X155426227Y-84657412D01*
X155421844Y-84639580D01*
X155415784Y-84628029D01*
X155407608Y-84619501D01*
X155403424Y-84616026D01*
X155366443Y-84596936D01*
X155331500Y-84599815D01*
X155301072Y-84624208D01*
X155294111Y-84634022D01*
X155288685Y-84645482D01*
X155284605Y-84661340D01*
X155281679Y-84684345D01*
X155279716Y-84717246D01*
X155278525Y-84762792D01*
X155277916Y-84823735D01*
X155277697Y-84902822D01*
X155277674Y-84961352D01*
X155277748Y-85052901D01*
X155278095Y-85124621D01*
X155278907Y-85179263D01*
X155280375Y-85219576D01*
X155282689Y-85248310D01*
X155286041Y-85268215D01*
X155290620Y-85282040D01*
X155296619Y-85292536D01*
X155301072Y-85298497D01*
X155312358Y-85312617D01*
X155322907Y-85323279D01*
X155334315Y-85329416D01*
X155348178Y-85329965D01*
X155366094Y-85323860D01*
G36*
X156896551Y-85328048D02*
G01*
X156972909Y-85327134D01*
X157031425Y-85324997D01*
X157074463Y-85321133D01*
X157104391Y-85315041D01*
X157123576Y-85306218D01*
X157134384Y-85294162D01*
X157139181Y-85278369D01*
X157140335Y-85258338D01*
X157140341Y-85255973D01*
X157139339Y-85233316D01*
X157134604Y-85215805D01*
X157123541Y-85202734D01*
X157103556Y-85193395D01*
X157072054Y-85187081D01*
X157026440Y-85183086D01*
X156964121Y-85180702D01*
X156882501Y-85179222D01*
X156857485Y-85178894D01*
X156615408Y-85175841D01*
X156612022Y-85110930D01*
X156608637Y-85046019D01*
X156776784Y-85046019D01*
X156842474Y-85045777D01*
X156889380Y-85044752D01*
X156921291Y-85042497D01*
X156941999Y-85038566D01*
X156955292Y-85032510D01*
X156964963Y-85023884D01*
X156965025Y-85023815D01*
X156982564Y-84990196D01*
X156981930Y-84953860D01*
X156963522Y-84922885D01*
X156959879Y-84919701D01*
X156946949Y-84911496D01*
X156929232Y-84905787D01*
X156902778Y-84902146D01*
X156863640Y-84900141D01*
X156807870Y-84899344D01*
X156772202Y-84899263D01*
X156609763Y-84899263D01*
X156609763Y-84741219D01*
X156856369Y-84741219D01*
X156937788Y-84741077D01*
X156999618Y-84740494D01*
X157044845Y-84739240D01*
X157076456Y-84737081D01*
X157097439Y-84733785D01*
X157110781Y-84729119D01*
X157119469Y-84722851D01*
X157121658Y-84720575D01*
X157137822Y-84689028D01*
X157139005Y-84653140D01*
X157125744Y-84622023D01*
X157115251Y-84612037D01*
X157104337Y-84606539D01*
X157087425Y-84602286D01*
X157061841Y-84599128D01*
X157024909Y-84596916D01*
X156973954Y-84595502D01*
X156906302Y-84594736D01*
X156819277Y-84594470D01*
X156799602Y-84594463D01*
X156711119Y-84594521D01*
X156642435Y-84594841D01*
X156590772Y-84595641D01*
X156553353Y-84597141D01*
X156527398Y-84599559D01*
X156510130Y-84603114D01*
X156498770Y-84608026D01*
X156490540Y-84614513D01*
X156486025Y-84619170D01*
X156479229Y-84627419D01*
X156473920Y-84637639D01*
X156469914Y-84652508D01*
X156467029Y-84674706D01*
X156465082Y-84706915D01*
X156463889Y-84751812D01*
X156463269Y-84812080D01*
X156463037Y-84890397D01*
X156463008Y-84956314D01*
X156463079Y-85048680D01*
X156463416Y-85121191D01*
X156464206Y-85176571D01*
X156465634Y-85217543D01*
X156467887Y-85246830D01*
X156471151Y-85267155D01*
X156475612Y-85281242D01*
X156481456Y-85291813D01*
X156486405Y-85298497D01*
X156509802Y-85328241D01*
X156799982Y-85328241D01*
X156896551Y-85328048D01*
X156896551Y-85328048D01*
G37*
X156896551Y-85328048D02*
X156972909Y-85327134D01*
X157031425Y-85324997D01*
X157074463Y-85321133D01*
X157104391Y-85315041D01*
X157123576Y-85306218D01*
X157134384Y-85294162D01*
X157139181Y-85278369D01*
X157140335Y-85258338D01*
X157140341Y-85255973D01*
X157139339Y-85233316D01*
X157134604Y-85215805D01*
X157123541Y-85202734D01*
X157103556Y-85193395D01*
X157072054Y-85187081D01*
X157026440Y-85183086D01*
X156964121Y-85180702D01*
X156882501Y-85179222D01*
X156857485Y-85178894D01*
X156615408Y-85175841D01*
X156612022Y-85110930D01*
X156608637Y-85046019D01*
X156776784Y-85046019D01*
X156842474Y-85045777D01*
X156889380Y-85044752D01*
X156921291Y-85042497D01*
X156941999Y-85038566D01*
X156955292Y-85032510D01*
X156964963Y-85023884D01*
X156965025Y-85023815D01*
X156982564Y-84990196D01*
X156981930Y-84953860D01*
X156963522Y-84922885D01*
X156959879Y-84919701D01*
X156946949Y-84911496D01*
X156929232Y-84905787D01*
X156902778Y-84902146D01*
X156863640Y-84900141D01*
X156807870Y-84899344D01*
X156772202Y-84899263D01*
X156609763Y-84899263D01*
X156609763Y-84741219D01*
X156856369Y-84741219D01*
X156937788Y-84741077D01*
X156999618Y-84740494D01*
X157044845Y-84739240D01*
X157076456Y-84737081D01*
X157097439Y-84733785D01*
X157110781Y-84729119D01*
X157119469Y-84722851D01*
X157121658Y-84720575D01*
X157137822Y-84689028D01*
X157139005Y-84653140D01*
X157125744Y-84622023D01*
X157115251Y-84612037D01*
X157104337Y-84606539D01*
X157087425Y-84602286D01*
X157061841Y-84599128D01*
X157024909Y-84596916D01*
X156973954Y-84595502D01*
X156906302Y-84594736D01*
X156819277Y-84594470D01*
X156799602Y-84594463D01*
X156711119Y-84594521D01*
X156642435Y-84594841D01*
X156590772Y-84595641D01*
X156553353Y-84597141D01*
X156527398Y-84599559D01*
X156510130Y-84603114D01*
X156498770Y-84608026D01*
X156490540Y-84614513D01*
X156486025Y-84619170D01*
X156479229Y-84627419D01*
X156473920Y-84637639D01*
X156469914Y-84652508D01*
X156467029Y-84674706D01*
X156465082Y-84706915D01*
X156463889Y-84751812D01*
X156463269Y-84812080D01*
X156463037Y-84890397D01*
X156463008Y-84956314D01*
X156463079Y-85048680D01*
X156463416Y-85121191D01*
X156464206Y-85176571D01*
X156465634Y-85217543D01*
X156467887Y-85246830D01*
X156471151Y-85267155D01*
X156475612Y-85281242D01*
X156481456Y-85291813D01*
X156486405Y-85298497D01*
X156509802Y-85328241D01*
X156799982Y-85328241D01*
X156896551Y-85328048D01*
G36*
X157684517Y-85328033D02*
G01*
X157813496Y-85323672D01*
X157923199Y-85310447D01*
X158015434Y-85287567D01*
X158092010Y-85254238D01*
X158154735Y-85209670D01*
X158205420Y-85153072D01*
X158245871Y-85083650D01*
X158246667Y-85081957D01*
X158270809Y-85019825D01*
X158279411Y-84964799D01*
X158272439Y-84909421D01*
X158249862Y-84846235D01*
X158245580Y-84836619D01*
X158216380Y-84780342D01*
X158183564Y-84736857D01*
X158141210Y-84699891D01*
X158083398Y-84663173D01*
X158080039Y-84661256D01*
X158029712Y-84637081D01*
X157972829Y-84619026D01*
X157905735Y-84606469D01*
X157824773Y-84598786D01*
X157726290Y-84595355D01*
X157691494Y-84595057D01*
X157525802Y-84594463D01*
X157502405Y-84624208D01*
X157495465Y-84633989D01*
X157490050Y-84645411D01*
X157485973Y-84661213D01*
X157483045Y-84684133D01*
X157481075Y-84716912D01*
X157480433Y-84741219D01*
X157637052Y-84741219D01*
X157730934Y-84741219D01*
X157785872Y-84742825D01*
X157842268Y-84747053D01*
X157888553Y-84753016D01*
X157891347Y-84753518D01*
X157973556Y-84775572D01*
X158037322Y-84808708D01*
X158084660Y-84854461D01*
X158117590Y-84914369D01*
X158123316Y-84930247D01*
X158128929Y-84954975D01*
X158126499Y-84979406D01*
X158114675Y-85011908D01*
X158107548Y-85027874D01*
X158084208Y-85070302D01*
X158056088Y-85100068D01*
X158025148Y-85120797D01*
X157963174Y-85147771D01*
X157883859Y-85167310D01*
X157791461Y-85178562D01*
X157724541Y-85181038D01*
X157637052Y-85181486D01*
X157637052Y-84741219D01*
X157480433Y-84741219D01*
X157479876Y-84762287D01*
X157479258Y-84822997D01*
X157479033Y-84901782D01*
X157479008Y-84963388D01*
X157479008Y-85272823D01*
X157506717Y-85300532D01*
X157519014Y-85311764D01*
X157532311Y-85319455D01*
X157550880Y-85324268D01*
X157578994Y-85326862D01*
X157620925Y-85327898D01*
X157680945Y-85328038D01*
X157684517Y-85328033D01*
X157684517Y-85328033D01*
G37*
X157684517Y-85328033D02*
X157813496Y-85323672D01*
X157923199Y-85310447D01*
X158015434Y-85287567D01*
X158092010Y-85254238D01*
X158154735Y-85209670D01*
X158205420Y-85153072D01*
X158245871Y-85083650D01*
X158246667Y-85081957D01*
X158270809Y-85019825D01*
X158279411Y-84964799D01*
X158272439Y-84909421D01*
X158249862Y-84846235D01*
X158245580Y-84836619D01*
X158216380Y-84780342D01*
X158183564Y-84736857D01*
X158141210Y-84699891D01*
X158083398Y-84663173D01*
X158080039Y-84661256D01*
X158029712Y-84637081D01*
X157972829Y-84619026D01*
X157905735Y-84606469D01*
X157824773Y-84598786D01*
X157726290Y-84595355D01*
X157691494Y-84595057D01*
X157525802Y-84594463D01*
X157502405Y-84624208D01*
X157495465Y-84633989D01*
X157490050Y-84645411D01*
X157485973Y-84661213D01*
X157483045Y-84684133D01*
X157481075Y-84716912D01*
X157480433Y-84741219D01*
X157637052Y-84741219D01*
X157730934Y-84741219D01*
X157785872Y-84742825D01*
X157842268Y-84747053D01*
X157888553Y-84753016D01*
X157891347Y-84753518D01*
X157973556Y-84775572D01*
X158037322Y-84808708D01*
X158084660Y-84854461D01*
X158117590Y-84914369D01*
X158123316Y-84930247D01*
X158128929Y-84954975D01*
X158126499Y-84979406D01*
X158114675Y-85011908D01*
X158107548Y-85027874D01*
X158084208Y-85070302D01*
X158056088Y-85100068D01*
X158025148Y-85120797D01*
X157963174Y-85147771D01*
X157883859Y-85167310D01*
X157791461Y-85178562D01*
X157724541Y-85181038D01*
X157637052Y-85181486D01*
X157637052Y-84741219D01*
X157480433Y-84741219D01*
X157479876Y-84762287D01*
X157479258Y-84822997D01*
X157479033Y-84901782D01*
X157479008Y-84963388D01*
X157479008Y-85272823D01*
X157506717Y-85300532D01*
X157519014Y-85311764D01*
X157532311Y-85319455D01*
X157550880Y-85324268D01*
X157578994Y-85326862D01*
X157620925Y-85327898D01*
X157680945Y-85328038D01*
X157684517Y-85328033D01*
G36*
X160410873Y-85326274D02*
G01*
X160430463Y-85319273D01*
X160431218Y-85318931D01*
X160457821Y-85298630D01*
X160472478Y-85277747D01*
X160475346Y-85267956D01*
X160475204Y-85254947D01*
X160471169Y-85236413D01*
X160462354Y-85210051D01*
X160447877Y-85173556D01*
X160426853Y-85124621D01*
X160398396Y-85060943D01*
X160361623Y-84980215D01*
X160341383Y-84936092D01*
X160304833Y-84857323D01*
X160270523Y-84784885D01*
X160239760Y-84721428D01*
X160213856Y-84669600D01*
X160194118Y-84632049D01*
X160181858Y-84611424D01*
X160179432Y-84608575D01*
X160148391Y-84596006D01*
X160113329Y-84597689D01*
X160085208Y-84612976D01*
X160084062Y-84614219D01*
X160072876Y-84631154D01*
X160054112Y-84664138D01*
X160030083Y-84708928D01*
X160003105Y-84761276D01*
X159993409Y-84780566D01*
X159920222Y-84927158D01*
X159840448Y-84767915D01*
X159811975Y-84712893D01*
X159785558Y-84665176D01*
X159763356Y-84628415D01*
X159747527Y-84606264D01*
X159742162Y-84601567D01*
X159700465Y-84595206D01*
X159666057Y-84608575D01*
X159655936Y-84622862D01*
X159638422Y-84654616D01*
X159614943Y-84700711D01*
X159586928Y-84758023D01*
X159555807Y-84823428D01*
X159523007Y-84893801D01*
X159489958Y-84966017D01*
X159458089Y-85036953D01*
X159428827Y-85103483D01*
X159403603Y-85162482D01*
X159383844Y-85210827D01*
X159370980Y-85245393D01*
X159366439Y-85263055D01*
X159366485Y-85263695D01*
X159377534Y-85285920D01*
X159399618Y-85308555D01*
X159400918Y-85309540D01*
X159428061Y-85324883D01*
X159453166Y-85324734D01*
X159462576Y-85321842D01*
X159474042Y-85315590D01*
X159486218Y-85303294D01*
X159500565Y-85282400D01*
X159518544Y-85250359D01*
X159541615Y-85204620D01*
X159571238Y-85142631D01*
X159597953Y-85085410D01*
X159628688Y-85019082D01*
X159656229Y-84959434D01*
X159679146Y-84909583D01*
X159696006Y-84872644D01*
X159705381Y-84851735D01*
X159706748Y-84848463D01*
X159712897Y-84853811D01*
X159727030Y-84876199D01*
X159747265Y-84912362D01*
X159771723Y-84959031D01*
X159781456Y-84978286D01*
X159814425Y-85043304D01*
X159839851Y-85090654D01*
X159859820Y-85123089D01*
X159876418Y-85143362D01*
X159891732Y-85154226D01*
X159907848Y-85158433D01*
X159918351Y-85158908D01*
X159936878Y-85157266D01*
X159953112Y-85150477D01*
X159969243Y-85135742D01*
X159987459Y-85110264D01*
X160009947Y-85071247D01*
X160038897Y-85015894D01*
X160054870Y-84984405D01*
X160080778Y-84934221D01*
X160103375Y-84892604D01*
X160120666Y-84863066D01*
X160130658Y-84849119D01*
X160132017Y-84848538D01*
X160138469Y-84859515D01*
X160152916Y-84888018D01*
X160173911Y-84931064D01*
X160200005Y-84985670D01*
X160229754Y-85048854D01*
X160244388Y-85080237D01*
X160282458Y-85161230D01*
X160313113Y-85223552D01*
X160337945Y-85269237D01*
X160358545Y-85300319D01*
X160376506Y-85318830D01*
X160393418Y-85326804D01*
X160410873Y-85326274D01*
X160410873Y-85326274D01*
G37*
X160410873Y-85326274D02*
X160430463Y-85319273D01*
X160431218Y-85318931D01*
X160457821Y-85298630D01*
X160472478Y-85277747D01*
X160475346Y-85267956D01*
X160475204Y-85254947D01*
X160471169Y-85236413D01*
X160462354Y-85210051D01*
X160447877Y-85173556D01*
X160426853Y-85124621D01*
X160398396Y-85060943D01*
X160361623Y-84980215D01*
X160341383Y-84936092D01*
X160304833Y-84857323D01*
X160270523Y-84784885D01*
X160239760Y-84721428D01*
X160213856Y-84669600D01*
X160194118Y-84632049D01*
X160181858Y-84611424D01*
X160179432Y-84608575D01*
X160148391Y-84596006D01*
X160113329Y-84597689D01*
X160085208Y-84612976D01*
X160084062Y-84614219D01*
X160072876Y-84631154D01*
X160054112Y-84664138D01*
X160030083Y-84708928D01*
X160003105Y-84761276D01*
X159993409Y-84780566D01*
X159920222Y-84927158D01*
X159840448Y-84767915D01*
X159811975Y-84712893D01*
X159785558Y-84665176D01*
X159763356Y-84628415D01*
X159747527Y-84606264D01*
X159742162Y-84601567D01*
X159700465Y-84595206D01*
X159666057Y-84608575D01*
X159655936Y-84622862D01*
X159638422Y-84654616D01*
X159614943Y-84700711D01*
X159586928Y-84758023D01*
X159555807Y-84823428D01*
X159523007Y-84893801D01*
X159489958Y-84966017D01*
X159458089Y-85036953D01*
X159428827Y-85103483D01*
X159403603Y-85162482D01*
X159383844Y-85210827D01*
X159370980Y-85245393D01*
X159366439Y-85263055D01*
X159366485Y-85263695D01*
X159377534Y-85285920D01*
X159399618Y-85308555D01*
X159400918Y-85309540D01*
X159428061Y-85324883D01*
X159453166Y-85324734D01*
X159462576Y-85321842D01*
X159474042Y-85315590D01*
X159486218Y-85303294D01*
X159500565Y-85282400D01*
X159518544Y-85250359D01*
X159541615Y-85204620D01*
X159571238Y-85142631D01*
X159597953Y-85085410D01*
X159628688Y-85019082D01*
X159656229Y-84959434D01*
X159679146Y-84909583D01*
X159696006Y-84872644D01*
X159705381Y-84851735D01*
X159706748Y-84848463D01*
X159712897Y-84853811D01*
X159727030Y-84876199D01*
X159747265Y-84912362D01*
X159771723Y-84959031D01*
X159781456Y-84978286D01*
X159814425Y-85043304D01*
X159839851Y-85090654D01*
X159859820Y-85123089D01*
X159876418Y-85143362D01*
X159891732Y-85154226D01*
X159907848Y-85158433D01*
X159918351Y-85158908D01*
X159936878Y-85157266D01*
X159953112Y-85150477D01*
X159969243Y-85135742D01*
X159987459Y-85110264D01*
X160009947Y-85071247D01*
X160038897Y-85015894D01*
X160054870Y-84984405D01*
X160080778Y-84934221D01*
X160103375Y-84892604D01*
X160120666Y-84863066D01*
X160130658Y-84849119D01*
X160132017Y-84848538D01*
X160138469Y-84859515D01*
X160152916Y-84888018D01*
X160173911Y-84931064D01*
X160200005Y-84985670D01*
X160229754Y-85048854D01*
X160244388Y-85080237D01*
X160282458Y-85161230D01*
X160313113Y-85223552D01*
X160337945Y-85269237D01*
X160358545Y-85300319D01*
X160376506Y-85318830D01*
X160393418Y-85326804D01*
X160410873Y-85326274D01*
G36*
X160854822Y-85321431D02*
G01*
X160878535Y-85306661D01*
X160905186Y-85285081D01*
X160905186Y-84963535D01*
X160905101Y-84869478D01*
X160904737Y-84795376D01*
X160903932Y-84738604D01*
X160902521Y-84696540D01*
X160900341Y-84666560D01*
X160897229Y-84646041D01*
X160893022Y-84632359D01*
X160887556Y-84622892D01*
X160883680Y-84618226D01*
X160852242Y-84597733D01*
X160816441Y-84598569D01*
X160785081Y-84616044D01*
X160758430Y-84637624D01*
X160758430Y-85285081D01*
X160785081Y-85306661D01*
X160810802Y-85322359D01*
X160831808Y-85328241D01*
X160854822Y-85321431D01*
X160854822Y-85321431D01*
G37*
X160854822Y-85321431D02*
X160878535Y-85306661D01*
X160905186Y-85285081D01*
X160905186Y-84963535D01*
X160905101Y-84869478D01*
X160904737Y-84795376D01*
X160903932Y-84738604D01*
X160902521Y-84696540D01*
X160900341Y-84666560D01*
X160897229Y-84646041D01*
X160893022Y-84632359D01*
X160887556Y-84622892D01*
X160883680Y-84618226D01*
X160852242Y-84597733D01*
X160816441Y-84598569D01*
X160785081Y-84616044D01*
X160758430Y-84637624D01*
X160758430Y-85285081D01*
X160785081Y-85306661D01*
X160810802Y-85322359D01*
X160831808Y-85328241D01*
X160854822Y-85321431D01*
G36*
X161629273Y-85328145D02*
G01*
X161707980Y-85327766D01*
X161769071Y-85326975D01*
X161815025Y-85325638D01*
X161848322Y-85323625D01*
X161871444Y-85320802D01*
X161886870Y-85317039D01*
X161897079Y-85312203D01*
X161902021Y-85308486D01*
X161927665Y-85275950D01*
X161930767Y-85242170D01*
X161914919Y-85211482D01*
X161904556Y-85199219D01*
X161893404Y-85190858D01*
X161877243Y-85185651D01*
X161851850Y-85182851D01*
X161813006Y-85181712D01*
X161756488Y-85181487D01*
X161745388Y-85181486D01*
X161599452Y-85181486D01*
X161599452Y-84910552D01*
X161599356Y-84825154D01*
X161598919Y-84759444D01*
X161597920Y-84710534D01*
X161596136Y-84675535D01*
X161593345Y-84651559D01*
X161589325Y-84635715D01*
X161583853Y-84625117D01*
X161576874Y-84617041D01*
X161543942Y-84597196D01*
X161509562Y-84598760D01*
X161478384Y-84621402D01*
X161476094Y-84624208D01*
X161468637Y-84634816D01*
X161462955Y-84647227D01*
X161458809Y-84664458D01*
X161455958Y-84689524D01*
X161454162Y-84725441D01*
X161453180Y-84775225D01*
X161452772Y-84841891D01*
X161452697Y-84917719D01*
X161452697Y-85181486D01*
X161313335Y-85181486D01*
X161253530Y-85181890D01*
X161212126Y-85183468D01*
X161184956Y-85186761D01*
X161167854Y-85192316D01*
X161156651Y-85200677D01*
X161155291Y-85202130D01*
X161138933Y-85235369D01*
X161140380Y-85272946D01*
X161159186Y-85305663D01*
X161166458Y-85312010D01*
X161175835Y-85317042D01*
X161189817Y-85320912D01*
X161210904Y-85323771D01*
X161241597Y-85325773D01*
X161284397Y-85327069D01*
X161341803Y-85327810D01*
X161416318Y-85328150D01*
X161510441Y-85328240D01*
X161530468Y-85328241D01*
X161629273Y-85328145D01*
X161629273Y-85328145D01*
G37*
X161629273Y-85328145D02*
X161707980Y-85327766D01*
X161769071Y-85326975D01*
X161815025Y-85325638D01*
X161848322Y-85323625D01*
X161871444Y-85320802D01*
X161886870Y-85317039D01*
X161897079Y-85312203D01*
X161902021Y-85308486D01*
X161927665Y-85275950D01*
X161930767Y-85242170D01*
X161914919Y-85211482D01*
X161904556Y-85199219D01*
X161893404Y-85190858D01*
X161877243Y-85185651D01*
X161851850Y-85182851D01*
X161813006Y-85181712D01*
X161756488Y-85181487D01*
X161745388Y-85181486D01*
X161599452Y-85181486D01*
X161599452Y-84910552D01*
X161599356Y-84825154D01*
X161598919Y-84759444D01*
X161597920Y-84710534D01*
X161596136Y-84675535D01*
X161593345Y-84651559D01*
X161589325Y-84635715D01*
X161583853Y-84625117D01*
X161576874Y-84617041D01*
X161543942Y-84597196D01*
X161509562Y-84598760D01*
X161478384Y-84621402D01*
X161476094Y-84624208D01*
X161468637Y-84634816D01*
X161462955Y-84647227D01*
X161458809Y-84664458D01*
X161455958Y-84689524D01*
X161454162Y-84725441D01*
X161453180Y-84775225D01*
X161452772Y-84841891D01*
X161452697Y-84917719D01*
X161452697Y-85181486D01*
X161313335Y-85181486D01*
X161253530Y-85181890D01*
X161212126Y-85183468D01*
X161184956Y-85186761D01*
X161167854Y-85192316D01*
X161156651Y-85200677D01*
X161155291Y-85202130D01*
X161138933Y-85235369D01*
X161140380Y-85272946D01*
X161159186Y-85305663D01*
X161166458Y-85312010D01*
X161175835Y-85317042D01*
X161189817Y-85320912D01*
X161210904Y-85323771D01*
X161241597Y-85325773D01*
X161284397Y-85327069D01*
X161341803Y-85327810D01*
X161416318Y-85328150D01*
X161510441Y-85328240D01*
X161530468Y-85328241D01*
X161629273Y-85328145D01*
G36*
X162895031Y-85322775D02*
G01*
X162926410Y-85300532D01*
X162954119Y-85272823D01*
X162954119Y-84963388D01*
X162954046Y-84871509D01*
X162953703Y-84799468D01*
X162952900Y-84744528D01*
X162951449Y-84703948D01*
X162949160Y-84674991D01*
X162945844Y-84654917D01*
X162941313Y-84640987D01*
X162935377Y-84630463D01*
X162930722Y-84624208D01*
X162899991Y-84599635D01*
X162864704Y-84596967D01*
X162832453Y-84612037D01*
X162821796Y-84620934D01*
X162814672Y-84632751D01*
X162810375Y-84651782D01*
X162808199Y-84682316D01*
X162807436Y-84728646D01*
X162807363Y-84764437D01*
X162807363Y-84899263D01*
X162310652Y-84899263D01*
X162310652Y-84776608D01*
X162310139Y-84720521D01*
X162308084Y-84681975D01*
X162303716Y-84655947D01*
X162296264Y-84637411D01*
X162287255Y-84624208D01*
X162256352Y-84599704D01*
X162221404Y-84596802D01*
X162187946Y-84614219D01*
X162178812Y-84623349D01*
X162172360Y-84635453D01*
X162168105Y-84654307D01*
X162165560Y-84683688D01*
X162164237Y-84727371D01*
X162163651Y-84789133D01*
X162163583Y-84803308D01*
X162163099Y-84919677D01*
X162162849Y-85015581D01*
X162162931Y-85093131D01*
X162163439Y-85154439D01*
X162164470Y-85201618D01*
X162166121Y-85236778D01*
X162168487Y-85262032D01*
X162171665Y-85279491D01*
X162175752Y-85291267D01*
X162180842Y-85299473D01*
X162186474Y-85305663D01*
X162218336Y-85325464D01*
X162251565Y-85322775D01*
X162282943Y-85300532D01*
X162295641Y-85286182D01*
X162303734Y-85270330D01*
X162308250Y-85247754D01*
X162310214Y-85213230D01*
X162310652Y-85161532D01*
X162310652Y-85046019D01*
X162807363Y-85046019D01*
X162807363Y-85164552D01*
X162807870Y-85219160D01*
X162809906Y-85256033D01*
X162814243Y-85280001D01*
X162821655Y-85295893D01*
X162829941Y-85305663D01*
X162861802Y-85325464D01*
X162895031Y-85322775D01*
X162895031Y-85322775D01*
G37*
X162895031Y-85322775D02*
X162926410Y-85300532D01*
X162954119Y-85272823D01*
X162954119Y-84963388D01*
X162954046Y-84871509D01*
X162953703Y-84799468D01*
X162952900Y-84744528D01*
X162951449Y-84703948D01*
X162949160Y-84674991D01*
X162945844Y-84654917D01*
X162941313Y-84640987D01*
X162935377Y-84630463D01*
X162930722Y-84624208D01*
X162899991Y-84599635D01*
X162864704Y-84596967D01*
X162832453Y-84612037D01*
X162821796Y-84620934D01*
X162814672Y-84632751D01*
X162810375Y-84651782D01*
X162808199Y-84682316D01*
X162807436Y-84728646D01*
X162807363Y-84764437D01*
X162807363Y-84899263D01*
X162310652Y-84899263D01*
X162310652Y-84776608D01*
X162310139Y-84720521D01*
X162308084Y-84681975D01*
X162303716Y-84655947D01*
X162296264Y-84637411D01*
X162287255Y-84624208D01*
X162256352Y-84599704D01*
X162221404Y-84596802D01*
X162187946Y-84614219D01*
X162178812Y-84623349D01*
X162172360Y-84635453D01*
X162168105Y-84654307D01*
X162165560Y-84683688D01*
X162164237Y-84727371D01*
X162163651Y-84789133D01*
X162163583Y-84803308D01*
X162163099Y-84919677D01*
X162162849Y-85015581D01*
X162162931Y-85093131D01*
X162163439Y-85154439D01*
X162164470Y-85201618D01*
X162166121Y-85236778D01*
X162168487Y-85262032D01*
X162171665Y-85279491D01*
X162175752Y-85291267D01*
X162180842Y-85299473D01*
X162186474Y-85305663D01*
X162218336Y-85325464D01*
X162251565Y-85322775D01*
X162282943Y-85300532D01*
X162295641Y-85286182D01*
X162303734Y-85270330D01*
X162308250Y-85247754D01*
X162310214Y-85213230D01*
X162310652Y-85161532D01*
X162310652Y-85046019D01*
X162807363Y-85046019D01*
X162807363Y-85164552D01*
X162807870Y-85219160D01*
X162809906Y-85256033D01*
X162814243Y-85280001D01*
X162821655Y-85295893D01*
X162829941Y-85305663D01*
X162861802Y-85325464D01*
X162895031Y-85322775D01*
G36*
X153928421Y-91927010D02*
G01*
X154031527Y-91891262D01*
X154127522Y-91834993D01*
X154213253Y-91758212D01*
X154285570Y-91660927D01*
X154318055Y-91599608D01*
X154346168Y-91513840D01*
X154359795Y-91414823D01*
X154358286Y-91313029D01*
X154341531Y-91220786D01*
X154295737Y-91108068D01*
X154229332Y-91010293D01*
X154145691Y-90929385D01*
X154048188Y-90867268D01*
X153940200Y-90825866D01*
X153825101Y-90807103D01*
X153706266Y-90812902D01*
X153647689Y-90825294D01*
X153533528Y-90869703D01*
X153432135Y-90937467D01*
X153345955Y-91026499D01*
X153277434Y-91134709D01*
X153271636Y-91146527D01*
X153251596Y-91190872D01*
X153239013Y-91228220D01*
X153232181Y-91267620D01*
X153229395Y-91318119D01*
X153228932Y-91373067D01*
X153229697Y-91439085D01*
X153233148Y-91486811D01*
X153241023Y-91525397D01*
X153255057Y-91563994D01*
X153272380Y-91602074D01*
X153336995Y-91710172D01*
X153416566Y-91797697D01*
X153507940Y-91864659D01*
X153607964Y-91911064D01*
X153713488Y-91936919D01*
X153821358Y-91942232D01*
X153928421Y-91927010D01*
X153928421Y-91927010D01*
G37*
X153928421Y-91927010D02*
X154031527Y-91891262D01*
X154127522Y-91834993D01*
X154213253Y-91758212D01*
X154285570Y-91660927D01*
X154318055Y-91599608D01*
X154346168Y-91513840D01*
X154359795Y-91414823D01*
X154358286Y-91313029D01*
X154341531Y-91220786D01*
X154295737Y-91108068D01*
X154229332Y-91010293D01*
X154145691Y-90929385D01*
X154048188Y-90867268D01*
X153940200Y-90825866D01*
X153825101Y-90807103D01*
X153706266Y-90812902D01*
X153647689Y-90825294D01*
X153533528Y-90869703D01*
X153432135Y-90937467D01*
X153345955Y-91026499D01*
X153277434Y-91134709D01*
X153271636Y-91146527D01*
X153251596Y-91190872D01*
X153239013Y-91228220D01*
X153232181Y-91267620D01*
X153229395Y-91318119D01*
X153228932Y-91373067D01*
X153229697Y-91439085D01*
X153233148Y-91486811D01*
X153241023Y-91525397D01*
X153255057Y-91563994D01*
X153272380Y-91602074D01*
X153336995Y-91710172D01*
X153416566Y-91797697D01*
X153507940Y-91864659D01*
X153607964Y-91911064D01*
X153713488Y-91936919D01*
X153821358Y-91942232D01*
X153928421Y-91927010D01*
G36*
X163496770Y-91006675D02*
G01*
X163613541Y-91006196D01*
X163653229Y-91005955D01*
X164198986Y-91002365D01*
X164205851Y-88908581D01*
X164206758Y-88624658D01*
X164207562Y-88366860D01*
X164208315Y-88133854D01*
X164209069Y-87924306D01*
X164209875Y-87736882D01*
X164210785Y-87570250D01*
X164211851Y-87423075D01*
X164213124Y-87294023D01*
X164214656Y-87181761D01*
X164216498Y-87084956D01*
X164218703Y-87002274D01*
X164221322Y-86932381D01*
X164224406Y-86873943D01*
X164228008Y-86825628D01*
X164232178Y-86786100D01*
X164236969Y-86754027D01*
X164242431Y-86728076D01*
X164248618Y-86706911D01*
X164255580Y-86689201D01*
X164263369Y-86673611D01*
X164272037Y-86658807D01*
X164281635Y-86643456D01*
X164292215Y-86626224D01*
X164294384Y-86622554D01*
X164330768Y-86560469D01*
X163804931Y-86564066D01*
X163279094Y-86567662D01*
X163272229Y-86683169D01*
X163268492Y-86738601D01*
X163264597Y-86770649D01*
X163259311Y-86783365D01*
X163251403Y-86780804D01*
X163244770Y-86773476D01*
X163215874Y-86746786D01*
X163168779Y-86712479D01*
X163110120Y-86674654D01*
X163046531Y-86637410D01*
X162984649Y-86604847D01*
X162937134Y-86583423D01*
X162825816Y-86548217D01*
X162698096Y-86523278D01*
X162563401Y-86509559D01*
X162431163Y-86508014D01*
X162310808Y-86519594D01*
X162308826Y-86519926D01*
X162144141Y-86561250D01*
X161989979Y-86627088D01*
X161847828Y-86716026D01*
X161719175Y-86826648D01*
X161605507Y-86957539D01*
X161508310Y-87107284D01*
X161429072Y-87274467D01*
X161385930Y-87398310D01*
X161357479Y-87501919D01*
X161336380Y-87602248D01*
X161321988Y-87705391D01*
X161313658Y-87817443D01*
X161310745Y-87944499D01*
X161312035Y-88048248D01*
X162325150Y-88048248D01*
X162329944Y-87874278D01*
X162345068Y-87724605D01*
X162370985Y-87597903D01*
X162408163Y-87492842D01*
X162457065Y-87408094D01*
X162518158Y-87342331D01*
X162588677Y-87295841D01*
X162625371Y-87278486D01*
X162657196Y-87268081D01*
X162692677Y-87263321D01*
X162740341Y-87262899D01*
X162791689Y-87264752D01*
X162892669Y-87273659D01*
X162972535Y-87291102D01*
X162997635Y-87299839D01*
X163054948Y-87325643D01*
X163115397Y-87358047D01*
X163141797Y-87374267D01*
X163210446Y-87419295D01*
X163210446Y-88846518D01*
X163134932Y-88891782D01*
X163029621Y-88942928D01*
X162922025Y-88973176D01*
X162816081Y-88982705D01*
X162715724Y-88971693D01*
X162624887Y-88940319D01*
X162547507Y-88888760D01*
X162522539Y-88864012D01*
X162462356Y-88782923D01*
X162413645Y-88684766D01*
X162375999Y-88567857D01*
X162349012Y-88430515D01*
X162332275Y-88271056D01*
X162325383Y-88087800D01*
X162325150Y-88048248D01*
X161312035Y-88048248D01*
X161312573Y-88091433D01*
X161324147Y-88317447D01*
X161347420Y-88521308D01*
X161383004Y-88705987D01*
X161431513Y-88874452D01*
X161493560Y-89029674D01*
X161515701Y-89075692D01*
X161604885Y-89225761D01*
X161712659Y-89359123D01*
X161836490Y-89473623D01*
X161973842Y-89567111D01*
X162122183Y-89637432D01*
X162211104Y-89666440D01*
X162298433Y-89683660D01*
X162403511Y-89693906D01*
X162517529Y-89697182D01*
X162631677Y-89693491D01*
X162737148Y-89682840D01*
X162821834Y-89666130D01*
X162922628Y-89633360D01*
X163020322Y-89591221D01*
X163105796Y-89543981D01*
X163151289Y-89511919D01*
X163182669Y-89488078D01*
X163204642Y-89473561D01*
X163209641Y-89471500D01*
X163211190Y-89484782D01*
X163212635Y-89522837D01*
X163213943Y-89582981D01*
X163215083Y-89662527D01*
X163216021Y-89758789D01*
X163216726Y-89869081D01*
X163217167Y-89990719D01*
X163217311Y-90114615D01*
X163217230Y-90273304D01*
X163216835Y-90407092D01*
X163215895Y-90518540D01*
X163214180Y-90610205D01*
X163211457Y-90684647D01*
X163207497Y-90744425D01*
X163202069Y-90792098D01*
X163194941Y-90830226D01*
X163185884Y-90861366D01*
X163174667Y-90888079D01*
X163161058Y-90912923D01*
X163144828Y-90938457D01*
X163142740Y-90941619D01*
X163121806Y-90974690D01*
X163109167Y-90997431D01*
X163107473Y-91002228D01*
X163120716Y-91003741D01*
X163158502Y-91004972D01*
X163217916Y-91005901D01*
X163296042Y-91006508D01*
X163389965Y-91006773D01*
X163496770Y-91006675D01*
X163496770Y-91006675D01*
G37*
X163496770Y-91006675D02*
X163613541Y-91006196D01*
X163653229Y-91005955D01*
X164198986Y-91002365D01*
X164205851Y-88908581D01*
X164206758Y-88624658D01*
X164207562Y-88366860D01*
X164208315Y-88133854D01*
X164209069Y-87924306D01*
X164209875Y-87736882D01*
X164210785Y-87570250D01*
X164211851Y-87423075D01*
X164213124Y-87294023D01*
X164214656Y-87181761D01*
X164216498Y-87084956D01*
X164218703Y-87002274D01*
X164221322Y-86932381D01*
X164224406Y-86873943D01*
X164228008Y-86825628D01*
X164232178Y-86786100D01*
X164236969Y-86754027D01*
X164242431Y-86728076D01*
X164248618Y-86706911D01*
X164255580Y-86689201D01*
X164263369Y-86673611D01*
X164272037Y-86658807D01*
X164281635Y-86643456D01*
X164292215Y-86626224D01*
X164294384Y-86622554D01*
X164330768Y-86560469D01*
X163804931Y-86564066D01*
X163279094Y-86567662D01*
X163272229Y-86683169D01*
X163268492Y-86738601D01*
X163264597Y-86770649D01*
X163259311Y-86783365D01*
X163251403Y-86780804D01*
X163244770Y-86773476D01*
X163215874Y-86746786D01*
X163168779Y-86712479D01*
X163110120Y-86674654D01*
X163046531Y-86637410D01*
X162984649Y-86604847D01*
X162937134Y-86583423D01*
X162825816Y-86548217D01*
X162698096Y-86523278D01*
X162563401Y-86509559D01*
X162431163Y-86508014D01*
X162310808Y-86519594D01*
X162308826Y-86519926D01*
X162144141Y-86561250D01*
X161989979Y-86627088D01*
X161847828Y-86716026D01*
X161719175Y-86826648D01*
X161605507Y-86957539D01*
X161508310Y-87107284D01*
X161429072Y-87274467D01*
X161385930Y-87398310D01*
X161357479Y-87501919D01*
X161336380Y-87602248D01*
X161321988Y-87705391D01*
X161313658Y-87817443D01*
X161310745Y-87944499D01*
X161312035Y-88048248D01*
X162325150Y-88048248D01*
X162329944Y-87874278D01*
X162345068Y-87724605D01*
X162370985Y-87597903D01*
X162408163Y-87492842D01*
X162457065Y-87408094D01*
X162518158Y-87342331D01*
X162588677Y-87295841D01*
X162625371Y-87278486D01*
X162657196Y-87268081D01*
X162692677Y-87263321D01*
X162740341Y-87262899D01*
X162791689Y-87264752D01*
X162892669Y-87273659D01*
X162972535Y-87291102D01*
X162997635Y-87299839D01*
X163054948Y-87325643D01*
X163115397Y-87358047D01*
X163141797Y-87374267D01*
X163210446Y-87419295D01*
X163210446Y-88846518D01*
X163134932Y-88891782D01*
X163029621Y-88942928D01*
X162922025Y-88973176D01*
X162816081Y-88982705D01*
X162715724Y-88971693D01*
X162624887Y-88940319D01*
X162547507Y-88888760D01*
X162522539Y-88864012D01*
X162462356Y-88782923D01*
X162413645Y-88684766D01*
X162375999Y-88567857D01*
X162349012Y-88430515D01*
X162332275Y-88271056D01*
X162325383Y-88087800D01*
X162325150Y-88048248D01*
X161312035Y-88048248D01*
X161312573Y-88091433D01*
X161324147Y-88317447D01*
X161347420Y-88521308D01*
X161383004Y-88705987D01*
X161431513Y-88874452D01*
X161493560Y-89029674D01*
X161515701Y-89075692D01*
X161604885Y-89225761D01*
X161712659Y-89359123D01*
X161836490Y-89473623D01*
X161973842Y-89567111D01*
X162122183Y-89637432D01*
X162211104Y-89666440D01*
X162298433Y-89683660D01*
X162403511Y-89693906D01*
X162517529Y-89697182D01*
X162631677Y-89693491D01*
X162737148Y-89682840D01*
X162821834Y-89666130D01*
X162922628Y-89633360D01*
X163020322Y-89591221D01*
X163105796Y-89543981D01*
X163151289Y-89511919D01*
X163182669Y-89488078D01*
X163204642Y-89473561D01*
X163209641Y-89471500D01*
X163211190Y-89484782D01*
X163212635Y-89522837D01*
X163213943Y-89582981D01*
X163215083Y-89662527D01*
X163216021Y-89758789D01*
X163216726Y-89869081D01*
X163217167Y-89990719D01*
X163217311Y-90114615D01*
X163217230Y-90273304D01*
X163216835Y-90407092D01*
X163215895Y-90518540D01*
X163214180Y-90610205D01*
X163211457Y-90684647D01*
X163207497Y-90744425D01*
X163202069Y-90792098D01*
X163194941Y-90830226D01*
X163185884Y-90861366D01*
X163174667Y-90888079D01*
X163161058Y-90912923D01*
X163144828Y-90938457D01*
X163142740Y-90941619D01*
X163121806Y-90974690D01*
X163109167Y-90997431D01*
X163107473Y-91002228D01*
X163120716Y-91003741D01*
X163158502Y-91004972D01*
X163217916Y-91005901D01*
X163296042Y-91006508D01*
X163389965Y-91006773D01*
X163496770Y-91006675D01*
G36*
X159822005Y-89699271D02*
G01*
X159890031Y-89694122D01*
X160084663Y-89668227D01*
X160257029Y-89626925D01*
X160407970Y-89569647D01*
X160538325Y-89495826D01*
X160648934Y-89404892D01*
X160740635Y-89296278D01*
X160814270Y-89169415D01*
X160868039Y-89032148D01*
X160881687Y-88988363D01*
X160893573Y-88947359D01*
X160903834Y-88906931D01*
X160912613Y-88864870D01*
X160920048Y-88818969D01*
X160926280Y-88767020D01*
X160931450Y-88706815D01*
X160935696Y-88636148D01*
X160939160Y-88552811D01*
X160941981Y-88454595D01*
X160944300Y-88339295D01*
X160946257Y-88204701D01*
X160947991Y-88048607D01*
X160949643Y-87868805D01*
X160950824Y-87727824D01*
X160958770Y-86759878D01*
X161010256Y-86666730D01*
X161034637Y-86621855D01*
X161052780Y-86586999D01*
X161061435Y-86568446D01*
X161061743Y-86567189D01*
X161048514Y-86565751D01*
X161010826Y-86564426D01*
X160951683Y-86563251D01*
X160874086Y-86562263D01*
X160781036Y-86561501D01*
X160675535Y-86561000D01*
X160560584Y-86560799D01*
X160546878Y-86560797D01*
X160032013Y-86560797D01*
X160032013Y-86677500D01*
X160031135Y-86730240D01*
X160028792Y-86770574D01*
X160025421Y-86792200D01*
X160023931Y-86794202D01*
X160010304Y-86785817D01*
X159982257Y-86763808D01*
X159945803Y-86732899D01*
X159944985Y-86732184D01*
X159878462Y-86682657D01*
X159794448Y-86632925D01*
X159702437Y-86587874D01*
X159611921Y-86552390D01*
X159572067Y-86540264D01*
X159492755Y-86524863D01*
X159395435Y-86515035D01*
X159289016Y-86510920D01*
X159182407Y-86512659D01*
X159084517Y-86520392D01*
X159016013Y-86531519D01*
X158848020Y-86580852D01*
X158696781Y-86651158D01*
X158563282Y-86741567D01*
X158448506Y-86851205D01*
X158353437Y-86979201D01*
X158279060Y-87124682D01*
X158246974Y-87212959D01*
X158226865Y-87298761D01*
X158213538Y-87401764D01*
X158207372Y-87512466D01*
X158207574Y-87528575D01*
X159136148Y-87528575D01*
X159143848Y-87446316D01*
X159169489Y-87377954D01*
X159216878Y-87314530D01*
X159235079Y-87295933D01*
X159299782Y-87245654D01*
X159374566Y-87213444D01*
X159464162Y-87197852D01*
X159558512Y-87196704D01*
X159648001Y-87204284D01*
X159716518Y-87219111D01*
X159746275Y-87230247D01*
X159799908Y-87260596D01*
X159856735Y-87303279D01*
X159908582Y-87351183D01*
X159947278Y-87397199D01*
X159957554Y-87414079D01*
X159965542Y-87437718D01*
X159971221Y-87475332D01*
X159974856Y-87530515D01*
X159976711Y-87606860D01*
X159977094Y-87679519D01*
X159976835Y-87764230D01*
X159975787Y-87825482D01*
X159973545Y-87867273D01*
X159969706Y-87893601D01*
X159963865Y-87908465D01*
X159955618Y-87915861D01*
X159953067Y-87917039D01*
X159930900Y-87920667D01*
X159887180Y-87923634D01*
X159827811Y-87925673D01*
X159758696Y-87926517D01*
X159743689Y-87926518D01*
X159651305Y-87925043D01*
X159579932Y-87920658D01*
X159523219Y-87912762D01*
X159476372Y-87901230D01*
X159360169Y-87857285D01*
X159269043Y-87803257D01*
X159202205Y-87738281D01*
X159158865Y-87661495D01*
X159138234Y-87572033D01*
X159136148Y-87528575D01*
X158207574Y-87528575D01*
X158208744Y-87621367D01*
X158218032Y-87718964D01*
X158225277Y-87758395D01*
X158271539Y-87904799D01*
X158341884Y-88039505D01*
X158434984Y-88161220D01*
X158549512Y-88268653D01*
X158684140Y-88360512D01*
X158837540Y-88435504D01*
X158967959Y-88481042D01*
X159055123Y-88504967D01*
X159138496Y-88523557D01*
X159223476Y-88537416D01*
X159315465Y-88547149D01*
X159419862Y-88553359D01*
X159542068Y-88556649D01*
X159652555Y-88557576D01*
X159980177Y-88558473D01*
X159973901Y-88656953D01*
X159956079Y-88763805D01*
X159918167Y-88855648D01*
X159861780Y-88930190D01*
X159788531Y-88985136D01*
X159724035Y-89011948D01*
X159631623Y-89028846D01*
X159521611Y-89031273D01*
X159399156Y-89020122D01*
X159269414Y-88996290D01*
X159137542Y-88960670D01*
X159008698Y-88914157D01*
X158915066Y-88871617D01*
X158870017Y-88849772D01*
X158835656Y-88834516D01*
X158818181Y-88828563D01*
X158817233Y-88828754D01*
X158811203Y-88842088D01*
X158796145Y-88877432D01*
X158773477Y-88931399D01*
X158744615Y-89000604D01*
X158710977Y-89081660D01*
X158676784Y-89164382D01*
X158540086Y-89495697D01*
X158637320Y-89511667D01*
X158679464Y-89519680D01*
X158742819Y-89533139D01*
X158821957Y-89550821D01*
X158911451Y-89571504D01*
X159005873Y-89593968D01*
X159043473Y-89603097D01*
X159206137Y-89640826D01*
X159348550Y-89669112D01*
X159476027Y-89688528D01*
X159593884Y-89699646D01*
X159707438Y-89703036D01*
X159822005Y-89699271D01*
X159822005Y-89699271D01*
G37*
X159822005Y-89699271D02*
X159890031Y-89694122D01*
X160084663Y-89668227D01*
X160257029Y-89626925D01*
X160407970Y-89569647D01*
X160538325Y-89495826D01*
X160648934Y-89404892D01*
X160740635Y-89296278D01*
X160814270Y-89169415D01*
X160868039Y-89032148D01*
X160881687Y-88988363D01*
X160893573Y-88947359D01*
X160903834Y-88906931D01*
X160912613Y-88864870D01*
X160920048Y-88818969D01*
X160926280Y-88767020D01*
X160931450Y-88706815D01*
X160935696Y-88636148D01*
X160939160Y-88552811D01*
X160941981Y-88454595D01*
X160944300Y-88339295D01*
X160946257Y-88204701D01*
X160947991Y-88048607D01*
X160949643Y-87868805D01*
X160950824Y-87727824D01*
X160958770Y-86759878D01*
X161010256Y-86666730D01*
X161034637Y-86621855D01*
X161052780Y-86586999D01*
X161061435Y-86568446D01*
X161061743Y-86567189D01*
X161048514Y-86565751D01*
X161010826Y-86564426D01*
X160951683Y-86563251D01*
X160874086Y-86562263D01*
X160781036Y-86561501D01*
X160675535Y-86561000D01*
X160560584Y-86560799D01*
X160546878Y-86560797D01*
X160032013Y-86560797D01*
X160032013Y-86677500D01*
X160031135Y-86730240D01*
X160028792Y-86770574D01*
X160025421Y-86792200D01*
X160023931Y-86794202D01*
X160010304Y-86785817D01*
X159982257Y-86763808D01*
X159945803Y-86732899D01*
X159944985Y-86732184D01*
X159878462Y-86682657D01*
X159794448Y-86632925D01*
X159702437Y-86587874D01*
X159611921Y-86552390D01*
X159572067Y-86540264D01*
X159492755Y-86524863D01*
X159395435Y-86515035D01*
X159289016Y-86510920D01*
X159182407Y-86512659D01*
X159084517Y-86520392D01*
X159016013Y-86531519D01*
X158848020Y-86580852D01*
X158696781Y-86651158D01*
X158563282Y-86741567D01*
X158448506Y-86851205D01*
X158353437Y-86979201D01*
X158279060Y-87124682D01*
X158246974Y-87212959D01*
X158226865Y-87298761D01*
X158213538Y-87401764D01*
X158207372Y-87512466D01*
X158207574Y-87528575D01*
X159136148Y-87528575D01*
X159143848Y-87446316D01*
X159169489Y-87377954D01*
X159216878Y-87314530D01*
X159235079Y-87295933D01*
X159299782Y-87245654D01*
X159374566Y-87213444D01*
X159464162Y-87197852D01*
X159558512Y-87196704D01*
X159648001Y-87204284D01*
X159716518Y-87219111D01*
X159746275Y-87230247D01*
X159799908Y-87260596D01*
X159856735Y-87303279D01*
X159908582Y-87351183D01*
X159947278Y-87397199D01*
X159957554Y-87414079D01*
X159965542Y-87437718D01*
X159971221Y-87475332D01*
X159974856Y-87530515D01*
X159976711Y-87606860D01*
X159977094Y-87679519D01*
X159976835Y-87764230D01*
X159975787Y-87825482D01*
X159973545Y-87867273D01*
X159969706Y-87893601D01*
X159963865Y-87908465D01*
X159955618Y-87915861D01*
X159953067Y-87917039D01*
X159930900Y-87920667D01*
X159887180Y-87923634D01*
X159827811Y-87925673D01*
X159758696Y-87926517D01*
X159743689Y-87926518D01*
X159651305Y-87925043D01*
X159579932Y-87920658D01*
X159523219Y-87912762D01*
X159476372Y-87901230D01*
X159360169Y-87857285D01*
X159269043Y-87803257D01*
X159202205Y-87738281D01*
X159158865Y-87661495D01*
X159138234Y-87572033D01*
X159136148Y-87528575D01*
X158207574Y-87528575D01*
X158208744Y-87621367D01*
X158218032Y-87718964D01*
X158225277Y-87758395D01*
X158271539Y-87904799D01*
X158341884Y-88039505D01*
X158434984Y-88161220D01*
X158549512Y-88268653D01*
X158684140Y-88360512D01*
X158837540Y-88435504D01*
X158967959Y-88481042D01*
X159055123Y-88504967D01*
X159138496Y-88523557D01*
X159223476Y-88537416D01*
X159315465Y-88547149D01*
X159419862Y-88553359D01*
X159542068Y-88556649D01*
X159652555Y-88557576D01*
X159980177Y-88558473D01*
X159973901Y-88656953D01*
X159956079Y-88763805D01*
X159918167Y-88855648D01*
X159861780Y-88930190D01*
X159788531Y-88985136D01*
X159724035Y-89011948D01*
X159631623Y-89028846D01*
X159521611Y-89031273D01*
X159399156Y-89020122D01*
X159269414Y-88996290D01*
X159137542Y-88960670D01*
X159008698Y-88914157D01*
X158915066Y-88871617D01*
X158870017Y-88849772D01*
X158835656Y-88834516D01*
X158818181Y-88828563D01*
X158817233Y-88828754D01*
X158811203Y-88842088D01*
X158796145Y-88877432D01*
X158773477Y-88931399D01*
X158744615Y-89000604D01*
X158710977Y-89081660D01*
X158676784Y-89164382D01*
X158540086Y-89495697D01*
X158637320Y-89511667D01*
X158679464Y-89519680D01*
X158742819Y-89533139D01*
X158821957Y-89550821D01*
X158911451Y-89571504D01*
X159005873Y-89593968D01*
X159043473Y-89603097D01*
X159206137Y-89640826D01*
X159348550Y-89669112D01*
X159476027Y-89688528D01*
X159593884Y-89699646D01*
X159707438Y-89703036D01*
X159822005Y-89699271D01*
G36*
X157094462Y-90803001D02*
G01*
X157242514Y-90786793D01*
X157385952Y-90757782D01*
X157530610Y-90714455D01*
X157682324Y-90655299D01*
X157846928Y-90578800D01*
X157876571Y-90563983D01*
X157944598Y-90530469D01*
X158008756Y-90500292D01*
X158062715Y-90476334D01*
X158100140Y-90461476D01*
X158105889Y-90459605D01*
X158160986Y-90443098D01*
X157914351Y-90084299D01*
X157854052Y-89996607D01*
X157798922Y-89916488D01*
X157750836Y-89846664D01*
X157711668Y-89789853D01*
X157683294Y-89748777D01*
X157667587Y-89726154D01*
X157665036Y-89722572D01*
X157654671Y-89730062D01*
X157629160Y-89752582D01*
X157593063Y-89786039D01*
X157573142Y-89804950D01*
X157460273Y-89894722D01*
X157333514Y-89962939D01*
X157224283Y-90000305D01*
X157158714Y-90012040D01*
X157076616Y-90019192D01*
X156987644Y-90021626D01*
X156901456Y-90019212D01*
X156827705Y-90011817D01*
X156798276Y-90006153D01*
X156665633Y-89960518D01*
X156546106Y-89890837D01*
X156439783Y-89797240D01*
X156346753Y-89679851D01*
X156267105Y-89538800D01*
X156200926Y-89374214D01*
X156148306Y-89186220D01*
X156117033Y-89025283D01*
X156108874Y-88954237D01*
X156103315Y-88862454D01*
X156100302Y-88756532D01*
X156099781Y-88643066D01*
X156101700Y-88528651D01*
X156106003Y-88419883D01*
X156112637Y-88323357D01*
X156121549Y-88245669D01*
X156123479Y-88233683D01*
X156165999Y-88040608D01*
X156223933Y-87869727D01*
X156297633Y-87720276D01*
X156387451Y-87591489D01*
X156451207Y-87521861D01*
X156565786Y-87427327D01*
X156691442Y-87357254D01*
X156826057Y-87312023D01*
X156967511Y-87292016D01*
X157113683Y-87297615D01*
X157262455Y-87329200D01*
X157350411Y-87360106D01*
X157472129Y-87421994D01*
X157597580Y-87510771D01*
X157667853Y-87570806D01*
X157707311Y-87605553D01*
X157738312Y-87631046D01*
X157755958Y-87643330D01*
X157758148Y-87643705D01*
X157766024Y-87631153D01*
X157786432Y-87597984D01*
X157817632Y-87547042D01*
X157857886Y-87481169D01*
X157905457Y-87403211D01*
X157958604Y-87316010D01*
X157988187Y-87267433D01*
X158214148Y-86896285D01*
X157932027Y-86756861D01*
X157830022Y-86706781D01*
X157747389Y-86667290D01*
X157679078Y-86636427D01*
X157620037Y-86612232D01*
X157565214Y-86592742D01*
X157509560Y-86575997D01*
X157448023Y-86560035D01*
X157389040Y-86546018D01*
X157336615Y-86535171D01*
X157281788Y-86526974D01*
X157219072Y-86520972D01*
X157142977Y-86516710D01*
X157048016Y-86513733D01*
X156984013Y-86512448D01*
X156892692Y-86511570D01*
X156805127Y-86512013D01*
X156727112Y-86513648D01*
X156664442Y-86516351D01*
X156622913Y-86519995D01*
X156620452Y-86520358D01*
X156404803Y-86567013D01*
X156202293Y-86637771D01*
X156012995Y-86732586D01*
X155836979Y-86851411D01*
X155674316Y-86994200D01*
X155525078Y-87160906D01*
X155416996Y-87309067D01*
X155301934Y-87502998D01*
X155208923Y-87707801D01*
X155137513Y-87925117D01*
X155087256Y-88156588D01*
X155057701Y-88403857D01*
X155048389Y-88654941D01*
X155056048Y-88897830D01*
X155080113Y-89121930D01*
X155121352Y-89331023D01*
X155180527Y-89528887D01*
X155258404Y-89719304D01*
X155267703Y-89739032D01*
X155370148Y-89923441D01*
X155495972Y-90098924D01*
X155641612Y-90261850D01*
X155803501Y-90408586D01*
X155978076Y-90535499D01*
X156140744Y-90628595D01*
X156305073Y-90701509D01*
X156469751Y-90754326D01*
X156641152Y-90788485D01*
X156825653Y-90805422D01*
X156935959Y-90807920D01*
X157094462Y-90803001D01*
X157094462Y-90803001D01*
G37*
X157094462Y-90803001D02*
X157242514Y-90786793D01*
X157385952Y-90757782D01*
X157530610Y-90714455D01*
X157682324Y-90655299D01*
X157846928Y-90578800D01*
X157876571Y-90563983D01*
X157944598Y-90530469D01*
X158008756Y-90500292D01*
X158062715Y-90476334D01*
X158100140Y-90461476D01*
X158105889Y-90459605D01*
X158160986Y-90443098D01*
X157914351Y-90084299D01*
X157854052Y-89996607D01*
X157798922Y-89916488D01*
X157750836Y-89846664D01*
X157711668Y-89789853D01*
X157683294Y-89748777D01*
X157667587Y-89726154D01*
X157665036Y-89722572D01*
X157654671Y-89730062D01*
X157629160Y-89752582D01*
X157593063Y-89786039D01*
X157573142Y-89804950D01*
X157460273Y-89894722D01*
X157333514Y-89962939D01*
X157224283Y-90000305D01*
X157158714Y-90012040D01*
X157076616Y-90019192D01*
X156987644Y-90021626D01*
X156901456Y-90019212D01*
X156827705Y-90011817D01*
X156798276Y-90006153D01*
X156665633Y-89960518D01*
X156546106Y-89890837D01*
X156439783Y-89797240D01*
X156346753Y-89679851D01*
X156267105Y-89538800D01*
X156200926Y-89374214D01*
X156148306Y-89186220D01*
X156117033Y-89025283D01*
X156108874Y-88954237D01*
X156103315Y-88862454D01*
X156100302Y-88756532D01*
X156099781Y-88643066D01*
X156101700Y-88528651D01*
X156106003Y-88419883D01*
X156112637Y-88323357D01*
X156121549Y-88245669D01*
X156123479Y-88233683D01*
X156165999Y-88040608D01*
X156223933Y-87869727D01*
X156297633Y-87720276D01*
X156387451Y-87591489D01*
X156451207Y-87521861D01*
X156565786Y-87427327D01*
X156691442Y-87357254D01*
X156826057Y-87312023D01*
X156967511Y-87292016D01*
X157113683Y-87297615D01*
X157262455Y-87329200D01*
X157350411Y-87360106D01*
X157472129Y-87421994D01*
X157597580Y-87510771D01*
X157667853Y-87570806D01*
X157707311Y-87605553D01*
X157738312Y-87631046D01*
X157755958Y-87643330D01*
X157758148Y-87643705D01*
X157766024Y-87631153D01*
X157786432Y-87597984D01*
X157817632Y-87547042D01*
X157857886Y-87481169D01*
X157905457Y-87403211D01*
X157958604Y-87316010D01*
X157988187Y-87267433D01*
X158214148Y-86896285D01*
X157932027Y-86756861D01*
X157830022Y-86706781D01*
X157747389Y-86667290D01*
X157679078Y-86636427D01*
X157620037Y-86612232D01*
X157565214Y-86592742D01*
X157509560Y-86575997D01*
X157448023Y-86560035D01*
X157389040Y-86546018D01*
X157336615Y-86535171D01*
X157281788Y-86526974D01*
X157219072Y-86520972D01*
X157142977Y-86516710D01*
X157048016Y-86513733D01*
X156984013Y-86512448D01*
X156892692Y-86511570D01*
X156805127Y-86512013D01*
X156727112Y-86513648D01*
X156664442Y-86516351D01*
X156622913Y-86519995D01*
X156620452Y-86520358D01*
X156404803Y-86567013D01*
X156202293Y-86637771D01*
X156012995Y-86732586D01*
X155836979Y-86851411D01*
X155674316Y-86994200D01*
X155525078Y-87160906D01*
X155416996Y-87309067D01*
X155301934Y-87502998D01*
X155208923Y-87707801D01*
X155137513Y-87925117D01*
X155087256Y-88156588D01*
X155057701Y-88403857D01*
X155048389Y-88654941D01*
X155056048Y-88897830D01*
X155080113Y-89121930D01*
X155121352Y-89331023D01*
X155180527Y-89528887D01*
X155258404Y-89719304D01*
X155267703Y-89739032D01*
X155370148Y-89923441D01*
X155495972Y-90098924D01*
X155641612Y-90261850D01*
X155803501Y-90408586D01*
X155978076Y-90535499D01*
X156140744Y-90628595D01*
X156305073Y-90701509D01*
X156469751Y-90754326D01*
X156641152Y-90788485D01*
X156825653Y-90805422D01*
X156935959Y-90807920D01*
X157094462Y-90803001D01*
G36*
X150698757Y-91489811D02*
G01*
X150963280Y-91489775D01*
X151086412Y-91489770D01*
X153057311Y-91489770D01*
X153057311Y-91373590D01*
X153069711Y-91232209D01*
X153107136Y-91101816D01*
X153169923Y-90981638D01*
X153258406Y-90870898D01*
X153288343Y-90840989D01*
X153396034Y-90756152D01*
X153514775Y-90694279D01*
X153641040Y-90655341D01*
X153771303Y-90639310D01*
X153902035Y-90646158D01*
X154029712Y-90675857D01*
X154150805Y-90728380D01*
X154261788Y-90803697D01*
X154311632Y-90849137D01*
X154404517Y-90960548D01*
X154472627Y-91083065D01*
X154515371Y-91215285D01*
X154532153Y-91355808D01*
X154532376Y-91369633D01*
X154533256Y-91489766D01*
X154586057Y-91489768D01*
X154632896Y-91483411D01*
X154675683Y-91467944D01*
X154678511Y-91466346D01*
X154688175Y-91461332D01*
X154697049Y-91457427D01*
X154705165Y-91453493D01*
X154712557Y-91448394D01*
X154719255Y-91440992D01*
X154725292Y-91430149D01*
X154730699Y-91414728D01*
X154735510Y-91393591D01*
X154739755Y-91365601D01*
X154743468Y-91329621D01*
X154746679Y-91284513D01*
X154749422Y-91229140D01*
X154751728Y-91162363D01*
X154753629Y-91083047D01*
X154755158Y-90990053D01*
X154756346Y-90882243D01*
X154757226Y-90758481D01*
X154757830Y-90617629D01*
X154758189Y-90458550D01*
X154758335Y-90280105D01*
X154758302Y-90081158D01*
X154758120Y-89860571D01*
X154757823Y-89617207D01*
X154757441Y-89349928D01*
X154757008Y-89057597D01*
X154756555Y-88739076D01*
X154756502Y-88700270D01*
X154756096Y-88379718D01*
X154755751Y-88085488D01*
X154755431Y-87816444D01*
X154755100Y-87571448D01*
X154754721Y-87349363D01*
X154754257Y-87149053D01*
X154753672Y-86969381D01*
X154752930Y-86809210D01*
X154751994Y-86667402D01*
X154750827Y-86542821D01*
X154749393Y-86434330D01*
X154747656Y-86340793D01*
X154745578Y-86261071D01*
X154743124Y-86194028D01*
X154740256Y-86138527D01*
X154736939Y-86093432D01*
X154733136Y-86057605D01*
X154728810Y-86029909D01*
X154723925Y-86009207D01*
X154718445Y-85994363D01*
X154712332Y-85984240D01*
X154705550Y-85977700D01*
X154698063Y-85973607D01*
X154689834Y-85970824D01*
X154680827Y-85968213D01*
X154671005Y-85964638D01*
X154668606Y-85963550D01*
X154661065Y-85961104D01*
X154648444Y-85958858D01*
X154629641Y-85956802D01*
X154603553Y-85954928D01*
X154569078Y-85953229D01*
X154525115Y-85951697D01*
X154470561Y-85950323D01*
X154404315Y-85949100D01*
X154325274Y-85948019D01*
X154232337Y-85947073D01*
X154124401Y-85946253D01*
X154000364Y-85945553D01*
X153859124Y-85944962D01*
X153699579Y-85944475D01*
X153520628Y-85944081D01*
X153321168Y-85943775D01*
X153100096Y-85943547D01*
X152856312Y-85943390D01*
X152588713Y-85943295D01*
X152296197Y-85943255D01*
X151977661Y-85943262D01*
X151874479Y-85943272D01*
X151548877Y-85943324D01*
X151249619Y-85943409D01*
X150975591Y-85943537D01*
X150725676Y-85943715D01*
X150498760Y-85943952D01*
X150293727Y-85944258D01*
X150109462Y-85944640D01*
X149944850Y-85945108D01*
X149798775Y-85945670D01*
X149670124Y-85946335D01*
X149557779Y-85947112D01*
X149460626Y-85948009D01*
X149377550Y-85949035D01*
X149307436Y-85950199D01*
X149249168Y-85951509D01*
X149201631Y-85952975D01*
X149163710Y-85954604D01*
X149134290Y-85956407D01*
X149112255Y-85958390D01*
X149096490Y-85960564D01*
X149085880Y-85962937D01*
X149080096Y-85965109D01*
X149069816Y-85969444D01*
X149060378Y-85972641D01*
X149051745Y-85975835D01*
X149043881Y-85980162D01*
X149036752Y-85986756D01*
X149030321Y-85996753D01*
X149024553Y-86011288D01*
X149019411Y-86031497D01*
X149014860Y-86058515D01*
X149010865Y-86093477D01*
X149007389Y-86137519D01*
X149004398Y-86191776D01*
X149001854Y-86257383D01*
X148999723Y-86335476D01*
X148997968Y-86427190D01*
X148996555Y-86533660D01*
X148996185Y-86574527D01*
X149362616Y-86574527D01*
X150657766Y-86574527D01*
X150632845Y-86612283D01*
X150608053Y-86651083D01*
X150587060Y-86688031D01*
X150569565Y-86725712D01*
X150555270Y-86766712D01*
X150543877Y-86813617D01*
X150535087Y-86869013D01*
X150528602Y-86935484D01*
X150524123Y-87015617D01*
X150521350Y-87111998D01*
X150519987Y-87227211D01*
X150519733Y-87363843D01*
X150520291Y-87524480D01*
X150520607Y-87584118D01*
X150524175Y-88223459D01*
X150929202Y-87672051D01*
X151043946Y-87515624D01*
X151143357Y-87379412D01*
X151228510Y-87261610D01*
X151300478Y-87160416D01*
X151360334Y-87074023D01*
X151409152Y-87000626D01*
X151448005Y-86938423D01*
X151477966Y-86885607D01*
X151500109Y-86840375D01*
X151515507Y-86800922D01*
X151525234Y-86765442D01*
X151530363Y-86732132D01*
X151531968Y-86699187D01*
X151531121Y-86664803D01*
X151530905Y-86660481D01*
X151526446Y-86574469D01*
X152945808Y-86574527D01*
X152840235Y-86680978D01*
X152811587Y-86710094D01*
X152784410Y-86738424D01*
X152757511Y-86767532D01*
X152729697Y-86798980D01*
X152699775Y-86834331D01*
X152666554Y-86875146D01*
X152628839Y-86922989D01*
X152585440Y-86979421D01*
X152535162Y-87046006D01*
X152476812Y-87124305D01*
X152409200Y-87215881D01*
X152331131Y-87322296D01*
X152241412Y-87445113D01*
X152138852Y-87585895D01*
X152022258Y-87746203D01*
X151926691Y-87877702D01*
X151806751Y-88042904D01*
X151702120Y-88187348D01*
X151611852Y-88312406D01*
X151534997Y-88419448D01*
X151470609Y-88509846D01*
X151417739Y-88584971D01*
X151375440Y-88646196D01*
X151342764Y-88694890D01*
X151318762Y-88732426D01*
X151302487Y-88760175D01*
X151292992Y-88779508D01*
X151289327Y-88791797D01*
X151290429Y-88798258D01*
X151303776Y-88815452D01*
X151332634Y-88851845D01*
X151375260Y-88905276D01*
X151429915Y-88973581D01*
X151494856Y-89054597D01*
X151568342Y-89146160D01*
X151648632Y-89246108D01*
X151733985Y-89352276D01*
X151822660Y-89462503D01*
X151912914Y-89574624D01*
X151962556Y-89636256D01*
X153195127Y-89636256D01*
X153246354Y-89543581D01*
X153297581Y-89450905D01*
X153297581Y-86759878D01*
X153246354Y-86667202D01*
X153195127Y-86574527D01*
X153801104Y-86574527D01*
X153945766Y-86574569D01*
X154065256Y-86574759D01*
X154161858Y-86575192D01*
X154237858Y-86575964D01*
X154295543Y-86577170D01*
X154337199Y-86578906D01*
X154365111Y-86581268D01*
X154381565Y-86584350D01*
X154388848Y-86588249D01*
X154389245Y-86593060D01*
X154385042Y-86598878D01*
X154384999Y-86598926D01*
X154367687Y-86623968D01*
X154344764Y-86664685D01*
X154324519Y-86705332D01*
X154286121Y-86787338D01*
X154278289Y-89636256D01*
X153195127Y-89636256D01*
X151962556Y-89636256D01*
X152003007Y-89686476D01*
X152091198Y-89795896D01*
X152175746Y-89900722D01*
X152254908Y-89998789D01*
X152326944Y-90087934D01*
X152390113Y-90165995D01*
X152442673Y-90230808D01*
X152482883Y-90280210D01*
X152506500Y-90309013D01*
X152598210Y-90416722D01*
X152686440Y-90513920D01*
X152768097Y-90597424D01*
X152840090Y-90664052D01*
X152891181Y-90704901D01*
X152951593Y-90748365D01*
X151562202Y-90748365D01*
X151562592Y-90666834D01*
X151558709Y-90606894D01*
X151544110Y-90551323D01*
X151521512Y-90498645D01*
X151506822Y-90468885D01*
X151491028Y-90439397D01*
X151472686Y-90408224D01*
X151450355Y-90373407D01*
X151422591Y-90332990D01*
X151387951Y-90285014D01*
X151344993Y-90227522D01*
X151292273Y-90158557D01*
X151228349Y-90076161D01*
X151151779Y-89978376D01*
X151061119Y-89863245D01*
X150954926Y-89728810D01*
X150942932Y-89713641D01*
X150524175Y-89184088D01*
X150520122Y-89770578D01*
X150519305Y-89946249D01*
X150519479Y-90094968D01*
X150520651Y-90217225D01*
X150522831Y-90313511D01*
X150526026Y-90384317D01*
X150530244Y-90430131D01*
X150531662Y-90438821D01*
X150553909Y-90530365D01*
X150583057Y-90612892D01*
X150616318Y-90679247D01*
X150636300Y-90707390D01*
X150670778Y-90748365D01*
X150016586Y-90748365D01*
X149860531Y-90748231D01*
X149730033Y-90747797D01*
X149623190Y-90747011D01*
X149538102Y-90745824D01*
X149472865Y-90744183D01*
X149425579Y-90742039D01*
X149394343Y-90739341D01*
X149377254Y-90736038D01*
X149372412Y-90732079D01*
X149372747Y-90731202D01*
X149386615Y-90710269D01*
X149409768Y-90677088D01*
X149421746Y-90660307D01*
X149434131Y-90643560D01*
X149445263Y-90628585D01*
X149455212Y-90613906D01*
X149464049Y-90598051D01*
X149471843Y-90579545D01*
X149478665Y-90556915D01*
X149484584Y-90528687D01*
X149489671Y-90493387D01*
X149493996Y-90449542D01*
X149497629Y-90395678D01*
X149500640Y-90330320D01*
X149503099Y-90251996D01*
X149505077Y-90159232D01*
X149506642Y-90050553D01*
X149507866Y-89924487D01*
X149508819Y-89779558D01*
X149509570Y-89614294D01*
X149510189Y-89427221D01*
X149510748Y-89216865D01*
X149511315Y-88981752D01*
X149511845Y-88765759D01*
X149512345Y-88524965D01*
X149512605Y-88295226D01*
X149512632Y-88078007D01*
X149512433Y-87874778D01*
X149512014Y-87687004D01*
X149511382Y-87516155D01*
X149510544Y-87363697D01*
X149509508Y-87231097D01*
X149508280Y-87119824D01*
X149506867Y-87031344D01*
X149505275Y-86967125D01*
X149503513Y-86928635D01*
X149503179Y-86924567D01*
X149491034Y-86831252D01*
X149472073Y-86756310D01*
X149443198Y-86690906D01*
X149401310Y-86626207D01*
X149396071Y-86619148D01*
X149362616Y-86574527D01*
X148996185Y-86574527D01*
X148995446Y-86656021D01*
X148994607Y-86795410D01*
X148994002Y-86952961D01*
X148993595Y-87129809D01*
X148993350Y-87327090D01*
X148993233Y-87545940D01*
X148993205Y-87787493D01*
X148993233Y-88052885D01*
X148993280Y-88343251D01*
X148993310Y-88659727D01*
X148993311Y-88722554D01*
X148993328Y-89042363D01*
X148993388Y-89335839D01*
X148993498Y-89604110D01*
X148993667Y-89848302D01*
X148993903Y-90069543D01*
X148994216Y-90268960D01*
X148994615Y-90447680D01*
X148995107Y-90606829D01*
X148995703Y-90747534D01*
X148996410Y-90870924D01*
X148997237Y-90978124D01*
X148998193Y-91070262D01*
X148999287Y-91148465D01*
X149000527Y-91213859D01*
X149001922Y-91267572D01*
X149003482Y-91310731D01*
X149005214Y-91344463D01*
X149007128Y-91369895D01*
X149009232Y-91388153D01*
X149011534Y-91400366D01*
X149014045Y-91407659D01*
X149014137Y-91407841D01*
X149019308Y-91418982D01*
X149023615Y-91429069D01*
X149028379Y-91438154D01*
X149034922Y-91446288D01*
X149044565Y-91453524D01*
X149058629Y-91459914D01*
X149078437Y-91465511D01*
X149105309Y-91470367D01*
X149140567Y-91474534D01*
X149185532Y-91478064D01*
X149241526Y-91481009D01*
X149309871Y-91483423D01*
X149391886Y-91485356D01*
X149488895Y-91486862D01*
X149602218Y-91487992D01*
X149733177Y-91488798D01*
X149883093Y-91489334D01*
X150053287Y-91489651D01*
X150245082Y-91489801D01*
X150459798Y-91489837D01*
X150698757Y-91489811D01*
X150698757Y-91489811D01*
G37*
X150698757Y-91489811D02*
X150963280Y-91489775D01*
X151086412Y-91489770D01*
X153057311Y-91489770D01*
X153057311Y-91373590D01*
X153069711Y-91232209D01*
X153107136Y-91101816D01*
X153169923Y-90981638D01*
X153258406Y-90870898D01*
X153288343Y-90840989D01*
X153396034Y-90756152D01*
X153514775Y-90694279D01*
X153641040Y-90655341D01*
X153771303Y-90639310D01*
X153902035Y-90646158D01*
X154029712Y-90675857D01*
X154150805Y-90728380D01*
X154261788Y-90803697D01*
X154311632Y-90849137D01*
X154404517Y-90960548D01*
X154472627Y-91083065D01*
X154515371Y-91215285D01*
X154532153Y-91355808D01*
X154532376Y-91369633D01*
X154533256Y-91489766D01*
X154586057Y-91489768D01*
X154632896Y-91483411D01*
X154675683Y-91467944D01*
X154678511Y-91466346D01*
X154688175Y-91461332D01*
X154697049Y-91457427D01*
X154705165Y-91453493D01*
X154712557Y-91448394D01*
X154719255Y-91440992D01*
X154725292Y-91430149D01*
X154730699Y-91414728D01*
X154735510Y-91393591D01*
X154739755Y-91365601D01*
X154743468Y-91329621D01*
X154746679Y-91284513D01*
X154749422Y-91229140D01*
X154751728Y-91162363D01*
X154753629Y-91083047D01*
X154755158Y-90990053D01*
X154756346Y-90882243D01*
X154757226Y-90758481D01*
X154757830Y-90617629D01*
X154758189Y-90458550D01*
X154758335Y-90280105D01*
X154758302Y-90081158D01*
X154758120Y-89860571D01*
X154757823Y-89617207D01*
X154757441Y-89349928D01*
X154757008Y-89057597D01*
X154756555Y-88739076D01*
X154756502Y-88700270D01*
X154756096Y-88379718D01*
X154755751Y-88085488D01*
X154755431Y-87816444D01*
X154755100Y-87571448D01*
X154754721Y-87349363D01*
X154754257Y-87149053D01*
X154753672Y-86969381D01*
X154752930Y-86809210D01*
X154751994Y-86667402D01*
X154750827Y-86542821D01*
X154749393Y-86434330D01*
X154747656Y-86340793D01*
X154745578Y-86261071D01*
X154743124Y-86194028D01*
X154740256Y-86138527D01*
X154736939Y-86093432D01*
X154733136Y-86057605D01*
X154728810Y-86029909D01*
X154723925Y-86009207D01*
X154718445Y-85994363D01*
X154712332Y-85984240D01*
X154705550Y-85977700D01*
X154698063Y-85973607D01*
X154689834Y-85970824D01*
X154680827Y-85968213D01*
X154671005Y-85964638D01*
X154668606Y-85963550D01*
X154661065Y-85961104D01*
X154648444Y-85958858D01*
X154629641Y-85956802D01*
X154603553Y-85954928D01*
X154569078Y-85953229D01*
X154525115Y-85951697D01*
X154470561Y-85950323D01*
X154404315Y-85949100D01*
X154325274Y-85948019D01*
X154232337Y-85947073D01*
X154124401Y-85946253D01*
X154000364Y-85945553D01*
X153859124Y-85944962D01*
X153699579Y-85944475D01*
X153520628Y-85944081D01*
X153321168Y-85943775D01*
X153100096Y-85943547D01*
X152856312Y-85943390D01*
X152588713Y-85943295D01*
X152296197Y-85943255D01*
X151977661Y-85943262D01*
X151874479Y-85943272D01*
X151548877Y-85943324D01*
X151249619Y-85943409D01*
X150975591Y-85943537D01*
X150725676Y-85943715D01*
X150498760Y-85943952D01*
X150293727Y-85944258D01*
X150109462Y-85944640D01*
X149944850Y-85945108D01*
X149798775Y-85945670D01*
X149670124Y-85946335D01*
X149557779Y-85947112D01*
X149460626Y-85948009D01*
X149377550Y-85949035D01*
X149307436Y-85950199D01*
X149249168Y-85951509D01*
X149201631Y-85952975D01*
X149163710Y-85954604D01*
X149134290Y-85956407D01*
X149112255Y-85958390D01*
X149096490Y-85960564D01*
X149085880Y-85962937D01*
X149080096Y-85965109D01*
X149069816Y-85969444D01*
X149060378Y-85972641D01*
X149051745Y-85975835D01*
X149043881Y-85980162D01*
X149036752Y-85986756D01*
X149030321Y-85996753D01*
X149024553Y-86011288D01*
X149019411Y-86031497D01*
X149014860Y-86058515D01*
X149010865Y-86093477D01*
X149007389Y-86137519D01*
X149004398Y-86191776D01*
X149001854Y-86257383D01*
X148999723Y-86335476D01*
X148997968Y-86427190D01*
X148996555Y-86533660D01*
X148996185Y-86574527D01*
X149362616Y-86574527D01*
X150657766Y-86574527D01*
X150632845Y-86612283D01*
X150608053Y-86651083D01*
X150587060Y-86688031D01*
X150569565Y-86725712D01*
X150555270Y-86766712D01*
X150543877Y-86813617D01*
X150535087Y-86869013D01*
X150528602Y-86935484D01*
X150524123Y-87015617D01*
X150521350Y-87111998D01*
X150519987Y-87227211D01*
X150519733Y-87363843D01*
X150520291Y-87524480D01*
X150520607Y-87584118D01*
X150524175Y-88223459D01*
X150929202Y-87672051D01*
X151043946Y-87515624D01*
X151143357Y-87379412D01*
X151228510Y-87261610D01*
X151300478Y-87160416D01*
X151360334Y-87074023D01*
X151409152Y-87000626D01*
X151448005Y-86938423D01*
X151477966Y-86885607D01*
X151500109Y-86840375D01*
X151515507Y-86800922D01*
X151525234Y-86765442D01*
X151530363Y-86732132D01*
X151531968Y-86699187D01*
X151531121Y-86664803D01*
X151530905Y-86660481D01*
X151526446Y-86574469D01*
X152945808Y-86574527D01*
X152840235Y-86680978D01*
X152811587Y-86710094D01*
X152784410Y-86738424D01*
X152757511Y-86767532D01*
X152729697Y-86798980D01*
X152699775Y-86834331D01*
X152666554Y-86875146D01*
X152628839Y-86922989D01*
X152585440Y-86979421D01*
X152535162Y-87046006D01*
X152476812Y-87124305D01*
X152409200Y-87215881D01*
X152331131Y-87322296D01*
X152241412Y-87445113D01*
X152138852Y-87585895D01*
X152022258Y-87746203D01*
X151926691Y-87877702D01*
X151806751Y-88042904D01*
X151702120Y-88187348D01*
X151611852Y-88312406D01*
X151534997Y-88419448D01*
X151470609Y-88509846D01*
X151417739Y-88584971D01*
X151375440Y-88646196D01*
X151342764Y-88694890D01*
X151318762Y-88732426D01*
X151302487Y-88760175D01*
X151292992Y-88779508D01*
X151289327Y-88791797D01*
X151290429Y-88798258D01*
X151303776Y-88815452D01*
X151332634Y-88851845D01*
X151375260Y-88905276D01*
X151429915Y-88973581D01*
X151494856Y-89054597D01*
X151568342Y-89146160D01*
X151648632Y-89246108D01*
X151733985Y-89352276D01*
X151822660Y-89462503D01*
X151912914Y-89574624D01*
X151962556Y-89636256D01*
X153195127Y-89636256D01*
X153246354Y-89543581D01*
X153297581Y-89450905D01*
X153297581Y-86759878D01*
X153246354Y-86667202D01*
X153195127Y-86574527D01*
X153801104Y-86574527D01*
X153945766Y-86574569D01*
X154065256Y-86574759D01*
X154161858Y-86575192D01*
X154237858Y-86575964D01*
X154295543Y-86577170D01*
X154337199Y-86578906D01*
X154365111Y-86581268D01*
X154381565Y-86584350D01*
X154388848Y-86588249D01*
X154389245Y-86593060D01*
X154385042Y-86598878D01*
X154384999Y-86598926D01*
X154367687Y-86623968D01*
X154344764Y-86664685D01*
X154324519Y-86705332D01*
X154286121Y-86787338D01*
X154278289Y-89636256D01*
X153195127Y-89636256D01*
X151962556Y-89636256D01*
X152003007Y-89686476D01*
X152091198Y-89795896D01*
X152175746Y-89900722D01*
X152254908Y-89998789D01*
X152326944Y-90087934D01*
X152390113Y-90165995D01*
X152442673Y-90230808D01*
X152482883Y-90280210D01*
X152506500Y-90309013D01*
X152598210Y-90416722D01*
X152686440Y-90513920D01*
X152768097Y-90597424D01*
X152840090Y-90664052D01*
X152891181Y-90704901D01*
X152951593Y-90748365D01*
X151562202Y-90748365D01*
X151562592Y-90666834D01*
X151558709Y-90606894D01*
X151544110Y-90551323D01*
X151521512Y-90498645D01*
X151506822Y-90468885D01*
X151491028Y-90439397D01*
X151472686Y-90408224D01*
X151450355Y-90373407D01*
X151422591Y-90332990D01*
X151387951Y-90285014D01*
X151344993Y-90227522D01*
X151292273Y-90158557D01*
X151228349Y-90076161D01*
X151151779Y-89978376D01*
X151061119Y-89863245D01*
X150954926Y-89728810D01*
X150942932Y-89713641D01*
X150524175Y-89184088D01*
X150520122Y-89770578D01*
X150519305Y-89946249D01*
X150519479Y-90094968D01*
X150520651Y-90217225D01*
X150522831Y-90313511D01*
X150526026Y-90384317D01*
X150530244Y-90430131D01*
X150531662Y-90438821D01*
X150553909Y-90530365D01*
X150583057Y-90612892D01*
X150616318Y-90679247D01*
X150636300Y-90707390D01*
X150670778Y-90748365D01*
X150016586Y-90748365D01*
X149860531Y-90748231D01*
X149730033Y-90747797D01*
X149623190Y-90747011D01*
X149538102Y-90745824D01*
X149472865Y-90744183D01*
X149425579Y-90742039D01*
X149394343Y-90739341D01*
X149377254Y-90736038D01*
X149372412Y-90732079D01*
X149372747Y-90731202D01*
X149386615Y-90710269D01*
X149409768Y-90677088D01*
X149421746Y-90660307D01*
X149434131Y-90643560D01*
X149445263Y-90628585D01*
X149455212Y-90613906D01*
X149464049Y-90598051D01*
X149471843Y-90579545D01*
X149478665Y-90556915D01*
X149484584Y-90528687D01*
X149489671Y-90493387D01*
X149493996Y-90449542D01*
X149497629Y-90395678D01*
X149500640Y-90330320D01*
X149503099Y-90251996D01*
X149505077Y-90159232D01*
X149506642Y-90050553D01*
X149507866Y-89924487D01*
X149508819Y-89779558D01*
X149509570Y-89614294D01*
X149510189Y-89427221D01*
X149510748Y-89216865D01*
X149511315Y-88981752D01*
X149511845Y-88765759D01*
X149512345Y-88524965D01*
X149512605Y-88295226D01*
X149512632Y-88078007D01*
X149512433Y-87874778D01*
X149512014Y-87687004D01*
X149511382Y-87516155D01*
X149510544Y-87363697D01*
X149509508Y-87231097D01*
X149508280Y-87119824D01*
X149506867Y-87031344D01*
X149505275Y-86967125D01*
X149503513Y-86928635D01*
X149503179Y-86924567D01*
X149491034Y-86831252D01*
X149472073Y-86756310D01*
X149443198Y-86690906D01*
X149401310Y-86626207D01*
X149396071Y-86619148D01*
X149362616Y-86574527D01*
X148996185Y-86574527D01*
X148995446Y-86656021D01*
X148994607Y-86795410D01*
X148994002Y-86952961D01*
X148993595Y-87129809D01*
X148993350Y-87327090D01*
X148993233Y-87545940D01*
X148993205Y-87787493D01*
X148993233Y-88052885D01*
X148993280Y-88343251D01*
X148993310Y-88659727D01*
X148993311Y-88722554D01*
X148993328Y-89042363D01*
X148993388Y-89335839D01*
X148993498Y-89604110D01*
X148993667Y-89848302D01*
X148993903Y-90069543D01*
X148994216Y-90268960D01*
X148994615Y-90447680D01*
X148995107Y-90606829D01*
X148995703Y-90747534D01*
X148996410Y-90870924D01*
X148997237Y-90978124D01*
X148998193Y-91070262D01*
X148999287Y-91148465D01*
X149000527Y-91213859D01*
X149001922Y-91267572D01*
X149003482Y-91310731D01*
X149005214Y-91344463D01*
X149007128Y-91369895D01*
X149009232Y-91388153D01*
X149011534Y-91400366D01*
X149014045Y-91407659D01*
X149014137Y-91407841D01*
X149019308Y-91418982D01*
X149023615Y-91429069D01*
X149028379Y-91438154D01*
X149034922Y-91446288D01*
X149044565Y-91453524D01*
X149058629Y-91459914D01*
X149078437Y-91465511D01*
X149105309Y-91470367D01*
X149140567Y-91474534D01*
X149185532Y-91478064D01*
X149241526Y-91481009D01*
X149309871Y-91483423D01*
X149391886Y-91485356D01*
X149488895Y-91486862D01*
X149602218Y-91487992D01*
X149733177Y-91488798D01*
X149883093Y-91489334D01*
X150053287Y-91489651D01*
X150245082Y-91489801D01*
X150459798Y-91489837D01*
X150698757Y-91489811D01*
D12*
X180340000Y-112970000D02*
X179010000Y-112970000D01*
X179010000Y-112970000D02*
X179010000Y-114300000D01*
X179010000Y-115570000D02*
X179010000Y-128330000D01*
X181670000Y-128330000D02*
X179010000Y-128330000D01*
X181670000Y-115570000D02*
X181670000Y-128330000D01*
X181670000Y-115570000D02*
X179010000Y-115570000D01*
X134620000Y-112970000D02*
X133290000Y-112970000D01*
X133290000Y-112970000D02*
X133290000Y-114300000D01*
X133290000Y-115570000D02*
X133290000Y-128330000D01*
X135950000Y-128330000D02*
X133290000Y-128330000D01*
X135950000Y-115570000D02*
X135950000Y-128330000D01*
X135950000Y-115570000D02*
X133290000Y-115570000D01*
D13*
X180673333Y-110982380D02*
X180673333Y-111696666D01*
X180720952Y-111839523D01*
X180816190Y-111934761D01*
X180959047Y-111982380D01*
X181054285Y-111982380D01*
X179768571Y-111315714D02*
X179768571Y-111982380D01*
X180006666Y-110934761D02*
X180244761Y-111649047D01*
X179625714Y-111649047D01*
X134953333Y-110982380D02*
X134953333Y-111696666D01*
X135000952Y-111839523D01*
X135096190Y-111934761D01*
X135239047Y-111982380D01*
X135334285Y-111982380D01*
X134572380Y-110982380D02*
X133953333Y-110982380D01*
X134286666Y-111363333D01*
X134143809Y-111363333D01*
X134048571Y-111410952D01*
X134000952Y-111458571D01*
X133953333Y-111553809D01*
X133953333Y-111791904D01*
X134000952Y-111887142D01*
X134048571Y-111934761D01*
X134143809Y-111982380D01*
X134429523Y-111982380D01*
X134524761Y-111934761D01*
X134572380Y-111887142D01*
M02*
