M48
; DRILL file {KiCad (5.1.0)-1} date 2019-06-16 12:43:24
; FORMAT={-:-/ absolute / inch / decimal}
; #@! TF.CreationDate,2019-06-16T12:43:24+02:00
; #@! TF.GenerationSoftware,Kicad,Pcbnew,(5.1.0)-1
; #@! TF.FileFunction,Plated,1,2,PTH
FMAT,2
INCH
T1C0.0157
T2C0.0354
T3C0.0394
T4C0.0598
%
G90
G05
T1
X5.0973Y-4.5103
X5.1Y-4.3
X5.2Y-3.6
X5.2Y-4.3
X5.3Y-5.1
X5.35Y-3.45
X5.475Y-4.975
X5.5Y-5.1
X5.575Y-3.6
X5.575Y-3.7
X5.575Y-4.5
X5.6Y-4.15
X5.6391Y-4.4973
X5.6401Y-4.8434
X5.6752Y-3.4575
X5.7Y-4.0
X5.759Y-4.0879
X5.775Y-4.175
X5.7846Y-4.0065
X5.8175Y-4.0725
X5.8175Y-3.8525
X5.825Y-3.675
X5.825Y-3.775
X5.825Y-4.225
X5.8293Y-4.8565
X5.85Y-3.5
X5.875Y-4.0
X5.9002Y-4.5108
X5.95Y-3.45
X5.9578Y-4.0349
X5.99Y-3.795
X5.9935Y-3.65
X5.9935Y-3.9
X5.9999Y-4.5075
X6.0Y-4.3
X6.0246Y-4.0945
X6.05Y-3.3
X6.0506Y-3.95
X6.0725Y-3.7975
X6.0742Y-3.7525
X6.0986Y-3.4986
X6.099Y-3.6459
X6.1Y-3.45
X6.1388Y-3.894
X6.1835Y-5.2724
X6.2Y-3.3
X6.2009Y-4.4707
X6.221Y-3.5017
X6.2641Y-3.4597
X6.3Y-3.65
X6.3065Y-3.95
X6.375Y-3.55
X6.4208Y-3.4488
X6.5Y-5.2
X6.522Y-3.4581
X6.6Y-3.5285
X6.62Y-5.0
X6.6712Y-3.4939
X6.7Y-3.7
X6.8091Y-3.6614
X6.82Y-5.0
X6.9Y-5.2
X7.0Y-3.5
X7.1Y-4.9
X7.1Y-4.9
X7.1Y-4.9
X7.1Y-4.9
X7.1Y-4.9
X7.15Y-3.65
X7.3Y-4.0746
T2
X6.6677Y-3.9399
X6.6677Y-4.0399
X5.7Y-4.65
X5.7Y-4.95
X5.8Y-4.65
X5.8Y-4.95
X5.9Y-4.65
X5.9Y-4.95
X6.0Y-4.65
X6.0Y-4.95
X6.1Y-4.65
X6.1Y-4.95
X6.2Y-4.65
X6.2Y-4.95
X6.3Y-4.65
X6.3Y-4.95
T3
X5.85Y-4.4
X5.95Y-4.4
X6.05Y-4.4
X6.15Y-4.4
X6.25Y-4.4
X6.35Y-4.4
X6.45Y-4.4
X6.55Y-4.4
X6.6933Y-5.3689
X6.7933Y-5.3689
X7.4Y-4.1
X7.4Y-4.2
X7.4Y-4.3
X7.4Y-4.4
X7.4Y-4.5
X7.4Y-4.6
X7.1Y-4.5
X7.1Y-4.6
X7.1Y-4.7
X7.1Y-4.8
X7.1Y-4.9
X7.1Y-5.0
X7.0Y-5.35
X7.1Y-5.35
X7.2Y-5.35
X7.3Y-5.35
X4.9964Y-3.6536
X5.0672Y-3.5828
X5.1379Y-3.5121
X5.2086Y-3.4414
X5.2793Y-3.3707
X5.35Y-3.3
X5.9Y-3.2
X6.0Y-3.2
X6.1Y-3.2
X6.2Y-3.2
X6.3Y-3.2
X6.4Y-3.2
X5.3827Y-5.2756
X5.4827Y-5.2756
X5.5827Y-5.2756
X5.6827Y-5.2756
X5.3Y-4.5
X5.3Y-4.6
X5.3Y-4.7
X5.3Y-4.8
X5.3Y-4.9
X5.3Y-5.0
X5.3827Y-5.4587
X5.4827Y-5.4587
X5.5827Y-5.4587
X5.6827Y-5.4587
X6.9464Y-3.2879
X7.0172Y-3.3586
X7.0879Y-3.4293
X7.1586Y-3.5
X7.2293Y-3.5707
X7.3Y-3.6414
X4.95Y-4.1
X4.95Y-4.2
X4.95Y-4.3
X4.95Y-4.4
X4.95Y-4.5
X4.95Y-4.6
T4
X5.95Y-5.4
X6.15Y-5.4
T0
M30
