G04 #@! TF.GenerationSoftware,KiCad,Pcbnew,(5.1.0)-1*
G04 #@! TF.CreationDate,2019-06-16T12:43:21+02:00*
G04 #@! TF.ProjectId,Micromouse,4d696372-6f6d-46f7-9573-652e6b696361,rev?*
G04 #@! TF.SameCoordinates,Original*
G04 #@! TF.FileFunction,Soldermask,Top*
G04 #@! TF.FilePolarity,Negative*
%FSLAX46Y46*%
G04 Gerber Fmt 4.6, Leading zero omitted, Abs format (unit mm)*
G04 Created by KiCad (PCBNEW (5.1.0)-1) date 2019-06-16 12:43:21*
%MOMM*%
%LPD*%
G04 APERTURE LIST*
%ADD10C,0.100000*%
G04 APERTURE END LIST*
D10*
G36*
X137621000Y-139551000D02*
G01*
X135819000Y-139551000D01*
X135819000Y-137749000D01*
X137621000Y-137749000D01*
X137621000Y-139551000D01*
X137621000Y-139551000D01*
G37*
G36*
X141910443Y-137755519D02*
G01*
X141976627Y-137762037D01*
X142146466Y-137813557D01*
X142302991Y-137897222D01*
X142338729Y-137926552D01*
X142440186Y-138009814D01*
X142523448Y-138111271D01*
X142552778Y-138147009D01*
X142636443Y-138303534D01*
X142687963Y-138473373D01*
X142705359Y-138650000D01*
X142687963Y-138826627D01*
X142636443Y-138996466D01*
X142552778Y-139152991D01*
X142523448Y-139188729D01*
X142440186Y-139290186D01*
X142338729Y-139373448D01*
X142302991Y-139402778D01*
X142146466Y-139486443D01*
X141976627Y-139537963D01*
X141910442Y-139544482D01*
X141844260Y-139551000D01*
X141755740Y-139551000D01*
X141689558Y-139544482D01*
X141623373Y-139537963D01*
X141453534Y-139486443D01*
X141297009Y-139402778D01*
X141261271Y-139373448D01*
X141159814Y-139290186D01*
X141076552Y-139188729D01*
X141047222Y-139152991D01*
X140963557Y-138996466D01*
X140912037Y-138826627D01*
X140894641Y-138650000D01*
X140912037Y-138473373D01*
X140963557Y-138303534D01*
X141047222Y-138147009D01*
X141076552Y-138111271D01*
X141159814Y-138009814D01*
X141261271Y-137926552D01*
X141297009Y-137897222D01*
X141453534Y-137813557D01*
X141623373Y-137762037D01*
X141689557Y-137755519D01*
X141755740Y-137749000D01*
X141844260Y-137749000D01*
X141910443Y-137755519D01*
X141910443Y-137755519D01*
G37*
G36*
X144450443Y-137755519D02*
G01*
X144516627Y-137762037D01*
X144686466Y-137813557D01*
X144842991Y-137897222D01*
X144878729Y-137926552D01*
X144980186Y-138009814D01*
X145063448Y-138111271D01*
X145092778Y-138147009D01*
X145176443Y-138303534D01*
X145227963Y-138473373D01*
X145245359Y-138650000D01*
X145227963Y-138826627D01*
X145176443Y-138996466D01*
X145092778Y-139152991D01*
X145063448Y-139188729D01*
X144980186Y-139290186D01*
X144878729Y-139373448D01*
X144842991Y-139402778D01*
X144686466Y-139486443D01*
X144516627Y-139537963D01*
X144450442Y-139544482D01*
X144384260Y-139551000D01*
X144295740Y-139551000D01*
X144229558Y-139544482D01*
X144163373Y-139537963D01*
X143993534Y-139486443D01*
X143837009Y-139402778D01*
X143801271Y-139373448D01*
X143699814Y-139290186D01*
X143616552Y-139188729D01*
X143587222Y-139152991D01*
X143503557Y-138996466D01*
X143452037Y-138826627D01*
X143434641Y-138650000D01*
X143452037Y-138473373D01*
X143503557Y-138303534D01*
X143587222Y-138147009D01*
X143616552Y-138111271D01*
X143699814Y-138009814D01*
X143801271Y-137926552D01*
X143837009Y-137897222D01*
X143993534Y-137813557D01*
X144163373Y-137762037D01*
X144229557Y-137755519D01*
X144295740Y-137749000D01*
X144384260Y-137749000D01*
X144450443Y-137755519D01*
X144450443Y-137755519D01*
G37*
G36*
X139370443Y-137755519D02*
G01*
X139436627Y-137762037D01*
X139606466Y-137813557D01*
X139762991Y-137897222D01*
X139798729Y-137926552D01*
X139900186Y-138009814D01*
X139983448Y-138111271D01*
X140012778Y-138147009D01*
X140096443Y-138303534D01*
X140147963Y-138473373D01*
X140165359Y-138650000D01*
X140147963Y-138826627D01*
X140096443Y-138996466D01*
X140012778Y-139152991D01*
X139983448Y-139188729D01*
X139900186Y-139290186D01*
X139798729Y-139373448D01*
X139762991Y-139402778D01*
X139606466Y-139486443D01*
X139436627Y-139537963D01*
X139370442Y-139544482D01*
X139304260Y-139551000D01*
X139215740Y-139551000D01*
X139149558Y-139544482D01*
X139083373Y-139537963D01*
X138913534Y-139486443D01*
X138757009Y-139402778D01*
X138721271Y-139373448D01*
X138619814Y-139290186D01*
X138536552Y-139188729D01*
X138507222Y-139152991D01*
X138423557Y-138996466D01*
X138372037Y-138826627D01*
X138354641Y-138650000D01*
X138372037Y-138473373D01*
X138423557Y-138303534D01*
X138507222Y-138147009D01*
X138536552Y-138111271D01*
X138619814Y-138009814D01*
X138721271Y-137926552D01*
X138757009Y-137897222D01*
X138913534Y-137813557D01*
X139083373Y-137762037D01*
X139149557Y-137755519D01*
X139215740Y-137749000D01*
X139304260Y-137749000D01*
X139370443Y-137755519D01*
X139370443Y-137755519D01*
G37*
G36*
X152681000Y-138711000D02*
G01*
X149579000Y-138711000D01*
X149579000Y-135609000D01*
X152681000Y-135609000D01*
X152681000Y-138711000D01*
X152681000Y-138711000D01*
G37*
G36*
X156512585Y-135638802D02*
G01*
X156662410Y-135668604D01*
X156944674Y-135785521D01*
X157198705Y-135955259D01*
X157414741Y-136171295D01*
X157584479Y-136425326D01*
X157701396Y-136707590D01*
X157761000Y-137007240D01*
X157761000Y-137312760D01*
X157701396Y-137612410D01*
X157584479Y-137894674D01*
X157414741Y-138148705D01*
X157198705Y-138364741D01*
X156944674Y-138534479D01*
X156662410Y-138651396D01*
X156512585Y-138681198D01*
X156362761Y-138711000D01*
X156057239Y-138711000D01*
X155907415Y-138681198D01*
X155757590Y-138651396D01*
X155475326Y-138534479D01*
X155221295Y-138364741D01*
X155005259Y-138148705D01*
X154835521Y-137894674D01*
X154718604Y-137612410D01*
X154659000Y-137312760D01*
X154659000Y-137007240D01*
X154718604Y-136707590D01*
X154835521Y-136425326D01*
X155005259Y-136171295D01*
X155221295Y-135955259D01*
X155475326Y-135785521D01*
X155757590Y-135668604D01*
X155907415Y-135638802D01*
X156057239Y-135609000D01*
X156362761Y-135609000D01*
X156512585Y-135638802D01*
X156512585Y-135638802D01*
G37*
G36*
X170120442Y-135475518D02*
G01*
X170186627Y-135482037D01*
X170356466Y-135533557D01*
X170512991Y-135617222D01*
X170548729Y-135646552D01*
X170650186Y-135729814D01*
X170733448Y-135831271D01*
X170762778Y-135867009D01*
X170846443Y-136023534D01*
X170897963Y-136193373D01*
X170915359Y-136370000D01*
X170897963Y-136546627D01*
X170846443Y-136716466D01*
X170762778Y-136872991D01*
X170733448Y-136908729D01*
X170650186Y-137010186D01*
X170548729Y-137093448D01*
X170512991Y-137122778D01*
X170356466Y-137206443D01*
X170186627Y-137257963D01*
X170120442Y-137264482D01*
X170054260Y-137271000D01*
X169965740Y-137271000D01*
X169899558Y-137264482D01*
X169833373Y-137257963D01*
X169663534Y-137206443D01*
X169507009Y-137122778D01*
X169471271Y-137093448D01*
X169369814Y-137010186D01*
X169286552Y-136908729D01*
X169257222Y-136872991D01*
X169173557Y-136716466D01*
X169122037Y-136546627D01*
X169104641Y-136370000D01*
X169122037Y-136193373D01*
X169173557Y-136023534D01*
X169257222Y-135867009D01*
X169286552Y-135831271D01*
X169369814Y-135729814D01*
X169471271Y-135646552D01*
X169507009Y-135617222D01*
X169663534Y-135533557D01*
X169833373Y-135482037D01*
X169899558Y-135475518D01*
X169965740Y-135469000D01*
X170054260Y-135469000D01*
X170120442Y-135475518D01*
X170120442Y-135475518D01*
G37*
G36*
X173451000Y-137271000D02*
G01*
X171649000Y-137271000D01*
X171649000Y-135469000D01*
X173451000Y-135469000D01*
X173451000Y-137271000D01*
X173451000Y-137271000D01*
G37*
G36*
X182990442Y-134995518D02*
G01*
X183056627Y-135002037D01*
X183226466Y-135053557D01*
X183382991Y-135137222D01*
X183418729Y-135166552D01*
X183520186Y-135249814D01*
X183603448Y-135351271D01*
X183632778Y-135387009D01*
X183716443Y-135543534D01*
X183767963Y-135713373D01*
X183785359Y-135890000D01*
X183767963Y-136066627D01*
X183716443Y-136236466D01*
X183632778Y-136392991D01*
X183603448Y-136428729D01*
X183520186Y-136530186D01*
X183418729Y-136613448D01*
X183382991Y-136642778D01*
X183226466Y-136726443D01*
X183056627Y-136777963D01*
X182990442Y-136784482D01*
X182924260Y-136791000D01*
X182835740Y-136791000D01*
X182769558Y-136784482D01*
X182703373Y-136777963D01*
X182533534Y-136726443D01*
X182377009Y-136642778D01*
X182341271Y-136613448D01*
X182239814Y-136530186D01*
X182156552Y-136428729D01*
X182127222Y-136392991D01*
X182043557Y-136236466D01*
X181992037Y-136066627D01*
X181974641Y-135890000D01*
X181992037Y-135713373D01*
X182043557Y-135543534D01*
X182127222Y-135387009D01*
X182156552Y-135351271D01*
X182239814Y-135249814D01*
X182341271Y-135166552D01*
X182377009Y-135137222D01*
X182533534Y-135053557D01*
X182703373Y-135002037D01*
X182769558Y-134995518D01*
X182835740Y-134989000D01*
X182924260Y-134989000D01*
X182990442Y-134995518D01*
X182990442Y-134995518D01*
G37*
G36*
X186321000Y-136791000D02*
G01*
X184519000Y-136791000D01*
X184519000Y-134989000D01*
X186321000Y-134989000D01*
X186321000Y-136791000D01*
X186321000Y-136791000D01*
G37*
G36*
X177910442Y-134995518D02*
G01*
X177976627Y-135002037D01*
X178146466Y-135053557D01*
X178302991Y-135137222D01*
X178338729Y-135166552D01*
X178440186Y-135249814D01*
X178523448Y-135351271D01*
X178552778Y-135387009D01*
X178636443Y-135543534D01*
X178687963Y-135713373D01*
X178705359Y-135890000D01*
X178687963Y-136066627D01*
X178636443Y-136236466D01*
X178552778Y-136392991D01*
X178523448Y-136428729D01*
X178440186Y-136530186D01*
X178338729Y-136613448D01*
X178302991Y-136642778D01*
X178146466Y-136726443D01*
X177976627Y-136777963D01*
X177910442Y-136784482D01*
X177844260Y-136791000D01*
X177755740Y-136791000D01*
X177689558Y-136784482D01*
X177623373Y-136777963D01*
X177453534Y-136726443D01*
X177297009Y-136642778D01*
X177261271Y-136613448D01*
X177159814Y-136530186D01*
X177076552Y-136428729D01*
X177047222Y-136392991D01*
X176963557Y-136236466D01*
X176912037Y-136066627D01*
X176894641Y-135890000D01*
X176912037Y-135713373D01*
X176963557Y-135543534D01*
X177047222Y-135387009D01*
X177076552Y-135351271D01*
X177159814Y-135249814D01*
X177261271Y-135166552D01*
X177297009Y-135137222D01*
X177453534Y-135053557D01*
X177623373Y-135002037D01*
X177689558Y-134995518D01*
X177755740Y-134989000D01*
X177844260Y-134989000D01*
X177910442Y-134995518D01*
X177910442Y-134995518D01*
G37*
G36*
X180450442Y-134995518D02*
G01*
X180516627Y-135002037D01*
X180686466Y-135053557D01*
X180842991Y-135137222D01*
X180878729Y-135166552D01*
X180980186Y-135249814D01*
X181063448Y-135351271D01*
X181092778Y-135387009D01*
X181176443Y-135543534D01*
X181227963Y-135713373D01*
X181245359Y-135890000D01*
X181227963Y-136066627D01*
X181176443Y-136236466D01*
X181092778Y-136392991D01*
X181063448Y-136428729D01*
X180980186Y-136530186D01*
X180878729Y-136613448D01*
X180842991Y-136642778D01*
X180686466Y-136726443D01*
X180516627Y-136777963D01*
X180450442Y-136784482D01*
X180384260Y-136791000D01*
X180295740Y-136791000D01*
X180229558Y-136784482D01*
X180163373Y-136777963D01*
X179993534Y-136726443D01*
X179837009Y-136642778D01*
X179801271Y-136613448D01*
X179699814Y-136530186D01*
X179616552Y-136428729D01*
X179587222Y-136392991D01*
X179503557Y-136236466D01*
X179452037Y-136066627D01*
X179434641Y-135890000D01*
X179452037Y-135713373D01*
X179503557Y-135543534D01*
X179587222Y-135387009D01*
X179616552Y-135351271D01*
X179699814Y-135249814D01*
X179801271Y-135166552D01*
X179837009Y-135137222D01*
X179993534Y-135053557D01*
X180163373Y-135002037D01*
X180229558Y-134995518D01*
X180295740Y-134989000D01*
X180384260Y-134989000D01*
X180450442Y-134995518D01*
X180450442Y-134995518D01*
G37*
G36*
X139370443Y-133105519D02*
G01*
X139436627Y-133112037D01*
X139606466Y-133163557D01*
X139762991Y-133247222D01*
X139798729Y-133276552D01*
X139900186Y-133359814D01*
X139983448Y-133461271D01*
X140012778Y-133497009D01*
X140096443Y-133653534D01*
X140147963Y-133823373D01*
X140165359Y-134000000D01*
X140147963Y-134176627D01*
X140096443Y-134346466D01*
X140012778Y-134502991D01*
X139983448Y-134538729D01*
X139900186Y-134640186D01*
X139798729Y-134723448D01*
X139762991Y-134752778D01*
X139606466Y-134836443D01*
X139436627Y-134887963D01*
X139370442Y-134894482D01*
X139304260Y-134901000D01*
X139215740Y-134901000D01*
X139149558Y-134894482D01*
X139083373Y-134887963D01*
X138913534Y-134836443D01*
X138757009Y-134752778D01*
X138721271Y-134723448D01*
X138619814Y-134640186D01*
X138536552Y-134538729D01*
X138507222Y-134502991D01*
X138423557Y-134346466D01*
X138372037Y-134176627D01*
X138354641Y-134000000D01*
X138372037Y-133823373D01*
X138423557Y-133653534D01*
X138507222Y-133497009D01*
X138536552Y-133461271D01*
X138619814Y-133359814D01*
X138721271Y-133276552D01*
X138757009Y-133247222D01*
X138913534Y-133163557D01*
X139083373Y-133112037D01*
X139149557Y-133105519D01*
X139215740Y-133099000D01*
X139304260Y-133099000D01*
X139370443Y-133105519D01*
X139370443Y-133105519D01*
G37*
G36*
X144450443Y-133105519D02*
G01*
X144516627Y-133112037D01*
X144686466Y-133163557D01*
X144842991Y-133247222D01*
X144878729Y-133276552D01*
X144980186Y-133359814D01*
X145063448Y-133461271D01*
X145092778Y-133497009D01*
X145176443Y-133653534D01*
X145227963Y-133823373D01*
X145245359Y-134000000D01*
X145227963Y-134176627D01*
X145176443Y-134346466D01*
X145092778Y-134502991D01*
X145063448Y-134538729D01*
X144980186Y-134640186D01*
X144878729Y-134723448D01*
X144842991Y-134752778D01*
X144686466Y-134836443D01*
X144516627Y-134887963D01*
X144450442Y-134894482D01*
X144384260Y-134901000D01*
X144295740Y-134901000D01*
X144229558Y-134894482D01*
X144163373Y-134887963D01*
X143993534Y-134836443D01*
X143837009Y-134752778D01*
X143801271Y-134723448D01*
X143699814Y-134640186D01*
X143616552Y-134538729D01*
X143587222Y-134502991D01*
X143503557Y-134346466D01*
X143452037Y-134176627D01*
X143434641Y-134000000D01*
X143452037Y-133823373D01*
X143503557Y-133653534D01*
X143587222Y-133497009D01*
X143616552Y-133461271D01*
X143699814Y-133359814D01*
X143801271Y-133276552D01*
X143837009Y-133247222D01*
X143993534Y-133163557D01*
X144163373Y-133112037D01*
X144229557Y-133105519D01*
X144295740Y-133099000D01*
X144384260Y-133099000D01*
X144450443Y-133105519D01*
X144450443Y-133105519D01*
G37*
G36*
X141910443Y-133105519D02*
G01*
X141976627Y-133112037D01*
X142146466Y-133163557D01*
X142302991Y-133247222D01*
X142338729Y-133276552D01*
X142440186Y-133359814D01*
X142523448Y-133461271D01*
X142552778Y-133497009D01*
X142636443Y-133653534D01*
X142687963Y-133823373D01*
X142705359Y-134000000D01*
X142687963Y-134176627D01*
X142636443Y-134346466D01*
X142552778Y-134502991D01*
X142523448Y-134538729D01*
X142440186Y-134640186D01*
X142338729Y-134723448D01*
X142302991Y-134752778D01*
X142146466Y-134836443D01*
X141976627Y-134887963D01*
X141910442Y-134894482D01*
X141844260Y-134901000D01*
X141755740Y-134901000D01*
X141689558Y-134894482D01*
X141623373Y-134887963D01*
X141453534Y-134836443D01*
X141297009Y-134752778D01*
X141261271Y-134723448D01*
X141159814Y-134640186D01*
X141076552Y-134538729D01*
X141047222Y-134502991D01*
X140963557Y-134346466D01*
X140912037Y-134176627D01*
X140894641Y-134000000D01*
X140912037Y-133823373D01*
X140963557Y-133653534D01*
X141047222Y-133497009D01*
X141076552Y-133461271D01*
X141159814Y-133359814D01*
X141261271Y-133276552D01*
X141297009Y-133247222D01*
X141453534Y-133163557D01*
X141623373Y-133112037D01*
X141689557Y-133105519D01*
X141755740Y-133099000D01*
X141844260Y-133099000D01*
X141910443Y-133105519D01*
X141910443Y-133105519D01*
G37*
G36*
X137621000Y-134901000D02*
G01*
X135819000Y-134901000D01*
X135819000Y-133099000D01*
X137621000Y-133099000D01*
X137621000Y-134901000D01*
X137621000Y-134901000D01*
G37*
G36*
X170568604Y-132174347D02*
G01*
X170605144Y-132185432D01*
X170638821Y-132203433D01*
X170668341Y-132227659D01*
X170692567Y-132257179D01*
X170710568Y-132290856D01*
X170721653Y-132327396D01*
X170726000Y-132371538D01*
X170726000Y-133820462D01*
X170721653Y-133864604D01*
X170710568Y-133901144D01*
X170692567Y-133934821D01*
X170668341Y-133964341D01*
X170638821Y-133988567D01*
X170605144Y-134006568D01*
X170568604Y-134017653D01*
X170524462Y-134022000D01*
X169575538Y-134022000D01*
X169531396Y-134017653D01*
X169494856Y-134006568D01*
X169461179Y-133988567D01*
X169431659Y-133964341D01*
X169407433Y-133934821D01*
X169389432Y-133901144D01*
X169378347Y-133864604D01*
X169374000Y-133820462D01*
X169374000Y-132371538D01*
X169378347Y-132327396D01*
X169389432Y-132290856D01*
X169407433Y-132257179D01*
X169431659Y-132227659D01*
X169461179Y-132203433D01*
X169494856Y-132185432D01*
X169531396Y-132174347D01*
X169575538Y-132170000D01*
X170524462Y-132170000D01*
X170568604Y-132174347D01*
X170568604Y-132174347D01*
G37*
G36*
X173368604Y-132174347D02*
G01*
X173405144Y-132185432D01*
X173438821Y-132203433D01*
X173468341Y-132227659D01*
X173492567Y-132257179D01*
X173510568Y-132290856D01*
X173521653Y-132327396D01*
X173526000Y-132371538D01*
X173526000Y-133820462D01*
X173521653Y-133864604D01*
X173510568Y-133901144D01*
X173492567Y-133934821D01*
X173468341Y-133964341D01*
X173438821Y-133988567D01*
X173405144Y-134006568D01*
X173368604Y-134017653D01*
X173324462Y-134022000D01*
X172375538Y-134022000D01*
X172331396Y-134017653D01*
X172294856Y-134006568D01*
X172261179Y-133988567D01*
X172231659Y-133964341D01*
X172207433Y-133934821D01*
X172189432Y-133901144D01*
X172178347Y-133864604D01*
X172174000Y-133820462D01*
X172174000Y-132371538D01*
X172178347Y-132327396D01*
X172189432Y-132290856D01*
X172207433Y-132257179D01*
X172231659Y-132227659D01*
X172261179Y-132203433D01*
X172294856Y-132185432D01*
X172331396Y-132174347D01*
X172375538Y-132170000D01*
X173324462Y-132170000D01*
X173368604Y-132174347D01*
X173368604Y-132174347D01*
G37*
G36*
X168935000Y-131455000D02*
G01*
X167333000Y-131455000D01*
X167333000Y-129353000D01*
X168935000Y-129353000D01*
X168935000Y-131455000D01*
X168935000Y-131455000D01*
G37*
G36*
X171235000Y-131455000D02*
G01*
X169633000Y-131455000D01*
X169633000Y-129353000D01*
X171235000Y-129353000D01*
X171235000Y-131455000D01*
X171235000Y-131455000D01*
G37*
G36*
X173535000Y-131455000D02*
G01*
X171933000Y-131455000D01*
X171933000Y-129353000D01*
X173535000Y-129353000D01*
X173535000Y-131455000D01*
X173535000Y-131455000D01*
G37*
G36*
X166122604Y-127728347D02*
G01*
X166159144Y-127739432D01*
X166192821Y-127757433D01*
X166222341Y-127781659D01*
X166246567Y-127811179D01*
X166264568Y-127844856D01*
X166275653Y-127881396D01*
X166280000Y-127925538D01*
X166280000Y-128874462D01*
X166275653Y-128918604D01*
X166264568Y-128955144D01*
X166246567Y-128988821D01*
X166222341Y-129018341D01*
X166192821Y-129042567D01*
X166159144Y-129060568D01*
X166122604Y-129071653D01*
X166078462Y-129076000D01*
X164629538Y-129076000D01*
X164585396Y-129071653D01*
X164548856Y-129060568D01*
X164515179Y-129042567D01*
X164485659Y-129018341D01*
X164461433Y-128988821D01*
X164443432Y-128955144D01*
X164432347Y-128918604D01*
X164428000Y-128874462D01*
X164428000Y-127925538D01*
X164432347Y-127881396D01*
X164443432Y-127844856D01*
X164461433Y-127811179D01*
X164485659Y-127781659D01*
X164515179Y-127757433D01*
X164548856Y-127739432D01*
X164585396Y-127728347D01*
X164629538Y-127724000D01*
X166078462Y-127724000D01*
X166122604Y-127728347D01*
X166122604Y-127728347D01*
G37*
G36*
X188335256Y-125391298D02*
G01*
X188441579Y-125412447D01*
X188742042Y-125536903D01*
X189012451Y-125717585D01*
X189242415Y-125947549D01*
X189386747Y-126163557D01*
X189423098Y-126217960D01*
X189435647Y-126248257D01*
X189547553Y-126518421D01*
X189611000Y-126837391D01*
X189611000Y-127162609D01*
X189547553Y-127481579D01*
X189481856Y-127640185D01*
X189433291Y-127757433D01*
X189423097Y-127782042D01*
X189242415Y-128052451D01*
X189012451Y-128282415D01*
X188742042Y-128463097D01*
X188441579Y-128587553D01*
X188335256Y-128608702D01*
X188122611Y-128651000D01*
X187797389Y-128651000D01*
X187584744Y-128608702D01*
X187478421Y-128587553D01*
X187177958Y-128463097D01*
X186907549Y-128282415D01*
X186677585Y-128052451D01*
X186496903Y-127782042D01*
X186486710Y-127757433D01*
X186438144Y-127640185D01*
X186372447Y-127481579D01*
X186309000Y-127162609D01*
X186309000Y-126837391D01*
X186372447Y-126518421D01*
X186484353Y-126248257D01*
X186496902Y-126217960D01*
X186533253Y-126163557D01*
X186677585Y-125947549D01*
X186907549Y-125717585D01*
X187177958Y-125536903D01*
X187478421Y-125412447D01*
X187584744Y-125391298D01*
X187797389Y-125349000D01*
X188122611Y-125349000D01*
X188335256Y-125391298D01*
X188335256Y-125391298D01*
G37*
G36*
X126105256Y-125391298D02*
G01*
X126211579Y-125412447D01*
X126512042Y-125536903D01*
X126782451Y-125717585D01*
X127012415Y-125947549D01*
X127156747Y-126163557D01*
X127193098Y-126217960D01*
X127205647Y-126248257D01*
X127317553Y-126518421D01*
X127381000Y-126837391D01*
X127381000Y-127162609D01*
X127317553Y-127481579D01*
X127251856Y-127640185D01*
X127203291Y-127757433D01*
X127193097Y-127782042D01*
X127012415Y-128052451D01*
X126782451Y-128282415D01*
X126512042Y-128463097D01*
X126211579Y-128587553D01*
X126105256Y-128608702D01*
X125892611Y-128651000D01*
X125567389Y-128651000D01*
X125354744Y-128608702D01*
X125248421Y-128587553D01*
X124947958Y-128463097D01*
X124677549Y-128282415D01*
X124447585Y-128052451D01*
X124266903Y-127782042D01*
X124256710Y-127757433D01*
X124208144Y-127640185D01*
X124142447Y-127481579D01*
X124079000Y-127162609D01*
X124079000Y-126837391D01*
X124142447Y-126518421D01*
X124254353Y-126248257D01*
X124266902Y-126217960D01*
X124303253Y-126163557D01*
X124447585Y-125947549D01*
X124677549Y-125717585D01*
X124947958Y-125536903D01*
X125248421Y-125412447D01*
X125354744Y-125391298D01*
X125567389Y-125349000D01*
X125892611Y-125349000D01*
X126105256Y-125391298D01*
X126105256Y-125391298D01*
G37*
G36*
X180450443Y-126105519D02*
G01*
X180516627Y-126112037D01*
X180686466Y-126163557D01*
X180842991Y-126247222D01*
X180872760Y-126271653D01*
X180980186Y-126359814D01*
X181054585Y-126450471D01*
X181092778Y-126497009D01*
X181176443Y-126653534D01*
X181227963Y-126823373D01*
X181245359Y-127000000D01*
X181227963Y-127176627D01*
X181176443Y-127346466D01*
X181092778Y-127502991D01*
X181063448Y-127538729D01*
X180980186Y-127640186D01*
X180878729Y-127723448D01*
X180842991Y-127752778D01*
X180686466Y-127836443D01*
X180516627Y-127887963D01*
X180450442Y-127894482D01*
X180384260Y-127901000D01*
X180295740Y-127901000D01*
X180229558Y-127894482D01*
X180163373Y-127887963D01*
X179993534Y-127836443D01*
X179837009Y-127752778D01*
X179801271Y-127723448D01*
X179699814Y-127640186D01*
X179616552Y-127538729D01*
X179587222Y-127502991D01*
X179503557Y-127346466D01*
X179452037Y-127176627D01*
X179434641Y-127000000D01*
X179452037Y-126823373D01*
X179503557Y-126653534D01*
X179587222Y-126497009D01*
X179625415Y-126450471D01*
X179699814Y-126359814D01*
X179807240Y-126271653D01*
X179837009Y-126247222D01*
X179993534Y-126163557D01*
X180163373Y-126112037D01*
X180229557Y-126105519D01*
X180295740Y-126099000D01*
X180384260Y-126099000D01*
X180450443Y-126105519D01*
X180450443Y-126105519D01*
G37*
G36*
X134730443Y-126105519D02*
G01*
X134796627Y-126112037D01*
X134966466Y-126163557D01*
X135122991Y-126247222D01*
X135152760Y-126271653D01*
X135260186Y-126359814D01*
X135334585Y-126450471D01*
X135372778Y-126497009D01*
X135456443Y-126653534D01*
X135507963Y-126823373D01*
X135525359Y-127000000D01*
X135507963Y-127176627D01*
X135456443Y-127346466D01*
X135372778Y-127502991D01*
X135343448Y-127538729D01*
X135260186Y-127640186D01*
X135158729Y-127723448D01*
X135122991Y-127752778D01*
X134966466Y-127836443D01*
X134796627Y-127887963D01*
X134730442Y-127894482D01*
X134664260Y-127901000D01*
X134575740Y-127901000D01*
X134509558Y-127894482D01*
X134443373Y-127887963D01*
X134273534Y-127836443D01*
X134117009Y-127752778D01*
X134081271Y-127723448D01*
X133979814Y-127640186D01*
X133896552Y-127538729D01*
X133867222Y-127502991D01*
X133783557Y-127346466D01*
X133732037Y-127176627D01*
X133714641Y-127000000D01*
X133732037Y-126823373D01*
X133783557Y-126653534D01*
X133867222Y-126497009D01*
X133905415Y-126450471D01*
X133979814Y-126359814D01*
X134087240Y-126271653D01*
X134117009Y-126247222D01*
X134273534Y-126163557D01*
X134443373Y-126112037D01*
X134509557Y-126105519D01*
X134575740Y-126099000D01*
X134664260Y-126099000D01*
X134730443Y-126105519D01*
X134730443Y-126105519D01*
G37*
G36*
X157717142Y-124948242D02*
G01*
X157865101Y-125009529D01*
X157998255Y-125098499D01*
X158111501Y-125211745D01*
X158200471Y-125344899D01*
X158261758Y-125492858D01*
X158293000Y-125649925D01*
X158293000Y-125810075D01*
X158261758Y-125967142D01*
X158200471Y-126115101D01*
X158111501Y-126248255D01*
X157998255Y-126361501D01*
X157865101Y-126450471D01*
X157717142Y-126511758D01*
X157560075Y-126543000D01*
X157399925Y-126543000D01*
X157242858Y-126511758D01*
X157094899Y-126450471D01*
X156961745Y-126361501D01*
X156848499Y-126248255D01*
X156759529Y-126115101D01*
X156698242Y-125967142D01*
X156667000Y-125810075D01*
X156667000Y-125649925D01*
X156698242Y-125492858D01*
X156759529Y-125344899D01*
X156848499Y-125211745D01*
X156961745Y-125098499D01*
X157094899Y-125009529D01*
X157242858Y-124948242D01*
X157399925Y-124917000D01*
X157560075Y-124917000D01*
X157717142Y-124948242D01*
X157717142Y-124948242D01*
G37*
G36*
X145017142Y-124948242D02*
G01*
X145165101Y-125009529D01*
X145298255Y-125098499D01*
X145411501Y-125211745D01*
X145500471Y-125344899D01*
X145561758Y-125492858D01*
X145593000Y-125649925D01*
X145593000Y-125810075D01*
X145561758Y-125967142D01*
X145500471Y-126115101D01*
X145411501Y-126248255D01*
X145298255Y-126361501D01*
X145165101Y-126450471D01*
X145017142Y-126511758D01*
X144860075Y-126543000D01*
X144699925Y-126543000D01*
X144542858Y-126511758D01*
X144394899Y-126450471D01*
X144261745Y-126361501D01*
X144148499Y-126248255D01*
X144059529Y-126115101D01*
X143998242Y-125967142D01*
X143967000Y-125810075D01*
X143967000Y-125649925D01*
X143998242Y-125492858D01*
X144059529Y-125344899D01*
X144148499Y-125211745D01*
X144261745Y-125098499D01*
X144394899Y-125009529D01*
X144542858Y-124948242D01*
X144699925Y-124917000D01*
X144860075Y-124917000D01*
X145017142Y-124948242D01*
X145017142Y-124948242D01*
G37*
G36*
X147557142Y-124948242D02*
G01*
X147705101Y-125009529D01*
X147838255Y-125098499D01*
X147951501Y-125211745D01*
X148040471Y-125344899D01*
X148101758Y-125492858D01*
X148133000Y-125649925D01*
X148133000Y-125810075D01*
X148101758Y-125967142D01*
X148040471Y-126115101D01*
X147951501Y-126248255D01*
X147838255Y-126361501D01*
X147705101Y-126450471D01*
X147557142Y-126511758D01*
X147400075Y-126543000D01*
X147239925Y-126543000D01*
X147082858Y-126511758D01*
X146934899Y-126450471D01*
X146801745Y-126361501D01*
X146688499Y-126248255D01*
X146599529Y-126115101D01*
X146538242Y-125967142D01*
X146507000Y-125810075D01*
X146507000Y-125649925D01*
X146538242Y-125492858D01*
X146599529Y-125344899D01*
X146688499Y-125211745D01*
X146801745Y-125098499D01*
X146934899Y-125009529D01*
X147082858Y-124948242D01*
X147239925Y-124917000D01*
X147400075Y-124917000D01*
X147557142Y-124948242D01*
X147557142Y-124948242D01*
G37*
G36*
X150097142Y-124948242D02*
G01*
X150245101Y-125009529D01*
X150378255Y-125098499D01*
X150491501Y-125211745D01*
X150580471Y-125344899D01*
X150641758Y-125492858D01*
X150673000Y-125649925D01*
X150673000Y-125810075D01*
X150641758Y-125967142D01*
X150580471Y-126115101D01*
X150491501Y-126248255D01*
X150378255Y-126361501D01*
X150245101Y-126450471D01*
X150097142Y-126511758D01*
X149940075Y-126543000D01*
X149779925Y-126543000D01*
X149622858Y-126511758D01*
X149474899Y-126450471D01*
X149341745Y-126361501D01*
X149228499Y-126248255D01*
X149139529Y-126115101D01*
X149078242Y-125967142D01*
X149047000Y-125810075D01*
X149047000Y-125649925D01*
X149078242Y-125492858D01*
X149139529Y-125344899D01*
X149228499Y-125211745D01*
X149341745Y-125098499D01*
X149474899Y-125009529D01*
X149622858Y-124948242D01*
X149779925Y-124917000D01*
X149940075Y-124917000D01*
X150097142Y-124948242D01*
X150097142Y-124948242D01*
G37*
G36*
X152637142Y-124948242D02*
G01*
X152785101Y-125009529D01*
X152918255Y-125098499D01*
X153031501Y-125211745D01*
X153120471Y-125344899D01*
X153181758Y-125492858D01*
X153213000Y-125649925D01*
X153213000Y-125810075D01*
X153181758Y-125967142D01*
X153120471Y-126115101D01*
X153031501Y-126248255D01*
X152918255Y-126361501D01*
X152785101Y-126450471D01*
X152637142Y-126511758D01*
X152480075Y-126543000D01*
X152319925Y-126543000D01*
X152162858Y-126511758D01*
X152014899Y-126450471D01*
X151881745Y-126361501D01*
X151768499Y-126248255D01*
X151679529Y-126115101D01*
X151618242Y-125967142D01*
X151587000Y-125810075D01*
X151587000Y-125649925D01*
X151618242Y-125492858D01*
X151679529Y-125344899D01*
X151768499Y-125211745D01*
X151881745Y-125098499D01*
X152014899Y-125009529D01*
X152162858Y-124948242D01*
X152319925Y-124917000D01*
X152480075Y-124917000D01*
X152637142Y-124948242D01*
X152637142Y-124948242D01*
G37*
G36*
X155177142Y-124948242D02*
G01*
X155325101Y-125009529D01*
X155458255Y-125098499D01*
X155571501Y-125211745D01*
X155660471Y-125344899D01*
X155721758Y-125492858D01*
X155753000Y-125649925D01*
X155753000Y-125810075D01*
X155721758Y-125967142D01*
X155660471Y-126115101D01*
X155571501Y-126248255D01*
X155458255Y-126361501D01*
X155325101Y-126450471D01*
X155177142Y-126511758D01*
X155020075Y-126543000D01*
X154859925Y-126543000D01*
X154702858Y-126511758D01*
X154554899Y-126450471D01*
X154421745Y-126361501D01*
X154308499Y-126248255D01*
X154219529Y-126115101D01*
X154158242Y-125967142D01*
X154127000Y-125810075D01*
X154127000Y-125649925D01*
X154158242Y-125492858D01*
X154219529Y-125344899D01*
X154308499Y-125211745D01*
X154421745Y-125098499D01*
X154554899Y-125009529D01*
X154702858Y-124948242D01*
X154859925Y-124917000D01*
X155020075Y-124917000D01*
X155177142Y-124948242D01*
X155177142Y-124948242D01*
G37*
G36*
X160257142Y-124948242D02*
G01*
X160405101Y-125009529D01*
X160538255Y-125098499D01*
X160651501Y-125211745D01*
X160740471Y-125344899D01*
X160801758Y-125492858D01*
X160833000Y-125649925D01*
X160833000Y-125810075D01*
X160801758Y-125967142D01*
X160740471Y-126115101D01*
X160651501Y-126248255D01*
X160538255Y-126361501D01*
X160405101Y-126450471D01*
X160257142Y-126511758D01*
X160100075Y-126543000D01*
X159939925Y-126543000D01*
X159782858Y-126511758D01*
X159634899Y-126450471D01*
X159501745Y-126361501D01*
X159388499Y-126248255D01*
X159299529Y-126115101D01*
X159238242Y-125967142D01*
X159207000Y-125810075D01*
X159207000Y-125649925D01*
X159238242Y-125492858D01*
X159299529Y-125344899D01*
X159388499Y-125211745D01*
X159501745Y-125098499D01*
X159634899Y-125009529D01*
X159782858Y-124948242D01*
X159939925Y-124917000D01*
X160100075Y-124917000D01*
X160257142Y-124948242D01*
X160257142Y-124948242D01*
G37*
G36*
X166122604Y-124928347D02*
G01*
X166159144Y-124939432D01*
X166192821Y-124957433D01*
X166222341Y-124981659D01*
X166246567Y-125011179D01*
X166264568Y-125044856D01*
X166275653Y-125081396D01*
X166280000Y-125125538D01*
X166280000Y-126074462D01*
X166275653Y-126118604D01*
X166264568Y-126155144D01*
X166246567Y-126188821D01*
X166222341Y-126218341D01*
X166192821Y-126242567D01*
X166159144Y-126260568D01*
X166122604Y-126271653D01*
X166078462Y-126276000D01*
X164629538Y-126276000D01*
X164585396Y-126271653D01*
X164548856Y-126260568D01*
X164515179Y-126242567D01*
X164485659Y-126218341D01*
X164461433Y-126188821D01*
X164443432Y-126155144D01*
X164432347Y-126118604D01*
X164428000Y-126074462D01*
X164428000Y-125125538D01*
X164432347Y-125081396D01*
X164443432Y-125044856D01*
X164461433Y-125011179D01*
X164485659Y-124981659D01*
X164515179Y-124957433D01*
X164548856Y-124939432D01*
X164585396Y-124928347D01*
X164629538Y-124924000D01*
X166078462Y-124924000D01*
X166122604Y-124928347D01*
X166122604Y-124928347D01*
G37*
G36*
X180450442Y-123565518D02*
G01*
X180516627Y-123572037D01*
X180686466Y-123623557D01*
X180842991Y-123707222D01*
X180878729Y-123736552D01*
X180980186Y-123819814D01*
X181063448Y-123921271D01*
X181092778Y-123957009D01*
X181176443Y-124113534D01*
X181227963Y-124283373D01*
X181245359Y-124460000D01*
X181227963Y-124636627D01*
X181176443Y-124806466D01*
X181092778Y-124962991D01*
X181077457Y-124981659D01*
X180980186Y-125100186D01*
X180878729Y-125183448D01*
X180842991Y-125212778D01*
X180686466Y-125296443D01*
X180516627Y-125347963D01*
X180450442Y-125354482D01*
X180384260Y-125361000D01*
X180295740Y-125361000D01*
X180229558Y-125354482D01*
X180163373Y-125347963D01*
X179993534Y-125296443D01*
X179837009Y-125212778D01*
X179801271Y-125183448D01*
X179699814Y-125100186D01*
X179602543Y-124981659D01*
X179587222Y-124962991D01*
X179503557Y-124806466D01*
X179452037Y-124636627D01*
X179434641Y-124460000D01*
X179452037Y-124283373D01*
X179503557Y-124113534D01*
X179587222Y-123957009D01*
X179616552Y-123921271D01*
X179699814Y-123819814D01*
X179801271Y-123736552D01*
X179837009Y-123707222D01*
X179993534Y-123623557D01*
X180163373Y-123572037D01*
X180229558Y-123565518D01*
X180295740Y-123559000D01*
X180384260Y-123559000D01*
X180450442Y-123565518D01*
X180450442Y-123565518D01*
G37*
G36*
X134730442Y-123565518D02*
G01*
X134796627Y-123572037D01*
X134966466Y-123623557D01*
X135122991Y-123707222D01*
X135158729Y-123736552D01*
X135260186Y-123819814D01*
X135343448Y-123921271D01*
X135372778Y-123957009D01*
X135456443Y-124113534D01*
X135507963Y-124283373D01*
X135525359Y-124460000D01*
X135507963Y-124636627D01*
X135456443Y-124806466D01*
X135372778Y-124962991D01*
X135357457Y-124981659D01*
X135260186Y-125100186D01*
X135158729Y-125183448D01*
X135122991Y-125212778D01*
X134966466Y-125296443D01*
X134796627Y-125347963D01*
X134730442Y-125354482D01*
X134664260Y-125361000D01*
X134575740Y-125361000D01*
X134509558Y-125354482D01*
X134443373Y-125347963D01*
X134273534Y-125296443D01*
X134117009Y-125212778D01*
X134081271Y-125183448D01*
X133979814Y-125100186D01*
X133882543Y-124981659D01*
X133867222Y-124962991D01*
X133783557Y-124806466D01*
X133732037Y-124636627D01*
X133714641Y-124460000D01*
X133732037Y-124283373D01*
X133783557Y-124113534D01*
X133867222Y-123957009D01*
X133896552Y-123921271D01*
X133979814Y-123819814D01*
X134081271Y-123736552D01*
X134117009Y-123707222D01*
X134273534Y-123623557D01*
X134443373Y-123572037D01*
X134509558Y-123565518D01*
X134575740Y-123559000D01*
X134664260Y-123559000D01*
X134730442Y-123565518D01*
X134730442Y-123565518D01*
G37*
G36*
X172385000Y-125155000D02*
G01*
X168483000Y-125155000D01*
X168483000Y-123053000D01*
X172385000Y-123053000D01*
X172385000Y-125155000D01*
X172385000Y-125155000D01*
G37*
G36*
X180450442Y-121025518D02*
G01*
X180516627Y-121032037D01*
X180686466Y-121083557D01*
X180842991Y-121167222D01*
X180878729Y-121196552D01*
X180980186Y-121279814D01*
X181063448Y-121381271D01*
X181092778Y-121417009D01*
X181176443Y-121573534D01*
X181227963Y-121743373D01*
X181245359Y-121920000D01*
X181227963Y-122096627D01*
X181176443Y-122266466D01*
X181092778Y-122422991D01*
X181063448Y-122458729D01*
X180980186Y-122560186D01*
X180878729Y-122643448D01*
X180842991Y-122672778D01*
X180686466Y-122756443D01*
X180516627Y-122807963D01*
X180450443Y-122814481D01*
X180384260Y-122821000D01*
X180295740Y-122821000D01*
X180229557Y-122814481D01*
X180163373Y-122807963D01*
X179993534Y-122756443D01*
X179837009Y-122672778D01*
X179801271Y-122643448D01*
X179699814Y-122560186D01*
X179616552Y-122458729D01*
X179587222Y-122422991D01*
X179503557Y-122266466D01*
X179452037Y-122096627D01*
X179434641Y-121920000D01*
X179452037Y-121743373D01*
X179503557Y-121573534D01*
X179587222Y-121417009D01*
X179616552Y-121381271D01*
X179699814Y-121279814D01*
X179801271Y-121196552D01*
X179837009Y-121167222D01*
X179993534Y-121083557D01*
X180163373Y-121032037D01*
X180229558Y-121025518D01*
X180295740Y-121019000D01*
X180384260Y-121019000D01*
X180450442Y-121025518D01*
X180450442Y-121025518D01*
G37*
G36*
X134730442Y-121025518D02*
G01*
X134796627Y-121032037D01*
X134966466Y-121083557D01*
X135122991Y-121167222D01*
X135158729Y-121196552D01*
X135260186Y-121279814D01*
X135343448Y-121381271D01*
X135372778Y-121417009D01*
X135456443Y-121573534D01*
X135507963Y-121743373D01*
X135525359Y-121920000D01*
X135507963Y-122096627D01*
X135456443Y-122266466D01*
X135372778Y-122422991D01*
X135343448Y-122458729D01*
X135260186Y-122560186D01*
X135158729Y-122643448D01*
X135122991Y-122672778D01*
X134966466Y-122756443D01*
X134796627Y-122807963D01*
X134730443Y-122814481D01*
X134664260Y-122821000D01*
X134575740Y-122821000D01*
X134509557Y-122814481D01*
X134443373Y-122807963D01*
X134273534Y-122756443D01*
X134117009Y-122672778D01*
X134081271Y-122643448D01*
X133979814Y-122560186D01*
X133896552Y-122458729D01*
X133867222Y-122422991D01*
X133783557Y-122266466D01*
X133732037Y-122096627D01*
X133714641Y-121920000D01*
X133732037Y-121743373D01*
X133783557Y-121573534D01*
X133867222Y-121417009D01*
X133896552Y-121381271D01*
X133979814Y-121279814D01*
X134081271Y-121196552D01*
X134117009Y-121167222D01*
X134273534Y-121083557D01*
X134443373Y-121032037D01*
X134509558Y-121025518D01*
X134575740Y-121019000D01*
X134664260Y-121019000D01*
X134730442Y-121025518D01*
X134730442Y-121025518D01*
G37*
G36*
X180450442Y-118485518D02*
G01*
X180516627Y-118492037D01*
X180686466Y-118543557D01*
X180842991Y-118627222D01*
X180878729Y-118656552D01*
X180980186Y-118739814D01*
X181054585Y-118830471D01*
X181092778Y-118877009D01*
X181176443Y-119033534D01*
X181227963Y-119203373D01*
X181245359Y-119380000D01*
X181227963Y-119556627D01*
X181176443Y-119726466D01*
X181092778Y-119882991D01*
X181063448Y-119918729D01*
X180980186Y-120020186D01*
X180878729Y-120103448D01*
X180842991Y-120132778D01*
X180686466Y-120216443D01*
X180516627Y-120267963D01*
X180450442Y-120274482D01*
X180384260Y-120281000D01*
X180295740Y-120281000D01*
X180229558Y-120274482D01*
X180163373Y-120267963D01*
X179993534Y-120216443D01*
X179837009Y-120132778D01*
X179801271Y-120103448D01*
X179699814Y-120020186D01*
X179616552Y-119918729D01*
X179587222Y-119882991D01*
X179503557Y-119726466D01*
X179452037Y-119556627D01*
X179434641Y-119380000D01*
X179452037Y-119203373D01*
X179503557Y-119033534D01*
X179587222Y-118877009D01*
X179625415Y-118830471D01*
X179699814Y-118739814D01*
X179801271Y-118656552D01*
X179837009Y-118627222D01*
X179993534Y-118543557D01*
X180163373Y-118492037D01*
X180229558Y-118485518D01*
X180295740Y-118479000D01*
X180384260Y-118479000D01*
X180450442Y-118485518D01*
X180450442Y-118485518D01*
G37*
G36*
X134730442Y-118485518D02*
G01*
X134796627Y-118492037D01*
X134966466Y-118543557D01*
X135122991Y-118627222D01*
X135158729Y-118656552D01*
X135260186Y-118739814D01*
X135334585Y-118830471D01*
X135372778Y-118877009D01*
X135456443Y-119033534D01*
X135507963Y-119203373D01*
X135525359Y-119380000D01*
X135507963Y-119556627D01*
X135456443Y-119726466D01*
X135372778Y-119882991D01*
X135343448Y-119918729D01*
X135260186Y-120020186D01*
X135158729Y-120103448D01*
X135122991Y-120132778D01*
X134966466Y-120216443D01*
X134796627Y-120267963D01*
X134730442Y-120274482D01*
X134664260Y-120281000D01*
X134575740Y-120281000D01*
X134509558Y-120274482D01*
X134443373Y-120267963D01*
X134273534Y-120216443D01*
X134117009Y-120132778D01*
X134081271Y-120103448D01*
X133979814Y-120020186D01*
X133896552Y-119918729D01*
X133867222Y-119882991D01*
X133783557Y-119726466D01*
X133732037Y-119556627D01*
X133714641Y-119380000D01*
X133732037Y-119203373D01*
X133783557Y-119033534D01*
X133867222Y-118877009D01*
X133905415Y-118830471D01*
X133979814Y-118739814D01*
X134081271Y-118656552D01*
X134117009Y-118627222D01*
X134273534Y-118543557D01*
X134443373Y-118492037D01*
X134509558Y-118485518D01*
X134575740Y-118479000D01*
X134664260Y-118479000D01*
X134730442Y-118485518D01*
X134730442Y-118485518D01*
G37*
G36*
X150097142Y-117328242D02*
G01*
X150245101Y-117389529D01*
X150378255Y-117478499D01*
X150491501Y-117591745D01*
X150580471Y-117724899D01*
X150641758Y-117872858D01*
X150673000Y-118029925D01*
X150673000Y-118190075D01*
X150641758Y-118347142D01*
X150580471Y-118495101D01*
X150491501Y-118628255D01*
X150378255Y-118741501D01*
X150245101Y-118830471D01*
X150097142Y-118891758D01*
X149940075Y-118923000D01*
X149779925Y-118923000D01*
X149622858Y-118891758D01*
X149474899Y-118830471D01*
X149341745Y-118741501D01*
X149228499Y-118628255D01*
X149139529Y-118495101D01*
X149078242Y-118347142D01*
X149047000Y-118190075D01*
X149047000Y-118029925D01*
X149078242Y-117872858D01*
X149139529Y-117724899D01*
X149228499Y-117591745D01*
X149341745Y-117478499D01*
X149474899Y-117389529D01*
X149622858Y-117328242D01*
X149779925Y-117297000D01*
X149940075Y-117297000D01*
X150097142Y-117328242D01*
X150097142Y-117328242D01*
G37*
G36*
X152637142Y-117328242D02*
G01*
X152785101Y-117389529D01*
X152918255Y-117478499D01*
X153031501Y-117591745D01*
X153120471Y-117724899D01*
X153181758Y-117872858D01*
X153213000Y-118029925D01*
X153213000Y-118190075D01*
X153181758Y-118347142D01*
X153120471Y-118495101D01*
X153031501Y-118628255D01*
X152918255Y-118741501D01*
X152785101Y-118830471D01*
X152637142Y-118891758D01*
X152480075Y-118923000D01*
X152319925Y-118923000D01*
X152162858Y-118891758D01*
X152014899Y-118830471D01*
X151881745Y-118741501D01*
X151768499Y-118628255D01*
X151679529Y-118495101D01*
X151618242Y-118347142D01*
X151587000Y-118190075D01*
X151587000Y-118029925D01*
X151618242Y-117872858D01*
X151679529Y-117724899D01*
X151768499Y-117591745D01*
X151881745Y-117478499D01*
X152014899Y-117389529D01*
X152162858Y-117328242D01*
X152319925Y-117297000D01*
X152480075Y-117297000D01*
X152637142Y-117328242D01*
X152637142Y-117328242D01*
G37*
G36*
X155177142Y-117328242D02*
G01*
X155325101Y-117389529D01*
X155458255Y-117478499D01*
X155571501Y-117591745D01*
X155660471Y-117724899D01*
X155721758Y-117872858D01*
X155753000Y-118029925D01*
X155753000Y-118190075D01*
X155721758Y-118347142D01*
X155660471Y-118495101D01*
X155571501Y-118628255D01*
X155458255Y-118741501D01*
X155325101Y-118830471D01*
X155177142Y-118891758D01*
X155020075Y-118923000D01*
X154859925Y-118923000D01*
X154702858Y-118891758D01*
X154554899Y-118830471D01*
X154421745Y-118741501D01*
X154308499Y-118628255D01*
X154219529Y-118495101D01*
X154158242Y-118347142D01*
X154127000Y-118190075D01*
X154127000Y-118029925D01*
X154158242Y-117872858D01*
X154219529Y-117724899D01*
X154308499Y-117591745D01*
X154421745Y-117478499D01*
X154554899Y-117389529D01*
X154702858Y-117328242D01*
X154859925Y-117297000D01*
X155020075Y-117297000D01*
X155177142Y-117328242D01*
X155177142Y-117328242D01*
G37*
G36*
X157717142Y-117328242D02*
G01*
X157865101Y-117389529D01*
X157998255Y-117478499D01*
X158111501Y-117591745D01*
X158200471Y-117724899D01*
X158261758Y-117872858D01*
X158293000Y-118029925D01*
X158293000Y-118190075D01*
X158261758Y-118347142D01*
X158200471Y-118495101D01*
X158111501Y-118628255D01*
X157998255Y-118741501D01*
X157865101Y-118830471D01*
X157717142Y-118891758D01*
X157560075Y-118923000D01*
X157399925Y-118923000D01*
X157242858Y-118891758D01*
X157094899Y-118830471D01*
X156961745Y-118741501D01*
X156848499Y-118628255D01*
X156759529Y-118495101D01*
X156698242Y-118347142D01*
X156667000Y-118190075D01*
X156667000Y-118029925D01*
X156698242Y-117872858D01*
X156759529Y-117724899D01*
X156848499Y-117591745D01*
X156961745Y-117478499D01*
X157094899Y-117389529D01*
X157242858Y-117328242D01*
X157399925Y-117297000D01*
X157560075Y-117297000D01*
X157717142Y-117328242D01*
X157717142Y-117328242D01*
G37*
G36*
X145017142Y-117328242D02*
G01*
X145165101Y-117389529D01*
X145298255Y-117478499D01*
X145411501Y-117591745D01*
X145500471Y-117724899D01*
X145561758Y-117872858D01*
X145593000Y-118029925D01*
X145593000Y-118190075D01*
X145561758Y-118347142D01*
X145500471Y-118495101D01*
X145411501Y-118628255D01*
X145298255Y-118741501D01*
X145165101Y-118830471D01*
X145017142Y-118891758D01*
X144860075Y-118923000D01*
X144699925Y-118923000D01*
X144542858Y-118891758D01*
X144394899Y-118830471D01*
X144261745Y-118741501D01*
X144148499Y-118628255D01*
X144059529Y-118495101D01*
X143998242Y-118347142D01*
X143967000Y-118190075D01*
X143967000Y-118029925D01*
X143998242Y-117872858D01*
X144059529Y-117724899D01*
X144148499Y-117591745D01*
X144261745Y-117478499D01*
X144394899Y-117389529D01*
X144542858Y-117328242D01*
X144699925Y-117297000D01*
X144860075Y-117297000D01*
X145017142Y-117328242D01*
X145017142Y-117328242D01*
G37*
G36*
X147557142Y-117328242D02*
G01*
X147705101Y-117389529D01*
X147838255Y-117478499D01*
X147951501Y-117591745D01*
X148040471Y-117724899D01*
X148101758Y-117872858D01*
X148133000Y-118029925D01*
X148133000Y-118190075D01*
X148101758Y-118347142D01*
X148040471Y-118495101D01*
X147951501Y-118628255D01*
X147838255Y-118741501D01*
X147705101Y-118830471D01*
X147557142Y-118891758D01*
X147400075Y-118923000D01*
X147239925Y-118923000D01*
X147082858Y-118891758D01*
X146934899Y-118830471D01*
X146801745Y-118741501D01*
X146688499Y-118628255D01*
X146599529Y-118495101D01*
X146538242Y-118347142D01*
X146507000Y-118190075D01*
X146507000Y-118029925D01*
X146538242Y-117872858D01*
X146599529Y-117724899D01*
X146688499Y-117591745D01*
X146801745Y-117478499D01*
X146934899Y-117389529D01*
X147082858Y-117328242D01*
X147239925Y-117297000D01*
X147400075Y-117297000D01*
X147557142Y-117328242D01*
X147557142Y-117328242D01*
G37*
G36*
X160257142Y-117328242D02*
G01*
X160405101Y-117389529D01*
X160538255Y-117478499D01*
X160651501Y-117591745D01*
X160740471Y-117724899D01*
X160801758Y-117872858D01*
X160833000Y-118029925D01*
X160833000Y-118190075D01*
X160801758Y-118347142D01*
X160740471Y-118495101D01*
X160651501Y-118628255D01*
X160538255Y-118741501D01*
X160405101Y-118830471D01*
X160257142Y-118891758D01*
X160100075Y-118923000D01*
X159939925Y-118923000D01*
X159782858Y-118891758D01*
X159634899Y-118830471D01*
X159501745Y-118741501D01*
X159388499Y-118628255D01*
X159299529Y-118495101D01*
X159238242Y-118347142D01*
X159207000Y-118190075D01*
X159207000Y-118029925D01*
X159238242Y-117872858D01*
X159299529Y-117724899D01*
X159388499Y-117591745D01*
X159501745Y-117478499D01*
X159634899Y-117389529D01*
X159782858Y-117328242D01*
X159939925Y-117297000D01*
X160100075Y-117297000D01*
X160257142Y-117328242D01*
X160257142Y-117328242D01*
G37*
G36*
X188861000Y-117741000D02*
G01*
X187059000Y-117741000D01*
X187059000Y-115939000D01*
X188861000Y-115939000D01*
X188861000Y-117741000D01*
X188861000Y-117741000D01*
G37*
G36*
X134730442Y-115945518D02*
G01*
X134796627Y-115952037D01*
X134966466Y-116003557D01*
X135122991Y-116087222D01*
X135158729Y-116116552D01*
X135260186Y-116199814D01*
X135343448Y-116301271D01*
X135372778Y-116337009D01*
X135456443Y-116493534D01*
X135507963Y-116663373D01*
X135525359Y-116840000D01*
X135507963Y-117016627D01*
X135456443Y-117186466D01*
X135372778Y-117342991D01*
X135343448Y-117378729D01*
X135260186Y-117480186D01*
X135158729Y-117563448D01*
X135122991Y-117592778D01*
X134966466Y-117676443D01*
X134796627Y-117727963D01*
X134730442Y-117734482D01*
X134664260Y-117741000D01*
X134575740Y-117741000D01*
X134509558Y-117734482D01*
X134443373Y-117727963D01*
X134273534Y-117676443D01*
X134117009Y-117592778D01*
X134081271Y-117563448D01*
X133979814Y-117480186D01*
X133896552Y-117378729D01*
X133867222Y-117342991D01*
X133783557Y-117186466D01*
X133732037Y-117016627D01*
X133714641Y-116840000D01*
X133732037Y-116663373D01*
X133783557Y-116493534D01*
X133867222Y-116337009D01*
X133896552Y-116301271D01*
X133979814Y-116199814D01*
X134081271Y-116116552D01*
X134117009Y-116087222D01*
X134273534Y-116003557D01*
X134443373Y-115952037D01*
X134509558Y-115945518D01*
X134575740Y-115939000D01*
X134664260Y-115939000D01*
X134730442Y-115945518D01*
X134730442Y-115945518D01*
G37*
G36*
X125840442Y-115945518D02*
G01*
X125906627Y-115952037D01*
X126076466Y-116003557D01*
X126232991Y-116087222D01*
X126268729Y-116116552D01*
X126370186Y-116199814D01*
X126453448Y-116301271D01*
X126482778Y-116337009D01*
X126566443Y-116493534D01*
X126617963Y-116663373D01*
X126635359Y-116840000D01*
X126617963Y-117016627D01*
X126566443Y-117186466D01*
X126482778Y-117342991D01*
X126453448Y-117378729D01*
X126370186Y-117480186D01*
X126268729Y-117563448D01*
X126232991Y-117592778D01*
X126076466Y-117676443D01*
X125906627Y-117727963D01*
X125840442Y-117734482D01*
X125774260Y-117741000D01*
X125685740Y-117741000D01*
X125619558Y-117734482D01*
X125553373Y-117727963D01*
X125383534Y-117676443D01*
X125227009Y-117592778D01*
X125191271Y-117563448D01*
X125089814Y-117480186D01*
X125006552Y-117378729D01*
X124977222Y-117342991D01*
X124893557Y-117186466D01*
X124842037Y-117016627D01*
X124824641Y-116840000D01*
X124842037Y-116663373D01*
X124893557Y-116493534D01*
X124977222Y-116337009D01*
X125006552Y-116301271D01*
X125089814Y-116199814D01*
X125191271Y-116116552D01*
X125227009Y-116087222D01*
X125383534Y-116003557D01*
X125553373Y-115952037D01*
X125619558Y-115945518D01*
X125685740Y-115939000D01*
X125774260Y-115939000D01*
X125840442Y-115945518D01*
X125840442Y-115945518D01*
G37*
G36*
X180450442Y-115945518D02*
G01*
X180516627Y-115952037D01*
X180686466Y-116003557D01*
X180842991Y-116087222D01*
X180878729Y-116116552D01*
X180980186Y-116199814D01*
X181063448Y-116301271D01*
X181092778Y-116337009D01*
X181176443Y-116493534D01*
X181227963Y-116663373D01*
X181245359Y-116840000D01*
X181227963Y-117016627D01*
X181176443Y-117186466D01*
X181092778Y-117342991D01*
X181063448Y-117378729D01*
X180980186Y-117480186D01*
X180878729Y-117563448D01*
X180842991Y-117592778D01*
X180686466Y-117676443D01*
X180516627Y-117727963D01*
X180450442Y-117734482D01*
X180384260Y-117741000D01*
X180295740Y-117741000D01*
X180229558Y-117734482D01*
X180163373Y-117727963D01*
X179993534Y-117676443D01*
X179837009Y-117592778D01*
X179801271Y-117563448D01*
X179699814Y-117480186D01*
X179616552Y-117378729D01*
X179587222Y-117342991D01*
X179503557Y-117186466D01*
X179452037Y-117016627D01*
X179434641Y-116840000D01*
X179452037Y-116663373D01*
X179503557Y-116493534D01*
X179587222Y-116337009D01*
X179616552Y-116301271D01*
X179699814Y-116199814D01*
X179801271Y-116116552D01*
X179837009Y-116087222D01*
X179993534Y-116003557D01*
X180163373Y-115952037D01*
X180229558Y-115945518D01*
X180295740Y-115939000D01*
X180384260Y-115939000D01*
X180450442Y-115945518D01*
X180450442Y-115945518D01*
G37*
G36*
X181241000Y-115201000D02*
G01*
X179439000Y-115201000D01*
X179439000Y-113399000D01*
X181241000Y-113399000D01*
X181241000Y-115201000D01*
X181241000Y-115201000D01*
G37*
G36*
X188070443Y-113405519D02*
G01*
X188136627Y-113412037D01*
X188306466Y-113463557D01*
X188462991Y-113547222D01*
X188498729Y-113576552D01*
X188600186Y-113659814D01*
X188683448Y-113761271D01*
X188712778Y-113797009D01*
X188796443Y-113953534D01*
X188847963Y-114123373D01*
X188865359Y-114300000D01*
X188847963Y-114476627D01*
X188796443Y-114646466D01*
X188712778Y-114802991D01*
X188683448Y-114838729D01*
X188600186Y-114940186D01*
X188498729Y-115023448D01*
X188462991Y-115052778D01*
X188306466Y-115136443D01*
X188136627Y-115187963D01*
X188070442Y-115194482D01*
X188004260Y-115201000D01*
X187915740Y-115201000D01*
X187849558Y-115194482D01*
X187783373Y-115187963D01*
X187613534Y-115136443D01*
X187457009Y-115052778D01*
X187421271Y-115023448D01*
X187319814Y-114940186D01*
X187236552Y-114838729D01*
X187207222Y-114802991D01*
X187123557Y-114646466D01*
X187072037Y-114476627D01*
X187054641Y-114300000D01*
X187072037Y-114123373D01*
X187123557Y-113953534D01*
X187207222Y-113797009D01*
X187236552Y-113761271D01*
X187319814Y-113659814D01*
X187421271Y-113576552D01*
X187457009Y-113547222D01*
X187613534Y-113463557D01*
X187783373Y-113412037D01*
X187849557Y-113405519D01*
X187915740Y-113399000D01*
X188004260Y-113399000D01*
X188070443Y-113405519D01*
X188070443Y-113405519D01*
G37*
G36*
X125840443Y-113405519D02*
G01*
X125906627Y-113412037D01*
X126076466Y-113463557D01*
X126232991Y-113547222D01*
X126268729Y-113576552D01*
X126370186Y-113659814D01*
X126453448Y-113761271D01*
X126482778Y-113797009D01*
X126566443Y-113953534D01*
X126617963Y-114123373D01*
X126635359Y-114300000D01*
X126617963Y-114476627D01*
X126566443Y-114646466D01*
X126482778Y-114802991D01*
X126453448Y-114838729D01*
X126370186Y-114940186D01*
X126268729Y-115023448D01*
X126232991Y-115052778D01*
X126076466Y-115136443D01*
X125906627Y-115187963D01*
X125840442Y-115194482D01*
X125774260Y-115201000D01*
X125685740Y-115201000D01*
X125619558Y-115194482D01*
X125553373Y-115187963D01*
X125383534Y-115136443D01*
X125227009Y-115052778D01*
X125191271Y-115023448D01*
X125089814Y-114940186D01*
X125006552Y-114838729D01*
X124977222Y-114802991D01*
X124893557Y-114646466D01*
X124842037Y-114476627D01*
X124824641Y-114300000D01*
X124842037Y-114123373D01*
X124893557Y-113953534D01*
X124977222Y-113797009D01*
X125006552Y-113761271D01*
X125089814Y-113659814D01*
X125191271Y-113576552D01*
X125227009Y-113547222D01*
X125383534Y-113463557D01*
X125553373Y-113412037D01*
X125619557Y-113405519D01*
X125685740Y-113399000D01*
X125774260Y-113399000D01*
X125840443Y-113405519D01*
X125840443Y-113405519D01*
G37*
G36*
X135521000Y-115201000D02*
G01*
X133719000Y-115201000D01*
X133719000Y-113399000D01*
X135521000Y-113399000D01*
X135521000Y-115201000D01*
X135521000Y-115201000D01*
G37*
G36*
X163940442Y-110865518D02*
G01*
X164006627Y-110872037D01*
X164176466Y-110923557D01*
X164332991Y-111007222D01*
X164368729Y-111036552D01*
X164470186Y-111119814D01*
X164553448Y-111221271D01*
X164582778Y-111257009D01*
X164666443Y-111413534D01*
X164717963Y-111583373D01*
X164735359Y-111760000D01*
X164717963Y-111936627D01*
X164666443Y-112106466D01*
X164582778Y-112262991D01*
X164553448Y-112298729D01*
X164470186Y-112400186D01*
X164368729Y-112483448D01*
X164332991Y-112512778D01*
X164176466Y-112596443D01*
X164006627Y-112647963D01*
X163940442Y-112654482D01*
X163874260Y-112661000D01*
X163785740Y-112661000D01*
X163719558Y-112654482D01*
X163653373Y-112647963D01*
X163483534Y-112596443D01*
X163327009Y-112512778D01*
X163291271Y-112483448D01*
X163189814Y-112400186D01*
X163106552Y-112298729D01*
X163077222Y-112262991D01*
X162993557Y-112106466D01*
X162942037Y-111936627D01*
X162924641Y-111760000D01*
X162942037Y-111583373D01*
X162993557Y-111413534D01*
X163077222Y-111257009D01*
X163106552Y-111221271D01*
X163189814Y-111119814D01*
X163291271Y-111036552D01*
X163327009Y-111007222D01*
X163483534Y-110923557D01*
X163653373Y-110872037D01*
X163719558Y-110865518D01*
X163785740Y-110859000D01*
X163874260Y-110859000D01*
X163940442Y-110865518D01*
X163940442Y-110865518D01*
G37*
G36*
X166480442Y-110865518D02*
G01*
X166546627Y-110872037D01*
X166716466Y-110923557D01*
X166872991Y-111007222D01*
X166908729Y-111036552D01*
X167010186Y-111119814D01*
X167093448Y-111221271D01*
X167122778Y-111257009D01*
X167206443Y-111413534D01*
X167257963Y-111583373D01*
X167275359Y-111760000D01*
X167257963Y-111936627D01*
X167206443Y-112106466D01*
X167122778Y-112262991D01*
X167093448Y-112298729D01*
X167010186Y-112400186D01*
X166908729Y-112483448D01*
X166872991Y-112512778D01*
X166716466Y-112596443D01*
X166546627Y-112647963D01*
X166480442Y-112654482D01*
X166414260Y-112661000D01*
X166325740Y-112661000D01*
X166259558Y-112654482D01*
X166193373Y-112647963D01*
X166023534Y-112596443D01*
X165867009Y-112512778D01*
X165831271Y-112483448D01*
X165729814Y-112400186D01*
X165646552Y-112298729D01*
X165617222Y-112262991D01*
X165533557Y-112106466D01*
X165482037Y-111936627D01*
X165464641Y-111760000D01*
X165482037Y-111583373D01*
X165533557Y-111413534D01*
X165617222Y-111257009D01*
X165646552Y-111221271D01*
X165729814Y-111119814D01*
X165831271Y-111036552D01*
X165867009Y-111007222D01*
X166023534Y-110923557D01*
X166193373Y-110872037D01*
X166259558Y-110865518D01*
X166325740Y-110859000D01*
X166414260Y-110859000D01*
X166480442Y-110865518D01*
X166480442Y-110865518D01*
G37*
G36*
X158860442Y-110865518D02*
G01*
X158926627Y-110872037D01*
X159096466Y-110923557D01*
X159252991Y-111007222D01*
X159288729Y-111036552D01*
X159390186Y-111119814D01*
X159473448Y-111221271D01*
X159502778Y-111257009D01*
X159586443Y-111413534D01*
X159637963Y-111583373D01*
X159655359Y-111760000D01*
X159637963Y-111936627D01*
X159586443Y-112106466D01*
X159502778Y-112262991D01*
X159473448Y-112298729D01*
X159390186Y-112400186D01*
X159288729Y-112483448D01*
X159252991Y-112512778D01*
X159096466Y-112596443D01*
X158926627Y-112647963D01*
X158860442Y-112654482D01*
X158794260Y-112661000D01*
X158705740Y-112661000D01*
X158639558Y-112654482D01*
X158573373Y-112647963D01*
X158403534Y-112596443D01*
X158247009Y-112512778D01*
X158211271Y-112483448D01*
X158109814Y-112400186D01*
X158026552Y-112298729D01*
X157997222Y-112262991D01*
X157913557Y-112106466D01*
X157862037Y-111936627D01*
X157844641Y-111760000D01*
X157862037Y-111583373D01*
X157913557Y-111413534D01*
X157997222Y-111257009D01*
X158026552Y-111221271D01*
X158109814Y-111119814D01*
X158211271Y-111036552D01*
X158247009Y-111007222D01*
X158403534Y-110923557D01*
X158573373Y-110872037D01*
X158639558Y-110865518D01*
X158705740Y-110859000D01*
X158794260Y-110859000D01*
X158860442Y-110865518D01*
X158860442Y-110865518D01*
G37*
G36*
X188070442Y-110865518D02*
G01*
X188136627Y-110872037D01*
X188306466Y-110923557D01*
X188462991Y-111007222D01*
X188498729Y-111036552D01*
X188600186Y-111119814D01*
X188683448Y-111221271D01*
X188712778Y-111257009D01*
X188796443Y-111413534D01*
X188847963Y-111583373D01*
X188865359Y-111760000D01*
X188847963Y-111936627D01*
X188796443Y-112106466D01*
X188712778Y-112262991D01*
X188683448Y-112298729D01*
X188600186Y-112400186D01*
X188498729Y-112483448D01*
X188462991Y-112512778D01*
X188306466Y-112596443D01*
X188136627Y-112647963D01*
X188070442Y-112654482D01*
X188004260Y-112661000D01*
X187915740Y-112661000D01*
X187849558Y-112654482D01*
X187783373Y-112647963D01*
X187613534Y-112596443D01*
X187457009Y-112512778D01*
X187421271Y-112483448D01*
X187319814Y-112400186D01*
X187236552Y-112298729D01*
X187207222Y-112262991D01*
X187123557Y-112106466D01*
X187072037Y-111936627D01*
X187054641Y-111760000D01*
X187072037Y-111583373D01*
X187123557Y-111413534D01*
X187207222Y-111257009D01*
X187236552Y-111221271D01*
X187319814Y-111119814D01*
X187421271Y-111036552D01*
X187457009Y-111007222D01*
X187613534Y-110923557D01*
X187783373Y-110872037D01*
X187849558Y-110865518D01*
X187915740Y-110859000D01*
X188004260Y-110859000D01*
X188070442Y-110865518D01*
X188070442Y-110865518D01*
G37*
G36*
X161400442Y-110865518D02*
G01*
X161466627Y-110872037D01*
X161636466Y-110923557D01*
X161792991Y-111007222D01*
X161828729Y-111036552D01*
X161930186Y-111119814D01*
X162013448Y-111221271D01*
X162042778Y-111257009D01*
X162126443Y-111413534D01*
X162177963Y-111583373D01*
X162195359Y-111760000D01*
X162177963Y-111936627D01*
X162126443Y-112106466D01*
X162042778Y-112262991D01*
X162013448Y-112298729D01*
X161930186Y-112400186D01*
X161828729Y-112483448D01*
X161792991Y-112512778D01*
X161636466Y-112596443D01*
X161466627Y-112647963D01*
X161400442Y-112654482D01*
X161334260Y-112661000D01*
X161245740Y-112661000D01*
X161179558Y-112654482D01*
X161113373Y-112647963D01*
X160943534Y-112596443D01*
X160787009Y-112512778D01*
X160751271Y-112483448D01*
X160649814Y-112400186D01*
X160566552Y-112298729D01*
X160537222Y-112262991D01*
X160453557Y-112106466D01*
X160402037Y-111936627D01*
X160384641Y-111760000D01*
X160402037Y-111583373D01*
X160453557Y-111413534D01*
X160537222Y-111257009D01*
X160566552Y-111221271D01*
X160649814Y-111119814D01*
X160751271Y-111036552D01*
X160787009Y-111007222D01*
X160943534Y-110923557D01*
X161113373Y-110872037D01*
X161179558Y-110865518D01*
X161245740Y-110859000D01*
X161334260Y-110859000D01*
X161400442Y-110865518D01*
X161400442Y-110865518D01*
G37*
G36*
X125840442Y-110865518D02*
G01*
X125906627Y-110872037D01*
X126076466Y-110923557D01*
X126232991Y-111007222D01*
X126268729Y-111036552D01*
X126370186Y-111119814D01*
X126453448Y-111221271D01*
X126482778Y-111257009D01*
X126566443Y-111413534D01*
X126617963Y-111583373D01*
X126635359Y-111760000D01*
X126617963Y-111936627D01*
X126566443Y-112106466D01*
X126482778Y-112262991D01*
X126453448Y-112298729D01*
X126370186Y-112400186D01*
X126268729Y-112483448D01*
X126232991Y-112512778D01*
X126076466Y-112596443D01*
X125906627Y-112647963D01*
X125840442Y-112654482D01*
X125774260Y-112661000D01*
X125685740Y-112661000D01*
X125619558Y-112654482D01*
X125553373Y-112647963D01*
X125383534Y-112596443D01*
X125227009Y-112512778D01*
X125191271Y-112483448D01*
X125089814Y-112400186D01*
X125006552Y-112298729D01*
X124977222Y-112262991D01*
X124893557Y-112106466D01*
X124842037Y-111936627D01*
X124824641Y-111760000D01*
X124842037Y-111583373D01*
X124893557Y-111413534D01*
X124977222Y-111257009D01*
X125006552Y-111221271D01*
X125089814Y-111119814D01*
X125191271Y-111036552D01*
X125227009Y-111007222D01*
X125383534Y-110923557D01*
X125553373Y-110872037D01*
X125619558Y-110865518D01*
X125685740Y-110859000D01*
X125774260Y-110859000D01*
X125840442Y-110865518D01*
X125840442Y-110865518D01*
G37*
G36*
X153780442Y-110865518D02*
G01*
X153846627Y-110872037D01*
X154016466Y-110923557D01*
X154172991Y-111007222D01*
X154208729Y-111036552D01*
X154310186Y-111119814D01*
X154393448Y-111221271D01*
X154422778Y-111257009D01*
X154506443Y-111413534D01*
X154557963Y-111583373D01*
X154575359Y-111760000D01*
X154557963Y-111936627D01*
X154506443Y-112106466D01*
X154422778Y-112262991D01*
X154393448Y-112298729D01*
X154310186Y-112400186D01*
X154208729Y-112483448D01*
X154172991Y-112512778D01*
X154016466Y-112596443D01*
X153846627Y-112647963D01*
X153780442Y-112654482D01*
X153714260Y-112661000D01*
X153625740Y-112661000D01*
X153559558Y-112654482D01*
X153493373Y-112647963D01*
X153323534Y-112596443D01*
X153167009Y-112512778D01*
X153131271Y-112483448D01*
X153029814Y-112400186D01*
X152946552Y-112298729D01*
X152917222Y-112262991D01*
X152833557Y-112106466D01*
X152782037Y-111936627D01*
X152764641Y-111760000D01*
X152782037Y-111583373D01*
X152833557Y-111413534D01*
X152917222Y-111257009D01*
X152946552Y-111221271D01*
X153029814Y-111119814D01*
X153131271Y-111036552D01*
X153167009Y-111007222D01*
X153323534Y-110923557D01*
X153493373Y-110872037D01*
X153559558Y-110865518D01*
X153625740Y-110859000D01*
X153714260Y-110859000D01*
X153780442Y-110865518D01*
X153780442Y-110865518D01*
G37*
G36*
X151240442Y-110865518D02*
G01*
X151306627Y-110872037D01*
X151476466Y-110923557D01*
X151632991Y-111007222D01*
X151668729Y-111036552D01*
X151770186Y-111119814D01*
X151853448Y-111221271D01*
X151882778Y-111257009D01*
X151966443Y-111413534D01*
X152017963Y-111583373D01*
X152035359Y-111760000D01*
X152017963Y-111936627D01*
X151966443Y-112106466D01*
X151882778Y-112262991D01*
X151853448Y-112298729D01*
X151770186Y-112400186D01*
X151668729Y-112483448D01*
X151632991Y-112512778D01*
X151476466Y-112596443D01*
X151306627Y-112647963D01*
X151240442Y-112654482D01*
X151174260Y-112661000D01*
X151085740Y-112661000D01*
X151019558Y-112654482D01*
X150953373Y-112647963D01*
X150783534Y-112596443D01*
X150627009Y-112512778D01*
X150591271Y-112483448D01*
X150489814Y-112400186D01*
X150406552Y-112298729D01*
X150377222Y-112262991D01*
X150293557Y-112106466D01*
X150242037Y-111936627D01*
X150224641Y-111760000D01*
X150242037Y-111583373D01*
X150293557Y-111413534D01*
X150377222Y-111257009D01*
X150406552Y-111221271D01*
X150489814Y-111119814D01*
X150591271Y-111036552D01*
X150627009Y-111007222D01*
X150783534Y-110923557D01*
X150953373Y-110872037D01*
X151019558Y-110865518D01*
X151085740Y-110859000D01*
X151174260Y-110859000D01*
X151240442Y-110865518D01*
X151240442Y-110865518D01*
G37*
G36*
X149491000Y-112661000D02*
G01*
X147689000Y-112661000D01*
X147689000Y-110859000D01*
X149491000Y-110859000D01*
X149491000Y-112661000D01*
X149491000Y-112661000D01*
G37*
G36*
X156320442Y-110865518D02*
G01*
X156386627Y-110872037D01*
X156556466Y-110923557D01*
X156712991Y-111007222D01*
X156748729Y-111036552D01*
X156850186Y-111119814D01*
X156933448Y-111221271D01*
X156962778Y-111257009D01*
X157046443Y-111413534D01*
X157097963Y-111583373D01*
X157115359Y-111760000D01*
X157097963Y-111936627D01*
X157046443Y-112106466D01*
X156962778Y-112262991D01*
X156933448Y-112298729D01*
X156850186Y-112400186D01*
X156748729Y-112483448D01*
X156712991Y-112512778D01*
X156556466Y-112596443D01*
X156386627Y-112647963D01*
X156320442Y-112654482D01*
X156254260Y-112661000D01*
X156165740Y-112661000D01*
X156099558Y-112654482D01*
X156033373Y-112647963D01*
X155863534Y-112596443D01*
X155707009Y-112512778D01*
X155671271Y-112483448D01*
X155569814Y-112400186D01*
X155486552Y-112298729D01*
X155457222Y-112262991D01*
X155373557Y-112106466D01*
X155322037Y-111936627D01*
X155304641Y-111760000D01*
X155322037Y-111583373D01*
X155373557Y-111413534D01*
X155457222Y-111257009D01*
X155486552Y-111221271D01*
X155569814Y-111119814D01*
X155671271Y-111036552D01*
X155707009Y-111007222D01*
X155863534Y-110923557D01*
X156033373Y-110872037D01*
X156099558Y-110865518D01*
X156165740Y-110859000D01*
X156254260Y-110859000D01*
X156320442Y-110865518D01*
X156320442Y-110865518D01*
G37*
G36*
X188070443Y-108325519D02*
G01*
X188136627Y-108332037D01*
X188306466Y-108383557D01*
X188462991Y-108467222D01*
X188498729Y-108496552D01*
X188600186Y-108579814D01*
X188683448Y-108681271D01*
X188712778Y-108717009D01*
X188796443Y-108873534D01*
X188847963Y-109043373D01*
X188865359Y-109220000D01*
X188847963Y-109396627D01*
X188796443Y-109566466D01*
X188712778Y-109722991D01*
X188683448Y-109758729D01*
X188600186Y-109860186D01*
X188498729Y-109943448D01*
X188462991Y-109972778D01*
X188306466Y-110056443D01*
X188136627Y-110107963D01*
X188070443Y-110114481D01*
X188004260Y-110121000D01*
X187915740Y-110121000D01*
X187849557Y-110114481D01*
X187783373Y-110107963D01*
X187613534Y-110056443D01*
X187457009Y-109972778D01*
X187421271Y-109943448D01*
X187319814Y-109860186D01*
X187236552Y-109758729D01*
X187207222Y-109722991D01*
X187123557Y-109566466D01*
X187072037Y-109396627D01*
X187054641Y-109220000D01*
X187072037Y-109043373D01*
X187123557Y-108873534D01*
X187207222Y-108717009D01*
X187236552Y-108681271D01*
X187319814Y-108579814D01*
X187421271Y-108496552D01*
X187457009Y-108467222D01*
X187613534Y-108383557D01*
X187783373Y-108332037D01*
X187849557Y-108325519D01*
X187915740Y-108319000D01*
X188004260Y-108319000D01*
X188070443Y-108325519D01*
X188070443Y-108325519D01*
G37*
G36*
X125840443Y-108325519D02*
G01*
X125906627Y-108332037D01*
X126076466Y-108383557D01*
X126232991Y-108467222D01*
X126268729Y-108496552D01*
X126370186Y-108579814D01*
X126453448Y-108681271D01*
X126482778Y-108717009D01*
X126566443Y-108873534D01*
X126617963Y-109043373D01*
X126635359Y-109220000D01*
X126617963Y-109396627D01*
X126566443Y-109566466D01*
X126482778Y-109722991D01*
X126453448Y-109758729D01*
X126370186Y-109860186D01*
X126268729Y-109943448D01*
X126232991Y-109972778D01*
X126076466Y-110056443D01*
X125906627Y-110107963D01*
X125840443Y-110114481D01*
X125774260Y-110121000D01*
X125685740Y-110121000D01*
X125619557Y-110114481D01*
X125553373Y-110107963D01*
X125383534Y-110056443D01*
X125227009Y-109972778D01*
X125191271Y-109943448D01*
X125089814Y-109860186D01*
X125006552Y-109758729D01*
X124977222Y-109722991D01*
X124893557Y-109566466D01*
X124842037Y-109396627D01*
X124824641Y-109220000D01*
X124842037Y-109043373D01*
X124893557Y-108873534D01*
X124977222Y-108717009D01*
X125006552Y-108681271D01*
X125089814Y-108579814D01*
X125191271Y-108496552D01*
X125227009Y-108467222D01*
X125383534Y-108383557D01*
X125553373Y-108332037D01*
X125619557Y-108325519D01*
X125685740Y-108319000D01*
X125774260Y-108319000D01*
X125840443Y-108325519D01*
X125840443Y-108325519D01*
G37*
G36*
X125840443Y-105785519D02*
G01*
X125906627Y-105792037D01*
X126076466Y-105843557D01*
X126232991Y-105927222D01*
X126268729Y-105956552D01*
X126370186Y-106039814D01*
X126453448Y-106141271D01*
X126482778Y-106177009D01*
X126566443Y-106333534D01*
X126617963Y-106503373D01*
X126635359Y-106680000D01*
X126617963Y-106856627D01*
X126566443Y-107026466D01*
X126482778Y-107182991D01*
X126453448Y-107218729D01*
X126370186Y-107320186D01*
X126268729Y-107403448D01*
X126232991Y-107432778D01*
X126076466Y-107516443D01*
X125906627Y-107567963D01*
X125840443Y-107574481D01*
X125774260Y-107581000D01*
X125685740Y-107581000D01*
X125619557Y-107574481D01*
X125553373Y-107567963D01*
X125383534Y-107516443D01*
X125227009Y-107432778D01*
X125191271Y-107403448D01*
X125089814Y-107320186D01*
X125006552Y-107218729D01*
X124977222Y-107182991D01*
X124893557Y-107026466D01*
X124842037Y-106856627D01*
X124824641Y-106680000D01*
X124842037Y-106503373D01*
X124893557Y-106333534D01*
X124977222Y-106177009D01*
X125006552Y-106141271D01*
X125089814Y-106039814D01*
X125191271Y-105956552D01*
X125227009Y-105927222D01*
X125383534Y-105843557D01*
X125553373Y-105792037D01*
X125619557Y-105785519D01*
X125685740Y-105779000D01*
X125774260Y-105779000D01*
X125840443Y-105785519D01*
X125840443Y-105785519D01*
G37*
G36*
X188070443Y-105785519D02*
G01*
X188136627Y-105792037D01*
X188306466Y-105843557D01*
X188462991Y-105927222D01*
X188498729Y-105956552D01*
X188600186Y-106039814D01*
X188683448Y-106141271D01*
X188712778Y-106177009D01*
X188796443Y-106333534D01*
X188847963Y-106503373D01*
X188865359Y-106680000D01*
X188847963Y-106856627D01*
X188796443Y-107026466D01*
X188712778Y-107182991D01*
X188683448Y-107218729D01*
X188600186Y-107320186D01*
X188498729Y-107403448D01*
X188462991Y-107432778D01*
X188306466Y-107516443D01*
X188136627Y-107567963D01*
X188070443Y-107574481D01*
X188004260Y-107581000D01*
X187915740Y-107581000D01*
X187849557Y-107574481D01*
X187783373Y-107567963D01*
X187613534Y-107516443D01*
X187457009Y-107432778D01*
X187421271Y-107403448D01*
X187319814Y-107320186D01*
X187236552Y-107218729D01*
X187207222Y-107182991D01*
X187123557Y-107026466D01*
X187072037Y-106856627D01*
X187054641Y-106680000D01*
X187072037Y-106503373D01*
X187123557Y-106333534D01*
X187207222Y-106177009D01*
X187236552Y-106141271D01*
X187319814Y-106039814D01*
X187421271Y-105956552D01*
X187457009Y-105927222D01*
X187613534Y-105843557D01*
X187783373Y-105792037D01*
X187849557Y-105785519D01*
X187915740Y-105779000D01*
X188004260Y-105779000D01*
X188070443Y-105785519D01*
X188070443Y-105785519D01*
G37*
G36*
X126631000Y-105041000D02*
G01*
X124829000Y-105041000D01*
X124829000Y-103239000D01*
X126631000Y-103239000D01*
X126631000Y-105041000D01*
X126631000Y-105041000D01*
G37*
G36*
X188070443Y-103245519D02*
G01*
X188136627Y-103252037D01*
X188306466Y-103303557D01*
X188306468Y-103303558D01*
X188370468Y-103337767D01*
X188462991Y-103387222D01*
X188498729Y-103416552D01*
X188600186Y-103499814D01*
X188683448Y-103601271D01*
X188712778Y-103637009D01*
X188796443Y-103793534D01*
X188847963Y-103963373D01*
X188865359Y-104140000D01*
X188847963Y-104316627D01*
X188796443Y-104486466D01*
X188712778Y-104642991D01*
X188683448Y-104678729D01*
X188600186Y-104780186D01*
X188498729Y-104863448D01*
X188462991Y-104892778D01*
X188306466Y-104976443D01*
X188136627Y-105027963D01*
X188070442Y-105034482D01*
X188004260Y-105041000D01*
X187915740Y-105041000D01*
X187849557Y-105034481D01*
X187783373Y-105027963D01*
X187613534Y-104976443D01*
X187457009Y-104892778D01*
X187421271Y-104863448D01*
X187319814Y-104780186D01*
X187236552Y-104678729D01*
X187207222Y-104642991D01*
X187123557Y-104486466D01*
X187072037Y-104316627D01*
X187054641Y-104140000D01*
X187072037Y-103963373D01*
X187123557Y-103793534D01*
X187207222Y-103637009D01*
X187236552Y-103601271D01*
X187319814Y-103499814D01*
X187421271Y-103416552D01*
X187457009Y-103387222D01*
X187549532Y-103337767D01*
X187613532Y-103303558D01*
X187613534Y-103303557D01*
X187783373Y-103252037D01*
X187849558Y-103245518D01*
X187915740Y-103239000D01*
X188004260Y-103239000D01*
X188070443Y-103245519D01*
X188070443Y-103245519D01*
G37*
G36*
X141211000Y-104051000D02*
G01*
X139409000Y-104051000D01*
X139409000Y-102949000D01*
X141211000Y-102949000D01*
X141211000Y-104051000D01*
X141211000Y-104051000D01*
G37*
G36*
X134911000Y-104051000D02*
G01*
X133109000Y-104051000D01*
X133109000Y-102949000D01*
X134911000Y-102949000D01*
X134911000Y-104051000D01*
X134911000Y-104051000D01*
G37*
G36*
X169636975Y-101699006D02*
G01*
X169810046Y-101770694D01*
X169810047Y-101770695D01*
X169965807Y-101874770D01*
X170098270Y-102007233D01*
X170109738Y-102024396D01*
X170202346Y-102162994D01*
X170274034Y-102336065D01*
X170310580Y-102519793D01*
X170310580Y-102707127D01*
X170274034Y-102890855D01*
X170202346Y-103063926D01*
X170150661Y-103141278D01*
X170098270Y-103219687D01*
X169965807Y-103352150D01*
X169913319Y-103387221D01*
X169810046Y-103456226D01*
X169636975Y-103527914D01*
X169453247Y-103564460D01*
X169265913Y-103564460D01*
X169082185Y-103527914D01*
X168909114Y-103456226D01*
X168805841Y-103387221D01*
X168753353Y-103352150D01*
X168620890Y-103219687D01*
X168568499Y-103141278D01*
X168516814Y-103063926D01*
X168445126Y-102890855D01*
X168408580Y-102707127D01*
X168408580Y-102519793D01*
X168445126Y-102336065D01*
X168516814Y-102162994D01*
X168609422Y-102024396D01*
X168620890Y-102007233D01*
X168753353Y-101874770D01*
X168909113Y-101770695D01*
X168909114Y-101770694D01*
X169082185Y-101699006D01*
X169265913Y-101662460D01*
X169453247Y-101662460D01*
X169636975Y-101699006D01*
X169636975Y-101699006D01*
G37*
G36*
X165612064Y-102023547D02*
G01*
X165648604Y-102034632D01*
X165682281Y-102052633D01*
X165711801Y-102076859D01*
X165736027Y-102106379D01*
X165754028Y-102140056D01*
X165765113Y-102176596D01*
X165769460Y-102220738D01*
X165769460Y-103169662D01*
X165765113Y-103213804D01*
X165754028Y-103250344D01*
X165736027Y-103284021D01*
X165711801Y-103313541D01*
X165682281Y-103337767D01*
X165648604Y-103355768D01*
X165612064Y-103366853D01*
X165567922Y-103371200D01*
X164118998Y-103371200D01*
X164074856Y-103366853D01*
X164038316Y-103355768D01*
X164004639Y-103337767D01*
X163975119Y-103313541D01*
X163950893Y-103284021D01*
X163932892Y-103250344D01*
X163921807Y-103213804D01*
X163917460Y-103169662D01*
X163917460Y-102220738D01*
X163921807Y-102176596D01*
X163932892Y-102140056D01*
X163950893Y-102106379D01*
X163975119Y-102076859D01*
X164004639Y-102052633D01*
X164038316Y-102034632D01*
X164074856Y-102023547D01*
X164118998Y-102019200D01*
X165567922Y-102019200D01*
X165612064Y-102023547D01*
X165612064Y-102023547D01*
G37*
G36*
X176905256Y-99991298D02*
G01*
X177011579Y-100012447D01*
X177172066Y-100078923D01*
X177297888Y-100131040D01*
X177312042Y-100136903D01*
X177582451Y-100317585D01*
X177812415Y-100547549D01*
X177993097Y-100817958D01*
X178117553Y-101118421D01*
X178138269Y-101222567D01*
X178176177Y-101413140D01*
X178181000Y-101437391D01*
X178181000Y-101762609D01*
X178117553Y-102081579D01*
X177993097Y-102382042D01*
X177812415Y-102652451D01*
X177582451Y-102882415D01*
X177312042Y-103063097D01*
X177312041Y-103063098D01*
X177312040Y-103063098D01*
X177224037Y-103099550D01*
X177011579Y-103187553D01*
X176905256Y-103208702D01*
X176692611Y-103251000D01*
X176367389Y-103251000D01*
X176154744Y-103208702D01*
X176048421Y-103187553D01*
X175835963Y-103099550D01*
X175747960Y-103063098D01*
X175747959Y-103063098D01*
X175747958Y-103063097D01*
X175477549Y-102882415D01*
X175247585Y-102652451D01*
X175066903Y-102382042D01*
X174942447Y-102081579D01*
X174879000Y-101762609D01*
X174879000Y-101437391D01*
X174883824Y-101413140D01*
X174921731Y-101222567D01*
X174942447Y-101118421D01*
X175066903Y-100817958D01*
X175247585Y-100547549D01*
X175477549Y-100317585D01*
X175747958Y-100136903D01*
X175762113Y-100131040D01*
X175887934Y-100078923D01*
X176048421Y-100012447D01*
X176154744Y-99991298D01*
X176367389Y-99949000D01*
X176692611Y-99949000D01*
X176905256Y-99991298D01*
X176905256Y-99991298D01*
G37*
G36*
X152630295Y-101370323D02*
G01*
X152637309Y-101372451D01*
X152651077Y-101379810D01*
X152673716Y-101389187D01*
X152697749Y-101393967D01*
X152722253Y-101393967D01*
X152746286Y-101389186D01*
X152768923Y-101379810D01*
X152782691Y-101372451D01*
X152789705Y-101370323D01*
X152803140Y-101369000D01*
X153116860Y-101369000D01*
X153130295Y-101370323D01*
X153137309Y-101372451D01*
X153151077Y-101379810D01*
X153173716Y-101389187D01*
X153197749Y-101393967D01*
X153222253Y-101393967D01*
X153246286Y-101389186D01*
X153268923Y-101379810D01*
X153282691Y-101372451D01*
X153289705Y-101370323D01*
X153303140Y-101369000D01*
X153616860Y-101369000D01*
X153630295Y-101370323D01*
X153637309Y-101372451D01*
X153651077Y-101379810D01*
X153673716Y-101389187D01*
X153697749Y-101393967D01*
X153722253Y-101393967D01*
X153746286Y-101389186D01*
X153768923Y-101379810D01*
X153782691Y-101372451D01*
X153789705Y-101370323D01*
X153803140Y-101369000D01*
X154116860Y-101369000D01*
X154130295Y-101370323D01*
X154137309Y-101372451D01*
X154151077Y-101379810D01*
X154173716Y-101389187D01*
X154197749Y-101393967D01*
X154222253Y-101393967D01*
X154246286Y-101389186D01*
X154268923Y-101379810D01*
X154282691Y-101372451D01*
X154289705Y-101370323D01*
X154303140Y-101369000D01*
X154616860Y-101369000D01*
X154630295Y-101370323D01*
X154637309Y-101372451D01*
X154651077Y-101379810D01*
X154673716Y-101389187D01*
X154697749Y-101393967D01*
X154722253Y-101393967D01*
X154746286Y-101389186D01*
X154768923Y-101379810D01*
X154782691Y-101372451D01*
X154789705Y-101370323D01*
X154803140Y-101369000D01*
X155116860Y-101369000D01*
X155130295Y-101370323D01*
X155137309Y-101372451D01*
X155151077Y-101379810D01*
X155173716Y-101389187D01*
X155197749Y-101393967D01*
X155222253Y-101393967D01*
X155246286Y-101389186D01*
X155268923Y-101379810D01*
X155282691Y-101372451D01*
X155289705Y-101370323D01*
X155303140Y-101369000D01*
X155616860Y-101369000D01*
X155630295Y-101370323D01*
X155637309Y-101372451D01*
X155651077Y-101379810D01*
X155673716Y-101389187D01*
X155697749Y-101393967D01*
X155722253Y-101393967D01*
X155746286Y-101389186D01*
X155768923Y-101379810D01*
X155782691Y-101372451D01*
X155789705Y-101370323D01*
X155803140Y-101369000D01*
X156116860Y-101369000D01*
X156130295Y-101370323D01*
X156137309Y-101372451D01*
X156151077Y-101379810D01*
X156173716Y-101389187D01*
X156197749Y-101393967D01*
X156222253Y-101393967D01*
X156246286Y-101389186D01*
X156268923Y-101379810D01*
X156282691Y-101372451D01*
X156289705Y-101370323D01*
X156303140Y-101369000D01*
X156616860Y-101369000D01*
X156630295Y-101370323D01*
X156637309Y-101372451D01*
X156651077Y-101379810D01*
X156673716Y-101389187D01*
X156697749Y-101393967D01*
X156722253Y-101393967D01*
X156746286Y-101389186D01*
X156768923Y-101379810D01*
X156782691Y-101372451D01*
X156789705Y-101370323D01*
X156803140Y-101369000D01*
X157116860Y-101369000D01*
X157130295Y-101370323D01*
X157137309Y-101372451D01*
X157151077Y-101379810D01*
X157173716Y-101389187D01*
X157197749Y-101393967D01*
X157222253Y-101393967D01*
X157246286Y-101389186D01*
X157268923Y-101379810D01*
X157282691Y-101372451D01*
X157289705Y-101370323D01*
X157303140Y-101369000D01*
X157616860Y-101369000D01*
X157630295Y-101370323D01*
X157637309Y-101372451D01*
X157651077Y-101379810D01*
X157673716Y-101389187D01*
X157697749Y-101393967D01*
X157722253Y-101393967D01*
X157746286Y-101389186D01*
X157768923Y-101379810D01*
X157782691Y-101372451D01*
X157789705Y-101370323D01*
X157803140Y-101369000D01*
X158116860Y-101369000D01*
X158130295Y-101370323D01*
X158137309Y-101372451D01*
X158151077Y-101379810D01*
X158173716Y-101389187D01*
X158197749Y-101393967D01*
X158222253Y-101393967D01*
X158246286Y-101389186D01*
X158268923Y-101379810D01*
X158282691Y-101372451D01*
X158289705Y-101370323D01*
X158303140Y-101369000D01*
X158616860Y-101369000D01*
X158630295Y-101370323D01*
X158637309Y-101372451D01*
X158651077Y-101379810D01*
X158673716Y-101389187D01*
X158697749Y-101393967D01*
X158722253Y-101393967D01*
X158746286Y-101389186D01*
X158768923Y-101379810D01*
X158782691Y-101372451D01*
X158789705Y-101370323D01*
X158803140Y-101369000D01*
X159116860Y-101369000D01*
X159130295Y-101370323D01*
X159137309Y-101372451D01*
X159151077Y-101379810D01*
X159173716Y-101389187D01*
X159197749Y-101393967D01*
X159222253Y-101393967D01*
X159246286Y-101389186D01*
X159268923Y-101379810D01*
X159282691Y-101372451D01*
X159289705Y-101370323D01*
X159303140Y-101369000D01*
X159616860Y-101369000D01*
X159630295Y-101370323D01*
X159637309Y-101372451D01*
X159651077Y-101379810D01*
X159673716Y-101389187D01*
X159697749Y-101393967D01*
X159722253Y-101393967D01*
X159746286Y-101389186D01*
X159768923Y-101379810D01*
X159782691Y-101372451D01*
X159789705Y-101370323D01*
X159803140Y-101369000D01*
X160116860Y-101369000D01*
X160130295Y-101370323D01*
X160137310Y-101372451D01*
X160143776Y-101375908D01*
X160149442Y-101380558D01*
X160154092Y-101386224D01*
X160157549Y-101392690D01*
X160159677Y-101399705D01*
X160161000Y-101413140D01*
X160161000Y-102976860D01*
X160159677Y-102990295D01*
X160157549Y-102997310D01*
X160154092Y-103003776D01*
X160149442Y-103009442D01*
X160143776Y-103014092D01*
X160137310Y-103017549D01*
X160130295Y-103019677D01*
X160116860Y-103021000D01*
X159803140Y-103021000D01*
X159789705Y-103019677D01*
X159782691Y-103017549D01*
X159768923Y-103010190D01*
X159746284Y-103000813D01*
X159722251Y-102996033D01*
X159697747Y-102996033D01*
X159673714Y-103000814D01*
X159651077Y-103010190D01*
X159637309Y-103017549D01*
X159630295Y-103019677D01*
X159616860Y-103021000D01*
X159303140Y-103021000D01*
X159289705Y-103019677D01*
X159282691Y-103017549D01*
X159268923Y-103010190D01*
X159246284Y-103000813D01*
X159222251Y-102996033D01*
X159197747Y-102996033D01*
X159173714Y-103000814D01*
X159151077Y-103010190D01*
X159137309Y-103017549D01*
X159130295Y-103019677D01*
X159116860Y-103021000D01*
X158803140Y-103021000D01*
X158789705Y-103019677D01*
X158782691Y-103017549D01*
X158768923Y-103010190D01*
X158746284Y-103000813D01*
X158722251Y-102996033D01*
X158697747Y-102996033D01*
X158673714Y-103000814D01*
X158651077Y-103010190D01*
X158637309Y-103017549D01*
X158630295Y-103019677D01*
X158616860Y-103021000D01*
X158303140Y-103021000D01*
X158289705Y-103019677D01*
X158282691Y-103017549D01*
X158268923Y-103010190D01*
X158246284Y-103000813D01*
X158222251Y-102996033D01*
X158197747Y-102996033D01*
X158173714Y-103000814D01*
X158151077Y-103010190D01*
X158137309Y-103017549D01*
X158130295Y-103019677D01*
X158116860Y-103021000D01*
X157803140Y-103021000D01*
X157789705Y-103019677D01*
X157782691Y-103017549D01*
X157768923Y-103010190D01*
X157746284Y-103000813D01*
X157722251Y-102996033D01*
X157697747Y-102996033D01*
X157673714Y-103000814D01*
X157651077Y-103010190D01*
X157637309Y-103017549D01*
X157630295Y-103019677D01*
X157616860Y-103021000D01*
X157303140Y-103021000D01*
X157289705Y-103019677D01*
X157282691Y-103017549D01*
X157268923Y-103010190D01*
X157246284Y-103000813D01*
X157222251Y-102996033D01*
X157197747Y-102996033D01*
X157173714Y-103000814D01*
X157151077Y-103010190D01*
X157137309Y-103017549D01*
X157130295Y-103019677D01*
X157116860Y-103021000D01*
X156803140Y-103021000D01*
X156789705Y-103019677D01*
X156782691Y-103017549D01*
X156768923Y-103010190D01*
X156746284Y-103000813D01*
X156722251Y-102996033D01*
X156697747Y-102996033D01*
X156673714Y-103000814D01*
X156651077Y-103010190D01*
X156637309Y-103017549D01*
X156630295Y-103019677D01*
X156616860Y-103021000D01*
X156303140Y-103021000D01*
X156289705Y-103019677D01*
X156282691Y-103017549D01*
X156268923Y-103010190D01*
X156246284Y-103000813D01*
X156222251Y-102996033D01*
X156197747Y-102996033D01*
X156173714Y-103000814D01*
X156151077Y-103010190D01*
X156137309Y-103017549D01*
X156130295Y-103019677D01*
X156116860Y-103021000D01*
X155803140Y-103021000D01*
X155789705Y-103019677D01*
X155782691Y-103017549D01*
X155768923Y-103010190D01*
X155746284Y-103000813D01*
X155722251Y-102996033D01*
X155697747Y-102996033D01*
X155673714Y-103000814D01*
X155651077Y-103010190D01*
X155637309Y-103017549D01*
X155630295Y-103019677D01*
X155616860Y-103021000D01*
X155303140Y-103021000D01*
X155289705Y-103019677D01*
X155282691Y-103017549D01*
X155268923Y-103010190D01*
X155246284Y-103000813D01*
X155222251Y-102996033D01*
X155197747Y-102996033D01*
X155173714Y-103000814D01*
X155151077Y-103010190D01*
X155137309Y-103017549D01*
X155130295Y-103019677D01*
X155116860Y-103021000D01*
X154803140Y-103021000D01*
X154789705Y-103019677D01*
X154782691Y-103017549D01*
X154768923Y-103010190D01*
X154746284Y-103000813D01*
X154722251Y-102996033D01*
X154697747Y-102996033D01*
X154673714Y-103000814D01*
X154651077Y-103010190D01*
X154637309Y-103017549D01*
X154630295Y-103019677D01*
X154616860Y-103021000D01*
X154303140Y-103021000D01*
X154289705Y-103019677D01*
X154282691Y-103017549D01*
X154268923Y-103010190D01*
X154246284Y-103000813D01*
X154222251Y-102996033D01*
X154197747Y-102996033D01*
X154173714Y-103000814D01*
X154151077Y-103010190D01*
X154137309Y-103017549D01*
X154130295Y-103019677D01*
X154116860Y-103021000D01*
X153803140Y-103021000D01*
X153789705Y-103019677D01*
X153782691Y-103017549D01*
X153768923Y-103010190D01*
X153746284Y-103000813D01*
X153722251Y-102996033D01*
X153697747Y-102996033D01*
X153673714Y-103000814D01*
X153651077Y-103010190D01*
X153637309Y-103017549D01*
X153630295Y-103019677D01*
X153616860Y-103021000D01*
X153303140Y-103021000D01*
X153289705Y-103019677D01*
X153282691Y-103017549D01*
X153268923Y-103010190D01*
X153246284Y-103000813D01*
X153222251Y-102996033D01*
X153197747Y-102996033D01*
X153173714Y-103000814D01*
X153151077Y-103010190D01*
X153137309Y-103017549D01*
X153130295Y-103019677D01*
X153116860Y-103021000D01*
X152803140Y-103021000D01*
X152789705Y-103019677D01*
X152782691Y-103017549D01*
X152768923Y-103010190D01*
X152746284Y-103000813D01*
X152722251Y-102996033D01*
X152697747Y-102996033D01*
X152673714Y-103000814D01*
X152651077Y-103010190D01*
X152637309Y-103017549D01*
X152630295Y-103019677D01*
X152616860Y-103021000D01*
X152303140Y-103021000D01*
X152289705Y-103019677D01*
X152282690Y-103017549D01*
X152276224Y-103014092D01*
X152270558Y-103009442D01*
X152265908Y-103003776D01*
X152262451Y-102997310D01*
X152260323Y-102990295D01*
X152259000Y-102976860D01*
X152259000Y-101413140D01*
X152260323Y-101399705D01*
X152262451Y-101392690D01*
X152265908Y-101386224D01*
X152270558Y-101380558D01*
X152276224Y-101375908D01*
X152282690Y-101372451D01*
X152289705Y-101370323D01*
X152303140Y-101369000D01*
X152616860Y-101369000D01*
X152630295Y-101370323D01*
X152630295Y-101370323D01*
G37*
G36*
X146698604Y-99408347D02*
G01*
X146735144Y-99419432D01*
X146768821Y-99437433D01*
X146798341Y-99461659D01*
X146822567Y-99491179D01*
X146840568Y-99524856D01*
X146851653Y-99561396D01*
X146856000Y-99605538D01*
X146856000Y-101054462D01*
X146851653Y-101098604D01*
X146840568Y-101135144D01*
X146822567Y-101168821D01*
X146798341Y-101198341D01*
X146768821Y-101222567D01*
X146735144Y-101240568D01*
X146698604Y-101251653D01*
X146654462Y-101256000D01*
X145705538Y-101256000D01*
X145661396Y-101251653D01*
X145624856Y-101240568D01*
X145591179Y-101222567D01*
X145561659Y-101198341D01*
X145537433Y-101168821D01*
X145519432Y-101135144D01*
X145508347Y-101098604D01*
X145504000Y-101054462D01*
X145504000Y-99605538D01*
X145508347Y-99561396D01*
X145519432Y-99524856D01*
X145537433Y-99491179D01*
X145561659Y-99461659D01*
X145591179Y-99437433D01*
X145624856Y-99419432D01*
X145661396Y-99408347D01*
X145705538Y-99404000D01*
X146654462Y-99404000D01*
X146698604Y-99408347D01*
X146698604Y-99408347D01*
G37*
G36*
X143898604Y-99408347D02*
G01*
X143935144Y-99419432D01*
X143968821Y-99437433D01*
X143998341Y-99461659D01*
X144022567Y-99491179D01*
X144040568Y-99524856D01*
X144051653Y-99561396D01*
X144056000Y-99605538D01*
X144056000Y-101054462D01*
X144051653Y-101098604D01*
X144040568Y-101135144D01*
X144022567Y-101168821D01*
X143998341Y-101198341D01*
X143968821Y-101222567D01*
X143935144Y-101240568D01*
X143898604Y-101251653D01*
X143854462Y-101256000D01*
X142905538Y-101256000D01*
X142861396Y-101251653D01*
X142824856Y-101240568D01*
X142791179Y-101222567D01*
X142761659Y-101198341D01*
X142737433Y-101168821D01*
X142719432Y-101135144D01*
X142708347Y-101098604D01*
X142704000Y-101054462D01*
X142704000Y-99605538D01*
X142708347Y-99561396D01*
X142719432Y-99524856D01*
X142737433Y-99491179D01*
X142761659Y-99461659D01*
X142791179Y-99437433D01*
X142824856Y-99419432D01*
X142861396Y-99408347D01*
X142905538Y-99404000D01*
X143854462Y-99404000D01*
X143898604Y-99408347D01*
X143898604Y-99408347D01*
G37*
G36*
X170310580Y-101024460D02*
G01*
X168408580Y-101024460D01*
X168408580Y-99122460D01*
X170310580Y-99122460D01*
X170310580Y-101024460D01*
X170310580Y-101024460D01*
G37*
G36*
X165612064Y-99223547D02*
G01*
X165648604Y-99234632D01*
X165682281Y-99252633D01*
X165711801Y-99276859D01*
X165736027Y-99306379D01*
X165754028Y-99340056D01*
X165765113Y-99376596D01*
X165769460Y-99420738D01*
X165769460Y-100369662D01*
X165765113Y-100413804D01*
X165754028Y-100450344D01*
X165736027Y-100484021D01*
X165711801Y-100513541D01*
X165682281Y-100537767D01*
X165648604Y-100555768D01*
X165612064Y-100566853D01*
X165567922Y-100571200D01*
X164118998Y-100571200D01*
X164074856Y-100566853D01*
X164038316Y-100555768D01*
X164004639Y-100537767D01*
X163975119Y-100513541D01*
X163950893Y-100484021D01*
X163932892Y-100450344D01*
X163921807Y-100413804D01*
X163917460Y-100369662D01*
X163917460Y-99420738D01*
X163921807Y-99376596D01*
X163932892Y-99340056D01*
X163950893Y-99306379D01*
X163975119Y-99276859D01*
X164004639Y-99252633D01*
X164038316Y-99234632D01*
X164074856Y-99223547D01*
X164118998Y-99219200D01*
X165567922Y-99219200D01*
X165612064Y-99223547D01*
X165612064Y-99223547D01*
G37*
G36*
X151330295Y-92570323D02*
G01*
X151337310Y-92572451D01*
X151343776Y-92575908D01*
X151349442Y-92580558D01*
X151354092Y-92586224D01*
X151357549Y-92592690D01*
X151359677Y-92599705D01*
X151361000Y-92613140D01*
X151361000Y-92926860D01*
X151359677Y-92940295D01*
X151357549Y-92947309D01*
X151350190Y-92961077D01*
X151340813Y-92983716D01*
X151336033Y-93007749D01*
X151336033Y-93032253D01*
X151340814Y-93056286D01*
X151350190Y-93078923D01*
X151357549Y-93092691D01*
X151359677Y-93099705D01*
X151361000Y-93113140D01*
X151361000Y-93426860D01*
X151359677Y-93440295D01*
X151357549Y-93447309D01*
X151350190Y-93461077D01*
X151340813Y-93483716D01*
X151336033Y-93507749D01*
X151336033Y-93532253D01*
X151340814Y-93556286D01*
X151350190Y-93578923D01*
X151357549Y-93592691D01*
X151359677Y-93599705D01*
X151361000Y-93613140D01*
X151361000Y-93926860D01*
X151359677Y-93940295D01*
X151357549Y-93947309D01*
X151350190Y-93961077D01*
X151340813Y-93983716D01*
X151336033Y-94007749D01*
X151336033Y-94032253D01*
X151340814Y-94056286D01*
X151350190Y-94078923D01*
X151357549Y-94092691D01*
X151359677Y-94099705D01*
X151361000Y-94113140D01*
X151361000Y-94426860D01*
X151359677Y-94440295D01*
X151357549Y-94447309D01*
X151350190Y-94461077D01*
X151340813Y-94483716D01*
X151336033Y-94507749D01*
X151336033Y-94532253D01*
X151340814Y-94556286D01*
X151350190Y-94578923D01*
X151357549Y-94592691D01*
X151359677Y-94599705D01*
X151361000Y-94613140D01*
X151361000Y-94926860D01*
X151359677Y-94940295D01*
X151357549Y-94947309D01*
X151350190Y-94961077D01*
X151340813Y-94983716D01*
X151336033Y-95007749D01*
X151336033Y-95032253D01*
X151340814Y-95056286D01*
X151350190Y-95078923D01*
X151357549Y-95092691D01*
X151359677Y-95099705D01*
X151361000Y-95113140D01*
X151361000Y-95426860D01*
X151359677Y-95440295D01*
X151357549Y-95447309D01*
X151350190Y-95461077D01*
X151340813Y-95483716D01*
X151336033Y-95507749D01*
X151336033Y-95532253D01*
X151340814Y-95556286D01*
X151350190Y-95578923D01*
X151357549Y-95592691D01*
X151359677Y-95599705D01*
X151361000Y-95613140D01*
X151361000Y-95926860D01*
X151359677Y-95940295D01*
X151357549Y-95947309D01*
X151350190Y-95961077D01*
X151340813Y-95983716D01*
X151336033Y-96007749D01*
X151336033Y-96032253D01*
X151340814Y-96056286D01*
X151350190Y-96078923D01*
X151357549Y-96092691D01*
X151359677Y-96099705D01*
X151361000Y-96113140D01*
X151361000Y-96426860D01*
X151359677Y-96440295D01*
X151357549Y-96447309D01*
X151350190Y-96461077D01*
X151340813Y-96483716D01*
X151336033Y-96507749D01*
X151336033Y-96532253D01*
X151340814Y-96556286D01*
X151350190Y-96578923D01*
X151357549Y-96592691D01*
X151359677Y-96599705D01*
X151361000Y-96613140D01*
X151361000Y-96926860D01*
X151359677Y-96940295D01*
X151357549Y-96947309D01*
X151350190Y-96961077D01*
X151340813Y-96983716D01*
X151336033Y-97007749D01*
X151336033Y-97032253D01*
X151340814Y-97056286D01*
X151350190Y-97078923D01*
X151357549Y-97092691D01*
X151359677Y-97099705D01*
X151361000Y-97113140D01*
X151361000Y-97426860D01*
X151359677Y-97440295D01*
X151357549Y-97447309D01*
X151350190Y-97461077D01*
X151340813Y-97483716D01*
X151336033Y-97507749D01*
X151336033Y-97532253D01*
X151340814Y-97556286D01*
X151350190Y-97578923D01*
X151357549Y-97592691D01*
X151359677Y-97599705D01*
X151361000Y-97613140D01*
X151361000Y-97926860D01*
X151359677Y-97940295D01*
X151357549Y-97947309D01*
X151350190Y-97961077D01*
X151340813Y-97983716D01*
X151336033Y-98007749D01*
X151336033Y-98032253D01*
X151340814Y-98056286D01*
X151350190Y-98078923D01*
X151357549Y-98092691D01*
X151359677Y-98099705D01*
X151361000Y-98113140D01*
X151361000Y-98426860D01*
X151359677Y-98440295D01*
X151357549Y-98447309D01*
X151350190Y-98461077D01*
X151340813Y-98483716D01*
X151336033Y-98507749D01*
X151336033Y-98532253D01*
X151340814Y-98556286D01*
X151350190Y-98578923D01*
X151357549Y-98592691D01*
X151359677Y-98599705D01*
X151361000Y-98613140D01*
X151361000Y-98926860D01*
X151359677Y-98940295D01*
X151357549Y-98947309D01*
X151350190Y-98961077D01*
X151340813Y-98983716D01*
X151336033Y-99007749D01*
X151336033Y-99032253D01*
X151340814Y-99056286D01*
X151350190Y-99078923D01*
X151357549Y-99092691D01*
X151359677Y-99099705D01*
X151361000Y-99113140D01*
X151361000Y-99426860D01*
X151359677Y-99440295D01*
X151357549Y-99447309D01*
X151350190Y-99461077D01*
X151340813Y-99483716D01*
X151336033Y-99507749D01*
X151336033Y-99532253D01*
X151340814Y-99556286D01*
X151350190Y-99578923D01*
X151357549Y-99592691D01*
X151359677Y-99599705D01*
X151361000Y-99613140D01*
X151361000Y-99926860D01*
X151359677Y-99940295D01*
X151357549Y-99947309D01*
X151350190Y-99961077D01*
X151340813Y-99983716D01*
X151336033Y-100007749D01*
X151336033Y-100032253D01*
X151340814Y-100056286D01*
X151350190Y-100078923D01*
X151357549Y-100092691D01*
X151359677Y-100099705D01*
X151361000Y-100113140D01*
X151361000Y-100426860D01*
X151359677Y-100440295D01*
X151357549Y-100447310D01*
X151354092Y-100453776D01*
X151349442Y-100459442D01*
X151343776Y-100464092D01*
X151337310Y-100467549D01*
X151330295Y-100469677D01*
X151316860Y-100471000D01*
X149753140Y-100471000D01*
X149739705Y-100469677D01*
X149732690Y-100467549D01*
X149726224Y-100464092D01*
X149720558Y-100459442D01*
X149715908Y-100453776D01*
X149712451Y-100447310D01*
X149710323Y-100440295D01*
X149709000Y-100426860D01*
X149709000Y-100113140D01*
X149710323Y-100099705D01*
X149712451Y-100092691D01*
X149719810Y-100078923D01*
X149729187Y-100056284D01*
X149733967Y-100032251D01*
X149733967Y-100007747D01*
X149729186Y-99983714D01*
X149719810Y-99961077D01*
X149712451Y-99947309D01*
X149710323Y-99940295D01*
X149709000Y-99926860D01*
X149709000Y-99613140D01*
X149710323Y-99599705D01*
X149712451Y-99592691D01*
X149719810Y-99578923D01*
X149729187Y-99556284D01*
X149733967Y-99532251D01*
X149733967Y-99507747D01*
X149729186Y-99483714D01*
X149719810Y-99461077D01*
X149712451Y-99447309D01*
X149710323Y-99440295D01*
X149709000Y-99426860D01*
X149709000Y-99113140D01*
X149710323Y-99099705D01*
X149712451Y-99092691D01*
X149719810Y-99078923D01*
X149729187Y-99056284D01*
X149733967Y-99032251D01*
X149733967Y-99007747D01*
X149729186Y-98983714D01*
X149719810Y-98961077D01*
X149712451Y-98947309D01*
X149710323Y-98940295D01*
X149709000Y-98926860D01*
X149709000Y-98613140D01*
X149710323Y-98599705D01*
X149712451Y-98592691D01*
X149719810Y-98578923D01*
X149729187Y-98556284D01*
X149733967Y-98532251D01*
X149733967Y-98507747D01*
X149729186Y-98483714D01*
X149719810Y-98461077D01*
X149712451Y-98447309D01*
X149710323Y-98440295D01*
X149709000Y-98426860D01*
X149709000Y-98113140D01*
X149710323Y-98099705D01*
X149712451Y-98092691D01*
X149719810Y-98078923D01*
X149729187Y-98056284D01*
X149733967Y-98032251D01*
X149733967Y-98007747D01*
X149729186Y-97983714D01*
X149719810Y-97961077D01*
X149712451Y-97947309D01*
X149710323Y-97940295D01*
X149709000Y-97926860D01*
X149709000Y-97613140D01*
X149710323Y-97599705D01*
X149712451Y-97592691D01*
X149719810Y-97578923D01*
X149729187Y-97556284D01*
X149733967Y-97532251D01*
X149733967Y-97507747D01*
X149729186Y-97483714D01*
X149719810Y-97461077D01*
X149712451Y-97447309D01*
X149710323Y-97440295D01*
X149709000Y-97426860D01*
X149709000Y-97113140D01*
X149710323Y-97099705D01*
X149712451Y-97092691D01*
X149719810Y-97078923D01*
X149729187Y-97056284D01*
X149733967Y-97032251D01*
X149733967Y-97007747D01*
X149729186Y-96983714D01*
X149719810Y-96961077D01*
X149712451Y-96947309D01*
X149710323Y-96940295D01*
X149709000Y-96926860D01*
X149709000Y-96613140D01*
X149710323Y-96599705D01*
X149712451Y-96592691D01*
X149719810Y-96578923D01*
X149729187Y-96556284D01*
X149733967Y-96532251D01*
X149733967Y-96507747D01*
X149729186Y-96483714D01*
X149719810Y-96461077D01*
X149712451Y-96447309D01*
X149710323Y-96440295D01*
X149709000Y-96426860D01*
X149709000Y-96113140D01*
X149710323Y-96099705D01*
X149712451Y-96092691D01*
X149719810Y-96078923D01*
X149729187Y-96056284D01*
X149733967Y-96032251D01*
X149733967Y-96007747D01*
X149729186Y-95983714D01*
X149719810Y-95961077D01*
X149712451Y-95947309D01*
X149710323Y-95940295D01*
X149709000Y-95926860D01*
X149709000Y-95613140D01*
X149710323Y-95599705D01*
X149712451Y-95592691D01*
X149719810Y-95578923D01*
X149729187Y-95556284D01*
X149733967Y-95532251D01*
X149733967Y-95507747D01*
X149729186Y-95483714D01*
X149719810Y-95461077D01*
X149712451Y-95447309D01*
X149710323Y-95440295D01*
X149709000Y-95426860D01*
X149709000Y-95113140D01*
X149710323Y-95099705D01*
X149712451Y-95092691D01*
X149719810Y-95078923D01*
X149729187Y-95056284D01*
X149733967Y-95032251D01*
X149733967Y-95007747D01*
X149729186Y-94983714D01*
X149719810Y-94961077D01*
X149712451Y-94947309D01*
X149710323Y-94940295D01*
X149709000Y-94926860D01*
X149709000Y-94613140D01*
X149710323Y-94599705D01*
X149712451Y-94592691D01*
X149719810Y-94578923D01*
X149729187Y-94556284D01*
X149733967Y-94532251D01*
X149733967Y-94507747D01*
X149729186Y-94483714D01*
X149719810Y-94461077D01*
X149712451Y-94447309D01*
X149710323Y-94440295D01*
X149709000Y-94426860D01*
X149709000Y-94113140D01*
X149710323Y-94099705D01*
X149712451Y-94092691D01*
X149719810Y-94078923D01*
X149729187Y-94056284D01*
X149733967Y-94032251D01*
X149733967Y-94007747D01*
X149729186Y-93983714D01*
X149719810Y-93961077D01*
X149712451Y-93947309D01*
X149710323Y-93940295D01*
X149709000Y-93926860D01*
X149709000Y-93613140D01*
X149710323Y-93599705D01*
X149712451Y-93592691D01*
X149719810Y-93578923D01*
X149729187Y-93556284D01*
X149733967Y-93532251D01*
X149733967Y-93507747D01*
X149729186Y-93483714D01*
X149719810Y-93461077D01*
X149712451Y-93447309D01*
X149710323Y-93440295D01*
X149709000Y-93426860D01*
X149709000Y-93113140D01*
X149710323Y-93099705D01*
X149712451Y-93092691D01*
X149719810Y-93078923D01*
X149729187Y-93056284D01*
X149733967Y-93032251D01*
X149733967Y-93007747D01*
X149729186Y-92983714D01*
X149719810Y-92961077D01*
X149712451Y-92947309D01*
X149710323Y-92940295D01*
X149709000Y-92926860D01*
X149709000Y-92613140D01*
X149710323Y-92599705D01*
X149712451Y-92592690D01*
X149715908Y-92586224D01*
X149720558Y-92580558D01*
X149726224Y-92575908D01*
X149732690Y-92572451D01*
X149739705Y-92570323D01*
X149753140Y-92569000D01*
X151316860Y-92569000D01*
X151330295Y-92570323D01*
X151330295Y-92570323D01*
G37*
G36*
X162680295Y-92570323D02*
G01*
X162687310Y-92572451D01*
X162693776Y-92575908D01*
X162699442Y-92580558D01*
X162704092Y-92586224D01*
X162707549Y-92592690D01*
X162709677Y-92599705D01*
X162711000Y-92613140D01*
X162711000Y-92926860D01*
X162709677Y-92940295D01*
X162707549Y-92947309D01*
X162700190Y-92961077D01*
X162690813Y-92983716D01*
X162686033Y-93007749D01*
X162686033Y-93032253D01*
X162690814Y-93056286D01*
X162700190Y-93078923D01*
X162707549Y-93092691D01*
X162709677Y-93099705D01*
X162711000Y-93113140D01*
X162711000Y-93426860D01*
X162709677Y-93440295D01*
X162707549Y-93447309D01*
X162700190Y-93461077D01*
X162690813Y-93483716D01*
X162686033Y-93507749D01*
X162686033Y-93532253D01*
X162690814Y-93556286D01*
X162700190Y-93578923D01*
X162707549Y-93592691D01*
X162709677Y-93599705D01*
X162711000Y-93613140D01*
X162711000Y-93926860D01*
X162709677Y-93940295D01*
X162707549Y-93947309D01*
X162700190Y-93961077D01*
X162690813Y-93983716D01*
X162686033Y-94007749D01*
X162686033Y-94032253D01*
X162690814Y-94056286D01*
X162700190Y-94078923D01*
X162707549Y-94092691D01*
X162709677Y-94099705D01*
X162711000Y-94113140D01*
X162711000Y-94426860D01*
X162709677Y-94440295D01*
X162707549Y-94447309D01*
X162700190Y-94461077D01*
X162690813Y-94483716D01*
X162686033Y-94507749D01*
X162686033Y-94532253D01*
X162690814Y-94556286D01*
X162700190Y-94578923D01*
X162707549Y-94592691D01*
X162709677Y-94599705D01*
X162711000Y-94613140D01*
X162711000Y-94926860D01*
X162709677Y-94940295D01*
X162707549Y-94947309D01*
X162700190Y-94961077D01*
X162690813Y-94983716D01*
X162686033Y-95007749D01*
X162686033Y-95032253D01*
X162690814Y-95056286D01*
X162700190Y-95078923D01*
X162707549Y-95092691D01*
X162709677Y-95099705D01*
X162711000Y-95113140D01*
X162711000Y-95426860D01*
X162709677Y-95440295D01*
X162707549Y-95447309D01*
X162700190Y-95461077D01*
X162690813Y-95483716D01*
X162686033Y-95507749D01*
X162686033Y-95532253D01*
X162690814Y-95556286D01*
X162700190Y-95578923D01*
X162707549Y-95592691D01*
X162709677Y-95599705D01*
X162711000Y-95613140D01*
X162711000Y-95926860D01*
X162709677Y-95940295D01*
X162707549Y-95947309D01*
X162700190Y-95961077D01*
X162690813Y-95983716D01*
X162686033Y-96007749D01*
X162686033Y-96032253D01*
X162690814Y-96056286D01*
X162700190Y-96078923D01*
X162707549Y-96092691D01*
X162709677Y-96099705D01*
X162711000Y-96113140D01*
X162711000Y-96426860D01*
X162709677Y-96440295D01*
X162707549Y-96447309D01*
X162700190Y-96461077D01*
X162690813Y-96483716D01*
X162686033Y-96507749D01*
X162686033Y-96532253D01*
X162690814Y-96556286D01*
X162700190Y-96578923D01*
X162707549Y-96592691D01*
X162709677Y-96599705D01*
X162711000Y-96613140D01*
X162711000Y-96926860D01*
X162709677Y-96940295D01*
X162707549Y-96947309D01*
X162700190Y-96961077D01*
X162690813Y-96983716D01*
X162686033Y-97007749D01*
X162686033Y-97032253D01*
X162690814Y-97056286D01*
X162700190Y-97078923D01*
X162707549Y-97092691D01*
X162709677Y-97099705D01*
X162711000Y-97113140D01*
X162711000Y-97426860D01*
X162709677Y-97440295D01*
X162707549Y-97447309D01*
X162700190Y-97461077D01*
X162690813Y-97483716D01*
X162686033Y-97507749D01*
X162686033Y-97532253D01*
X162690814Y-97556286D01*
X162700190Y-97578923D01*
X162707549Y-97592691D01*
X162709677Y-97599705D01*
X162711000Y-97613140D01*
X162711000Y-97926860D01*
X162709677Y-97940295D01*
X162707549Y-97947309D01*
X162700190Y-97961077D01*
X162690813Y-97983716D01*
X162686033Y-98007749D01*
X162686033Y-98032253D01*
X162690814Y-98056286D01*
X162700190Y-98078923D01*
X162707549Y-98092691D01*
X162709677Y-98099705D01*
X162711000Y-98113140D01*
X162711000Y-98426860D01*
X162709677Y-98440295D01*
X162707549Y-98447309D01*
X162700190Y-98461077D01*
X162690813Y-98483716D01*
X162686033Y-98507749D01*
X162686033Y-98532253D01*
X162690814Y-98556286D01*
X162700190Y-98578923D01*
X162707549Y-98592691D01*
X162709677Y-98599705D01*
X162711000Y-98613140D01*
X162711000Y-98926860D01*
X162709677Y-98940295D01*
X162707549Y-98947309D01*
X162700190Y-98961077D01*
X162690813Y-98983716D01*
X162686033Y-99007749D01*
X162686033Y-99032253D01*
X162690814Y-99056286D01*
X162700190Y-99078923D01*
X162707549Y-99092691D01*
X162709677Y-99099705D01*
X162711000Y-99113140D01*
X162711000Y-99426860D01*
X162709677Y-99440295D01*
X162707549Y-99447309D01*
X162700190Y-99461077D01*
X162690813Y-99483716D01*
X162686033Y-99507749D01*
X162686033Y-99532253D01*
X162690814Y-99556286D01*
X162700190Y-99578923D01*
X162707549Y-99592691D01*
X162709677Y-99599705D01*
X162711000Y-99613140D01*
X162711000Y-99926860D01*
X162709677Y-99940295D01*
X162707549Y-99947309D01*
X162700190Y-99961077D01*
X162690813Y-99983716D01*
X162686033Y-100007749D01*
X162686033Y-100032253D01*
X162690814Y-100056286D01*
X162700190Y-100078923D01*
X162707549Y-100092691D01*
X162709677Y-100099705D01*
X162711000Y-100113140D01*
X162711000Y-100426860D01*
X162709677Y-100440295D01*
X162707549Y-100447310D01*
X162704092Y-100453776D01*
X162699442Y-100459442D01*
X162693776Y-100464092D01*
X162687310Y-100467549D01*
X162680295Y-100469677D01*
X162666860Y-100471000D01*
X161103140Y-100471000D01*
X161089705Y-100469677D01*
X161082690Y-100467549D01*
X161076224Y-100464092D01*
X161070558Y-100459442D01*
X161065908Y-100453776D01*
X161062451Y-100447310D01*
X161060323Y-100440295D01*
X161059000Y-100426860D01*
X161059000Y-100113140D01*
X161060323Y-100099705D01*
X161062451Y-100092691D01*
X161069810Y-100078923D01*
X161079187Y-100056284D01*
X161083967Y-100032251D01*
X161083967Y-100007747D01*
X161079186Y-99983714D01*
X161069810Y-99961077D01*
X161062451Y-99947309D01*
X161060323Y-99940295D01*
X161059000Y-99926860D01*
X161059000Y-99613140D01*
X161060323Y-99599705D01*
X161062451Y-99592691D01*
X161069810Y-99578923D01*
X161079187Y-99556284D01*
X161083967Y-99532251D01*
X161083967Y-99507747D01*
X161079186Y-99483714D01*
X161069810Y-99461077D01*
X161062451Y-99447309D01*
X161060323Y-99440295D01*
X161059000Y-99426860D01*
X161059000Y-99113140D01*
X161060323Y-99099705D01*
X161062451Y-99092691D01*
X161069810Y-99078923D01*
X161079187Y-99056284D01*
X161083967Y-99032251D01*
X161083967Y-99007747D01*
X161079186Y-98983714D01*
X161069810Y-98961077D01*
X161062451Y-98947309D01*
X161060323Y-98940295D01*
X161059000Y-98926860D01*
X161059000Y-98613140D01*
X161060323Y-98599705D01*
X161062451Y-98592691D01*
X161069810Y-98578923D01*
X161079187Y-98556284D01*
X161083967Y-98532251D01*
X161083967Y-98507747D01*
X161079186Y-98483714D01*
X161069810Y-98461077D01*
X161062451Y-98447309D01*
X161060323Y-98440295D01*
X161059000Y-98426860D01*
X161059000Y-98113140D01*
X161060323Y-98099705D01*
X161062451Y-98092691D01*
X161069810Y-98078923D01*
X161079187Y-98056284D01*
X161083967Y-98032251D01*
X161083967Y-98007747D01*
X161079186Y-97983714D01*
X161069810Y-97961077D01*
X161062451Y-97947309D01*
X161060323Y-97940295D01*
X161059000Y-97926860D01*
X161059000Y-97613140D01*
X161060323Y-97599705D01*
X161062451Y-97592691D01*
X161069810Y-97578923D01*
X161079187Y-97556284D01*
X161083967Y-97532251D01*
X161083967Y-97507747D01*
X161079186Y-97483714D01*
X161069810Y-97461077D01*
X161062451Y-97447309D01*
X161060323Y-97440295D01*
X161059000Y-97426860D01*
X161059000Y-97113140D01*
X161060323Y-97099705D01*
X161062451Y-97092691D01*
X161069810Y-97078923D01*
X161079187Y-97056284D01*
X161083967Y-97032251D01*
X161083967Y-97007747D01*
X161079186Y-96983714D01*
X161069810Y-96961077D01*
X161062451Y-96947309D01*
X161060323Y-96940295D01*
X161059000Y-96926860D01*
X161059000Y-96613140D01*
X161060323Y-96599705D01*
X161062451Y-96592691D01*
X161069810Y-96578923D01*
X161079187Y-96556284D01*
X161083967Y-96532251D01*
X161083967Y-96507747D01*
X161079186Y-96483714D01*
X161069810Y-96461077D01*
X161062451Y-96447309D01*
X161060323Y-96440295D01*
X161059000Y-96426860D01*
X161059000Y-96113140D01*
X161060323Y-96099705D01*
X161062451Y-96092691D01*
X161069810Y-96078923D01*
X161079187Y-96056284D01*
X161083967Y-96032251D01*
X161083967Y-96007747D01*
X161079186Y-95983714D01*
X161069810Y-95961077D01*
X161062451Y-95947309D01*
X161060323Y-95940295D01*
X161059000Y-95926860D01*
X161059000Y-95613140D01*
X161060323Y-95599705D01*
X161062451Y-95592691D01*
X161069810Y-95578923D01*
X161079187Y-95556284D01*
X161083967Y-95532251D01*
X161083967Y-95507747D01*
X161079186Y-95483714D01*
X161069810Y-95461077D01*
X161062451Y-95447309D01*
X161060323Y-95440295D01*
X161059000Y-95426860D01*
X161059000Y-95113140D01*
X161060323Y-95099705D01*
X161062451Y-95092691D01*
X161069810Y-95078923D01*
X161079187Y-95056284D01*
X161083967Y-95032251D01*
X161083967Y-95007747D01*
X161079186Y-94983714D01*
X161069810Y-94961077D01*
X161062451Y-94947309D01*
X161060323Y-94940295D01*
X161059000Y-94926860D01*
X161059000Y-94613140D01*
X161060323Y-94599705D01*
X161062451Y-94592691D01*
X161069810Y-94578923D01*
X161079187Y-94556284D01*
X161083967Y-94532251D01*
X161083967Y-94507747D01*
X161079186Y-94483714D01*
X161069810Y-94461077D01*
X161062451Y-94447309D01*
X161060323Y-94440295D01*
X161059000Y-94426860D01*
X161059000Y-94113140D01*
X161060323Y-94099705D01*
X161062451Y-94092691D01*
X161069810Y-94078923D01*
X161079187Y-94056284D01*
X161083967Y-94032251D01*
X161083967Y-94007747D01*
X161079186Y-93983714D01*
X161069810Y-93961077D01*
X161062451Y-93947309D01*
X161060323Y-93940295D01*
X161059000Y-93926860D01*
X161059000Y-93613140D01*
X161060323Y-93599705D01*
X161062451Y-93592691D01*
X161069810Y-93578923D01*
X161079187Y-93556284D01*
X161083967Y-93532251D01*
X161083967Y-93507747D01*
X161079186Y-93483714D01*
X161069810Y-93461077D01*
X161062451Y-93447309D01*
X161060323Y-93440295D01*
X161059000Y-93426860D01*
X161059000Y-93113140D01*
X161060323Y-93099705D01*
X161062451Y-93092691D01*
X161069810Y-93078923D01*
X161079187Y-93056284D01*
X161083967Y-93032251D01*
X161083967Y-93007747D01*
X161079186Y-92983714D01*
X161069810Y-92961077D01*
X161062451Y-92947309D01*
X161060323Y-92940295D01*
X161059000Y-92926860D01*
X161059000Y-92613140D01*
X161060323Y-92599705D01*
X161062451Y-92592690D01*
X161065908Y-92586224D01*
X161070558Y-92580558D01*
X161076224Y-92575908D01*
X161082690Y-92572451D01*
X161089705Y-92570323D01*
X161103140Y-92569000D01*
X162666860Y-92569000D01*
X162680295Y-92570323D01*
X162680295Y-92570323D01*
G37*
G36*
X141211000Y-100251000D02*
G01*
X139409000Y-100251000D01*
X139409000Y-99149000D01*
X141211000Y-99149000D01*
X141211000Y-100251000D01*
X141211000Y-100251000D01*
G37*
G36*
X134911000Y-100251000D02*
G01*
X133109000Y-100251000D01*
X133109000Y-99149000D01*
X134911000Y-99149000D01*
X134911000Y-100251000D01*
X134911000Y-100251000D01*
G37*
G36*
X146698604Y-96868347D02*
G01*
X146735144Y-96879432D01*
X146768821Y-96897433D01*
X146798341Y-96921659D01*
X146822567Y-96951179D01*
X146840568Y-96984856D01*
X146851653Y-97021396D01*
X146856000Y-97065538D01*
X146856000Y-98514462D01*
X146851653Y-98558604D01*
X146840568Y-98595144D01*
X146822567Y-98628821D01*
X146798341Y-98658341D01*
X146768821Y-98682567D01*
X146735144Y-98700568D01*
X146698604Y-98711653D01*
X146654462Y-98716000D01*
X145705538Y-98716000D01*
X145661396Y-98711653D01*
X145624856Y-98700568D01*
X145591179Y-98682567D01*
X145561659Y-98658341D01*
X145537433Y-98628821D01*
X145519432Y-98595144D01*
X145508347Y-98558604D01*
X145504000Y-98514462D01*
X145504000Y-97065538D01*
X145508347Y-97021396D01*
X145519432Y-96984856D01*
X145537433Y-96951179D01*
X145561659Y-96921659D01*
X145591179Y-96897433D01*
X145624856Y-96879432D01*
X145661396Y-96868347D01*
X145705538Y-96864000D01*
X146654462Y-96864000D01*
X146698604Y-96868347D01*
X146698604Y-96868347D01*
G37*
G36*
X143898604Y-96868347D02*
G01*
X143935144Y-96879432D01*
X143968821Y-96897433D01*
X143998341Y-96921659D01*
X144022567Y-96951179D01*
X144040568Y-96984856D01*
X144051653Y-97021396D01*
X144056000Y-97065538D01*
X144056000Y-98514462D01*
X144051653Y-98558604D01*
X144040568Y-98595144D01*
X144022567Y-98628821D01*
X143998341Y-98658341D01*
X143968821Y-98682567D01*
X143935144Y-98700568D01*
X143898604Y-98711653D01*
X143854462Y-98716000D01*
X142905538Y-98716000D01*
X142861396Y-98711653D01*
X142824856Y-98700568D01*
X142791179Y-98682567D01*
X142761659Y-98658341D01*
X142737433Y-98628821D01*
X142719432Y-98595144D01*
X142708347Y-98558604D01*
X142704000Y-98514462D01*
X142704000Y-97065538D01*
X142708347Y-97021396D01*
X142719432Y-96984856D01*
X142737433Y-96951179D01*
X142761659Y-96921659D01*
X142791179Y-96897433D01*
X142824856Y-96879432D01*
X142861396Y-96868347D01*
X142905538Y-96864000D01*
X143854462Y-96864000D01*
X143898604Y-96868347D01*
X143898604Y-96868347D01*
G37*
G36*
X143898604Y-94328347D02*
G01*
X143935144Y-94339432D01*
X143968821Y-94357433D01*
X143998341Y-94381659D01*
X144022567Y-94411179D01*
X144040568Y-94444856D01*
X144051653Y-94481396D01*
X144056000Y-94525538D01*
X144056000Y-95974462D01*
X144051653Y-96018604D01*
X144040568Y-96055144D01*
X144022567Y-96088821D01*
X143998341Y-96118341D01*
X143968821Y-96142567D01*
X143935144Y-96160568D01*
X143898604Y-96171653D01*
X143854462Y-96176000D01*
X142905538Y-96176000D01*
X142861396Y-96171653D01*
X142824856Y-96160568D01*
X142791179Y-96142567D01*
X142761659Y-96118341D01*
X142737433Y-96088821D01*
X142719432Y-96055144D01*
X142708347Y-96018604D01*
X142704000Y-95974462D01*
X142704000Y-94525538D01*
X142708347Y-94481396D01*
X142719432Y-94444856D01*
X142737433Y-94411179D01*
X142761659Y-94381659D01*
X142791179Y-94357433D01*
X142824856Y-94339432D01*
X142861396Y-94328347D01*
X142905538Y-94324000D01*
X143854462Y-94324000D01*
X143898604Y-94328347D01*
X143898604Y-94328347D01*
G37*
G36*
X146698604Y-94328347D02*
G01*
X146735144Y-94339432D01*
X146768821Y-94357433D01*
X146798341Y-94381659D01*
X146822567Y-94411179D01*
X146840568Y-94444856D01*
X146851653Y-94481396D01*
X146856000Y-94525538D01*
X146856000Y-95974462D01*
X146851653Y-96018604D01*
X146840568Y-96055144D01*
X146822567Y-96088821D01*
X146798341Y-96118341D01*
X146768821Y-96142567D01*
X146735144Y-96160568D01*
X146698604Y-96171653D01*
X146654462Y-96176000D01*
X145705538Y-96176000D01*
X145661396Y-96171653D01*
X145624856Y-96160568D01*
X145591179Y-96142567D01*
X145561659Y-96118341D01*
X145537433Y-96088821D01*
X145519432Y-96055144D01*
X145508347Y-96018604D01*
X145504000Y-95974462D01*
X145504000Y-94525538D01*
X145508347Y-94481396D01*
X145519432Y-94444856D01*
X145537433Y-94411179D01*
X145561659Y-94381659D01*
X145591179Y-94357433D01*
X145624856Y-94339432D01*
X145661396Y-94328347D01*
X145705538Y-94324000D01*
X146654462Y-94324000D01*
X146698604Y-94328347D01*
X146698604Y-94328347D01*
G37*
G36*
X186694206Y-92492102D02*
G01*
X185420000Y-93766308D01*
X184145794Y-92492102D01*
X185420000Y-91217896D01*
X186694206Y-92492102D01*
X186694206Y-92492102D01*
G37*
G36*
X127014404Y-91905205D02*
G01*
X127086371Y-91912293D01*
X127256210Y-91963813D01*
X127412735Y-92047478D01*
X127448473Y-92076808D01*
X127549930Y-92160070D01*
X127633192Y-92261527D01*
X127662522Y-92297265D01*
X127746187Y-92453790D01*
X127797707Y-92623629D01*
X127815103Y-92800256D01*
X127797707Y-92976883D01*
X127746187Y-93146722D01*
X127662522Y-93303247D01*
X127633192Y-93338985D01*
X127549930Y-93440442D01*
X127467917Y-93507747D01*
X127412735Y-93553034D01*
X127412733Y-93553035D01*
X127300286Y-93613140D01*
X127256210Y-93636699D01*
X127086371Y-93688219D01*
X127020186Y-93694738D01*
X126954004Y-93701256D01*
X126865484Y-93701256D01*
X126799301Y-93694737D01*
X126733117Y-93688219D01*
X126563278Y-93636699D01*
X126519203Y-93613140D01*
X126406755Y-93553035D01*
X126406753Y-93553034D01*
X126351571Y-93507747D01*
X126269558Y-93440442D01*
X126186296Y-93338985D01*
X126156966Y-93303247D01*
X126073301Y-93146722D01*
X126021781Y-92976883D01*
X126004385Y-92800256D01*
X126021781Y-92623629D01*
X126073301Y-92453790D01*
X126156966Y-92297265D01*
X126186296Y-92261527D01*
X126269558Y-92160070D01*
X126371015Y-92076808D01*
X126406753Y-92047478D01*
X126563278Y-91963813D01*
X126733117Y-91912293D01*
X126805084Y-91905205D01*
X126865484Y-91899256D01*
X126954004Y-91899256D01*
X127014404Y-91905205D01*
X127014404Y-91905205D01*
G37*
G36*
X128810455Y-90109154D02*
G01*
X128882422Y-90116242D01*
X129052261Y-90167762D01*
X129208786Y-90251427D01*
X129244524Y-90280757D01*
X129345981Y-90364019D01*
X129429243Y-90465476D01*
X129458573Y-90501214D01*
X129542238Y-90657739D01*
X129593758Y-90827578D01*
X129611154Y-91004205D01*
X129593758Y-91180832D01*
X129542238Y-91350671D01*
X129458573Y-91507196D01*
X129437812Y-91532493D01*
X129345981Y-91644391D01*
X129244524Y-91727653D01*
X129208786Y-91756983D01*
X129052261Y-91840648D01*
X128882422Y-91892168D01*
X128816237Y-91898687D01*
X128750055Y-91905205D01*
X128661535Y-91905205D01*
X128595353Y-91898687D01*
X128529168Y-91892168D01*
X128359329Y-91840648D01*
X128202804Y-91756983D01*
X128167066Y-91727653D01*
X128065609Y-91644391D01*
X127973778Y-91532493D01*
X127953017Y-91507196D01*
X127869352Y-91350671D01*
X127817832Y-91180832D01*
X127800436Y-91004205D01*
X127817832Y-90827578D01*
X127869352Y-90657739D01*
X127953017Y-90501214D01*
X127982347Y-90465476D01*
X128065609Y-90364019D01*
X128167066Y-90280757D01*
X128202804Y-90251427D01*
X128359329Y-90167762D01*
X128529168Y-90116242D01*
X128601135Y-90109154D01*
X128661535Y-90103205D01*
X128750055Y-90103205D01*
X128810455Y-90109154D01*
X128810455Y-90109154D01*
G37*
G36*
X152630295Y-90020323D02*
G01*
X152637309Y-90022451D01*
X152651077Y-90029810D01*
X152673716Y-90039187D01*
X152697749Y-90043967D01*
X152722253Y-90043967D01*
X152746286Y-90039186D01*
X152768923Y-90029810D01*
X152782691Y-90022451D01*
X152789705Y-90020323D01*
X152803140Y-90019000D01*
X153116860Y-90019000D01*
X153130295Y-90020323D01*
X153137309Y-90022451D01*
X153151077Y-90029810D01*
X153173716Y-90039187D01*
X153197749Y-90043967D01*
X153222253Y-90043967D01*
X153246286Y-90039186D01*
X153268923Y-90029810D01*
X153282691Y-90022451D01*
X153289705Y-90020323D01*
X153303140Y-90019000D01*
X153616860Y-90019000D01*
X153630295Y-90020323D01*
X153637309Y-90022451D01*
X153651077Y-90029810D01*
X153673716Y-90039187D01*
X153697749Y-90043967D01*
X153722253Y-90043967D01*
X153746286Y-90039186D01*
X153768923Y-90029810D01*
X153782691Y-90022451D01*
X153789705Y-90020323D01*
X153803140Y-90019000D01*
X154116860Y-90019000D01*
X154130295Y-90020323D01*
X154137309Y-90022451D01*
X154151077Y-90029810D01*
X154173716Y-90039187D01*
X154197749Y-90043967D01*
X154222253Y-90043967D01*
X154246286Y-90039186D01*
X154268923Y-90029810D01*
X154282691Y-90022451D01*
X154289705Y-90020323D01*
X154303140Y-90019000D01*
X154616860Y-90019000D01*
X154630295Y-90020323D01*
X154637309Y-90022451D01*
X154651077Y-90029810D01*
X154673716Y-90039187D01*
X154697749Y-90043967D01*
X154722253Y-90043967D01*
X154746286Y-90039186D01*
X154768923Y-90029810D01*
X154782691Y-90022451D01*
X154789705Y-90020323D01*
X154803140Y-90019000D01*
X155116860Y-90019000D01*
X155130295Y-90020323D01*
X155137309Y-90022451D01*
X155151077Y-90029810D01*
X155173716Y-90039187D01*
X155197749Y-90043967D01*
X155222253Y-90043967D01*
X155246286Y-90039186D01*
X155268923Y-90029810D01*
X155282691Y-90022451D01*
X155289705Y-90020323D01*
X155303140Y-90019000D01*
X155616860Y-90019000D01*
X155630295Y-90020323D01*
X155637309Y-90022451D01*
X155651077Y-90029810D01*
X155673716Y-90039187D01*
X155697749Y-90043967D01*
X155722253Y-90043967D01*
X155746286Y-90039186D01*
X155768923Y-90029810D01*
X155782691Y-90022451D01*
X155789705Y-90020323D01*
X155803140Y-90019000D01*
X156116860Y-90019000D01*
X156130295Y-90020323D01*
X156137309Y-90022451D01*
X156151077Y-90029810D01*
X156173716Y-90039187D01*
X156197749Y-90043967D01*
X156222253Y-90043967D01*
X156246286Y-90039186D01*
X156268923Y-90029810D01*
X156282691Y-90022451D01*
X156289705Y-90020323D01*
X156303140Y-90019000D01*
X156616860Y-90019000D01*
X156630295Y-90020323D01*
X156637309Y-90022451D01*
X156651077Y-90029810D01*
X156673716Y-90039187D01*
X156697749Y-90043967D01*
X156722253Y-90043967D01*
X156746286Y-90039186D01*
X156768923Y-90029810D01*
X156782691Y-90022451D01*
X156789705Y-90020323D01*
X156803140Y-90019000D01*
X157116860Y-90019000D01*
X157130295Y-90020323D01*
X157137309Y-90022451D01*
X157151077Y-90029810D01*
X157173716Y-90039187D01*
X157197749Y-90043967D01*
X157222253Y-90043967D01*
X157246286Y-90039186D01*
X157268923Y-90029810D01*
X157282691Y-90022451D01*
X157289705Y-90020323D01*
X157303140Y-90019000D01*
X157616860Y-90019000D01*
X157630295Y-90020323D01*
X157637309Y-90022451D01*
X157651077Y-90029810D01*
X157673716Y-90039187D01*
X157697749Y-90043967D01*
X157722253Y-90043967D01*
X157746286Y-90039186D01*
X157768923Y-90029810D01*
X157782691Y-90022451D01*
X157789705Y-90020323D01*
X157803140Y-90019000D01*
X158116860Y-90019000D01*
X158130295Y-90020323D01*
X158137309Y-90022451D01*
X158151077Y-90029810D01*
X158173716Y-90039187D01*
X158197749Y-90043967D01*
X158222253Y-90043967D01*
X158246286Y-90039186D01*
X158268923Y-90029810D01*
X158282691Y-90022451D01*
X158289705Y-90020323D01*
X158303140Y-90019000D01*
X158616860Y-90019000D01*
X158630295Y-90020323D01*
X158637309Y-90022451D01*
X158651077Y-90029810D01*
X158673716Y-90039187D01*
X158697749Y-90043967D01*
X158722253Y-90043967D01*
X158746286Y-90039186D01*
X158768923Y-90029810D01*
X158782691Y-90022451D01*
X158789705Y-90020323D01*
X158803140Y-90019000D01*
X159116860Y-90019000D01*
X159130295Y-90020323D01*
X159137309Y-90022451D01*
X159151077Y-90029810D01*
X159173716Y-90039187D01*
X159197749Y-90043967D01*
X159222253Y-90043967D01*
X159246286Y-90039186D01*
X159268923Y-90029810D01*
X159282691Y-90022451D01*
X159289705Y-90020323D01*
X159303140Y-90019000D01*
X159616860Y-90019000D01*
X159630295Y-90020323D01*
X159637309Y-90022451D01*
X159651077Y-90029810D01*
X159673716Y-90039187D01*
X159697749Y-90043967D01*
X159722253Y-90043967D01*
X159746286Y-90039186D01*
X159768923Y-90029810D01*
X159782691Y-90022451D01*
X159789705Y-90020323D01*
X159803140Y-90019000D01*
X160116860Y-90019000D01*
X160130295Y-90020323D01*
X160137310Y-90022451D01*
X160143776Y-90025908D01*
X160149442Y-90030558D01*
X160154092Y-90036224D01*
X160157549Y-90042690D01*
X160159677Y-90049705D01*
X160161000Y-90063140D01*
X160161000Y-91626860D01*
X160159677Y-91640295D01*
X160157549Y-91647310D01*
X160154092Y-91653776D01*
X160149442Y-91659442D01*
X160143776Y-91664092D01*
X160137310Y-91667549D01*
X160130295Y-91669677D01*
X160116860Y-91671000D01*
X159803140Y-91671000D01*
X159789705Y-91669677D01*
X159782691Y-91667549D01*
X159768923Y-91660190D01*
X159746284Y-91650813D01*
X159722251Y-91646033D01*
X159697747Y-91646033D01*
X159673714Y-91650814D01*
X159651077Y-91660190D01*
X159637309Y-91667549D01*
X159630295Y-91669677D01*
X159616860Y-91671000D01*
X159303140Y-91671000D01*
X159289705Y-91669677D01*
X159282691Y-91667549D01*
X159268923Y-91660190D01*
X159246284Y-91650813D01*
X159222251Y-91646033D01*
X159197747Y-91646033D01*
X159173714Y-91650814D01*
X159151077Y-91660190D01*
X159137309Y-91667549D01*
X159130295Y-91669677D01*
X159116860Y-91671000D01*
X158803140Y-91671000D01*
X158789705Y-91669677D01*
X158782691Y-91667549D01*
X158768923Y-91660190D01*
X158746284Y-91650813D01*
X158722251Y-91646033D01*
X158697747Y-91646033D01*
X158673714Y-91650814D01*
X158651077Y-91660190D01*
X158637309Y-91667549D01*
X158630295Y-91669677D01*
X158616860Y-91671000D01*
X158303140Y-91671000D01*
X158289705Y-91669677D01*
X158282691Y-91667549D01*
X158268923Y-91660190D01*
X158246284Y-91650813D01*
X158222251Y-91646033D01*
X158197747Y-91646033D01*
X158173714Y-91650814D01*
X158151077Y-91660190D01*
X158137309Y-91667549D01*
X158130295Y-91669677D01*
X158116860Y-91671000D01*
X157803140Y-91671000D01*
X157789705Y-91669677D01*
X157782691Y-91667549D01*
X157768923Y-91660190D01*
X157746284Y-91650813D01*
X157722251Y-91646033D01*
X157697747Y-91646033D01*
X157673714Y-91650814D01*
X157651077Y-91660190D01*
X157637309Y-91667549D01*
X157630295Y-91669677D01*
X157616860Y-91671000D01*
X157303140Y-91671000D01*
X157289705Y-91669677D01*
X157282691Y-91667549D01*
X157268923Y-91660190D01*
X157246284Y-91650813D01*
X157222251Y-91646033D01*
X157197747Y-91646033D01*
X157173714Y-91650814D01*
X157151077Y-91660190D01*
X157137309Y-91667549D01*
X157130295Y-91669677D01*
X157116860Y-91671000D01*
X156803140Y-91671000D01*
X156789705Y-91669677D01*
X156782691Y-91667549D01*
X156768923Y-91660190D01*
X156746284Y-91650813D01*
X156722251Y-91646033D01*
X156697747Y-91646033D01*
X156673714Y-91650814D01*
X156651077Y-91660190D01*
X156637309Y-91667549D01*
X156630295Y-91669677D01*
X156616860Y-91671000D01*
X156303140Y-91671000D01*
X156289705Y-91669677D01*
X156282691Y-91667549D01*
X156268923Y-91660190D01*
X156246284Y-91650813D01*
X156222251Y-91646033D01*
X156197747Y-91646033D01*
X156173714Y-91650814D01*
X156151077Y-91660190D01*
X156137309Y-91667549D01*
X156130295Y-91669677D01*
X156116860Y-91671000D01*
X155803140Y-91671000D01*
X155789705Y-91669677D01*
X155782691Y-91667549D01*
X155768923Y-91660190D01*
X155746284Y-91650813D01*
X155722251Y-91646033D01*
X155697747Y-91646033D01*
X155673714Y-91650814D01*
X155651077Y-91660190D01*
X155637309Y-91667549D01*
X155630295Y-91669677D01*
X155616860Y-91671000D01*
X155303140Y-91671000D01*
X155289705Y-91669677D01*
X155282691Y-91667549D01*
X155268923Y-91660190D01*
X155246284Y-91650813D01*
X155222251Y-91646033D01*
X155197747Y-91646033D01*
X155173714Y-91650814D01*
X155151077Y-91660190D01*
X155137309Y-91667549D01*
X155130295Y-91669677D01*
X155116860Y-91671000D01*
X154803140Y-91671000D01*
X154789705Y-91669677D01*
X154782691Y-91667549D01*
X154768923Y-91660190D01*
X154746284Y-91650813D01*
X154722251Y-91646033D01*
X154697747Y-91646033D01*
X154673714Y-91650814D01*
X154651077Y-91660190D01*
X154637309Y-91667549D01*
X154630295Y-91669677D01*
X154616860Y-91671000D01*
X154303140Y-91671000D01*
X154289705Y-91669677D01*
X154282691Y-91667549D01*
X154268923Y-91660190D01*
X154246284Y-91650813D01*
X154222251Y-91646033D01*
X154197747Y-91646033D01*
X154173714Y-91650814D01*
X154151077Y-91660190D01*
X154137309Y-91667549D01*
X154130295Y-91669677D01*
X154116860Y-91671000D01*
X153803140Y-91671000D01*
X153789705Y-91669677D01*
X153782691Y-91667549D01*
X153768923Y-91660190D01*
X153746284Y-91650813D01*
X153722251Y-91646033D01*
X153697747Y-91646033D01*
X153673714Y-91650814D01*
X153651077Y-91660190D01*
X153637309Y-91667549D01*
X153630295Y-91669677D01*
X153616860Y-91671000D01*
X153303140Y-91671000D01*
X153289705Y-91669677D01*
X153282691Y-91667549D01*
X153268923Y-91660190D01*
X153246284Y-91650813D01*
X153222251Y-91646033D01*
X153197747Y-91646033D01*
X153173714Y-91650814D01*
X153151077Y-91660190D01*
X153137309Y-91667549D01*
X153130295Y-91669677D01*
X153116860Y-91671000D01*
X152803140Y-91671000D01*
X152789705Y-91669677D01*
X152782691Y-91667549D01*
X152768923Y-91660190D01*
X152746284Y-91650813D01*
X152722251Y-91646033D01*
X152697747Y-91646033D01*
X152673714Y-91650814D01*
X152651077Y-91660190D01*
X152637309Y-91667549D01*
X152630295Y-91669677D01*
X152616860Y-91671000D01*
X152303140Y-91671000D01*
X152289705Y-91669677D01*
X152282690Y-91667549D01*
X152276224Y-91664092D01*
X152270558Y-91659442D01*
X152265908Y-91653776D01*
X152262451Y-91647310D01*
X152260323Y-91640295D01*
X152259000Y-91626860D01*
X152259000Y-90063140D01*
X152260323Y-90049705D01*
X152262451Y-90042690D01*
X152265908Y-90036224D01*
X152270558Y-90030558D01*
X152276224Y-90025908D01*
X152282690Y-90022451D01*
X152289705Y-90020323D01*
X152303140Y-90019000D01*
X152616860Y-90019000D01*
X152630295Y-90020323D01*
X152630295Y-90020323D01*
G37*
G36*
X183728609Y-89801000D02*
G01*
X183800576Y-89808088D01*
X183970415Y-89859608D01*
X184126940Y-89943273D01*
X184162678Y-89972603D01*
X184264135Y-90055865D01*
X184347397Y-90157322D01*
X184376727Y-90193060D01*
X184460392Y-90349585D01*
X184511912Y-90519424D01*
X184529308Y-90696051D01*
X184511912Y-90872678D01*
X184460392Y-91042517D01*
X184376727Y-91199042D01*
X184361254Y-91217896D01*
X184264135Y-91336237D01*
X184162678Y-91419499D01*
X184126940Y-91448829D01*
X183970415Y-91532494D01*
X183800576Y-91584014D01*
X183738712Y-91590107D01*
X183668209Y-91597051D01*
X183579689Y-91597051D01*
X183509186Y-91590107D01*
X183447322Y-91584014D01*
X183277483Y-91532494D01*
X183120958Y-91448829D01*
X183085220Y-91419499D01*
X182983763Y-91336237D01*
X182886644Y-91217896D01*
X182871171Y-91199042D01*
X182787506Y-91042517D01*
X182735986Y-90872678D01*
X182718590Y-90696051D01*
X182735986Y-90519424D01*
X182787506Y-90349585D01*
X182871171Y-90193060D01*
X182900501Y-90157322D01*
X182983763Y-90055865D01*
X183085220Y-89972603D01*
X183120958Y-89943273D01*
X183277483Y-89859608D01*
X183447322Y-89808088D01*
X183519289Y-89801000D01*
X183579689Y-89795051D01*
X183668209Y-89795051D01*
X183728609Y-89801000D01*
X183728609Y-89801000D01*
G37*
G36*
X130606496Y-88313102D02*
G01*
X130678473Y-88320191D01*
X130848312Y-88371711D01*
X131004837Y-88455376D01*
X131040575Y-88484706D01*
X131142032Y-88567968D01*
X131225294Y-88669425D01*
X131254624Y-88705163D01*
X131338289Y-88861688D01*
X131389809Y-89031527D01*
X131407205Y-89208154D01*
X131389809Y-89384781D01*
X131338289Y-89554620D01*
X131254624Y-89711145D01*
X131233863Y-89736442D01*
X131142032Y-89848340D01*
X131040575Y-89931602D01*
X131004837Y-89960932D01*
X130848312Y-90044597D01*
X130678473Y-90096117D01*
X130612288Y-90102636D01*
X130546106Y-90109154D01*
X130457586Y-90109154D01*
X130391404Y-90102636D01*
X130325219Y-90096117D01*
X130155380Y-90044597D01*
X129998855Y-89960932D01*
X129963117Y-89931602D01*
X129861660Y-89848340D01*
X129769829Y-89736442D01*
X129749068Y-89711145D01*
X129665403Y-89554620D01*
X129613883Y-89384781D01*
X129596487Y-89208154D01*
X129613883Y-89031527D01*
X129665403Y-88861688D01*
X129749068Y-88705163D01*
X129778398Y-88669425D01*
X129861660Y-88567968D01*
X129963117Y-88484706D01*
X129998855Y-88455376D01*
X130155380Y-88371711D01*
X130325219Y-88320191D01*
X130397196Y-88313102D01*
X130457586Y-88307154D01*
X130546106Y-88307154D01*
X130606496Y-88313102D01*
X130606496Y-88313102D01*
G37*
G36*
X181932548Y-88004948D02*
G01*
X182004525Y-88012037D01*
X182174364Y-88063557D01*
X182330889Y-88147222D01*
X182352405Y-88164880D01*
X182468084Y-88259814D01*
X182517633Y-88320191D01*
X182580676Y-88397009D01*
X182664341Y-88553534D01*
X182715861Y-88723373D01*
X182733257Y-88900000D01*
X182715861Y-89076627D01*
X182664341Y-89246466D01*
X182580676Y-89402991D01*
X182551346Y-89438729D01*
X182468084Y-89540186D01*
X182366627Y-89623448D01*
X182330889Y-89652778D01*
X182174364Y-89736443D01*
X182004525Y-89787963D01*
X181938341Y-89794481D01*
X181872158Y-89801000D01*
X181783638Y-89801000D01*
X181717455Y-89794481D01*
X181651271Y-89787963D01*
X181481432Y-89736443D01*
X181324907Y-89652778D01*
X181289169Y-89623448D01*
X181187712Y-89540186D01*
X181104450Y-89438729D01*
X181075120Y-89402991D01*
X180991455Y-89246466D01*
X180939935Y-89076627D01*
X180922539Y-88900000D01*
X180939935Y-88723373D01*
X180991455Y-88553534D01*
X181075120Y-88397009D01*
X181138163Y-88320191D01*
X181187712Y-88259814D01*
X181303391Y-88164880D01*
X181324907Y-88147222D01*
X181481432Y-88063557D01*
X181651271Y-88012037D01*
X181723248Y-88004948D01*
X181783638Y-87999000D01*
X181872158Y-87999000D01*
X181932548Y-88004948D01*
X181932548Y-88004948D01*
G37*
G36*
X132402558Y-86517051D02*
G01*
X132474525Y-86524139D01*
X132644364Y-86575659D01*
X132800889Y-86659324D01*
X132836627Y-86688654D01*
X132938084Y-86771916D01*
X133021346Y-86873373D01*
X133050676Y-86909111D01*
X133134341Y-87065636D01*
X133185861Y-87235475D01*
X133203257Y-87412102D01*
X133185861Y-87588729D01*
X133134341Y-87758568D01*
X133050676Y-87915093D01*
X133029915Y-87940390D01*
X132938084Y-88052288D01*
X132836627Y-88135550D01*
X132800889Y-88164880D01*
X132644364Y-88248545D01*
X132474525Y-88300065D01*
X132408340Y-88306584D01*
X132342158Y-88313102D01*
X132253638Y-88313102D01*
X132187456Y-88306584D01*
X132121271Y-88300065D01*
X131951432Y-88248545D01*
X131794907Y-88164880D01*
X131759169Y-88135550D01*
X131657712Y-88052288D01*
X131565881Y-87940390D01*
X131545120Y-87915093D01*
X131461455Y-87758568D01*
X131409935Y-87588729D01*
X131392539Y-87412102D01*
X131409935Y-87235475D01*
X131461455Y-87065636D01*
X131545120Y-86909111D01*
X131574450Y-86873373D01*
X131657712Y-86771916D01*
X131759169Y-86688654D01*
X131794907Y-86659324D01*
X131951432Y-86575659D01*
X132121271Y-86524139D01*
X132193238Y-86517051D01*
X132253638Y-86511102D01*
X132342158Y-86511102D01*
X132402558Y-86517051D01*
X132402558Y-86517051D01*
G37*
G36*
X180136506Y-86208897D02*
G01*
X180208473Y-86215985D01*
X180378312Y-86267505D01*
X180534837Y-86351170D01*
X180570575Y-86380500D01*
X180672032Y-86463762D01*
X180721581Y-86524139D01*
X180784624Y-86600957D01*
X180868289Y-86757482D01*
X180919809Y-86927321D01*
X180937205Y-87103948D01*
X180919809Y-87280575D01*
X180868289Y-87450414D01*
X180784624Y-87606939D01*
X180755294Y-87642677D01*
X180672032Y-87744134D01*
X180570575Y-87827396D01*
X180534837Y-87856726D01*
X180378312Y-87940391D01*
X180208473Y-87991911D01*
X180142289Y-87998429D01*
X180076106Y-88004948D01*
X179987586Y-88004948D01*
X179921403Y-87998429D01*
X179855219Y-87991911D01*
X179685380Y-87940391D01*
X179528855Y-87856726D01*
X179493117Y-87827396D01*
X179391660Y-87744134D01*
X179308398Y-87642677D01*
X179279068Y-87606939D01*
X179195403Y-87450414D01*
X179143883Y-87280575D01*
X179126487Y-87103948D01*
X179143883Y-86927321D01*
X179195403Y-86757482D01*
X179279068Y-86600957D01*
X179342111Y-86524139D01*
X179391660Y-86463762D01*
X179493117Y-86380500D01*
X179528855Y-86351170D01*
X179685380Y-86267505D01*
X179855219Y-86215985D01*
X179927186Y-86208897D01*
X179987586Y-86202948D01*
X180076106Y-86202948D01*
X180136506Y-86208897D01*
X180136506Y-86208897D01*
G37*
G36*
X134204391Y-84721569D02*
G01*
X134270576Y-84728088D01*
X134440415Y-84779608D01*
X134596940Y-84863273D01*
X134632678Y-84892603D01*
X134734135Y-84975865D01*
X134817397Y-85077322D01*
X134846727Y-85113060D01*
X134930392Y-85269585D01*
X134981912Y-85439424D01*
X134999308Y-85616051D01*
X134981912Y-85792678D01*
X134930392Y-85962517D01*
X134846727Y-86119042D01*
X134825966Y-86144339D01*
X134734135Y-86256237D01*
X134632678Y-86339499D01*
X134596940Y-86368829D01*
X134440415Y-86452494D01*
X134270576Y-86504014D01*
X134204391Y-86510533D01*
X134138209Y-86517051D01*
X134049689Y-86517051D01*
X133983507Y-86510533D01*
X133917322Y-86504014D01*
X133747483Y-86452494D01*
X133590958Y-86368829D01*
X133555220Y-86339499D01*
X133453763Y-86256237D01*
X133361932Y-86144339D01*
X133341171Y-86119042D01*
X133257506Y-85962517D01*
X133205986Y-85792678D01*
X133188590Y-85616051D01*
X133205986Y-85439424D01*
X133257506Y-85269585D01*
X133341171Y-85113060D01*
X133370501Y-85077322D01*
X133453763Y-84975865D01*
X133555220Y-84892603D01*
X133590958Y-84863273D01*
X133747483Y-84779608D01*
X133917322Y-84728088D01*
X133983507Y-84721569D01*
X134049689Y-84715051D01*
X134138209Y-84715051D01*
X134204391Y-84721569D01*
X134204391Y-84721569D01*
G37*
G36*
X178340455Y-84412846D02*
G01*
X178412422Y-84419934D01*
X178582261Y-84471454D01*
X178738786Y-84555119D01*
X178774524Y-84584449D01*
X178875981Y-84667711D01*
X178925530Y-84728088D01*
X178988573Y-84804906D01*
X179072238Y-84961431D01*
X179123758Y-85131270D01*
X179141154Y-85307897D01*
X179123758Y-85484524D01*
X179072238Y-85654363D01*
X178988573Y-85810888D01*
X178959243Y-85846626D01*
X178875981Y-85948083D01*
X178774524Y-86031345D01*
X178738786Y-86060675D01*
X178582261Y-86144340D01*
X178412422Y-86195860D01*
X178346237Y-86202379D01*
X178280055Y-86208897D01*
X178191535Y-86208897D01*
X178125353Y-86202379D01*
X178059168Y-86195860D01*
X177889329Y-86144340D01*
X177732804Y-86060675D01*
X177697066Y-86031345D01*
X177595609Y-85948083D01*
X177512347Y-85846626D01*
X177483017Y-85810888D01*
X177399352Y-85654363D01*
X177347832Y-85484524D01*
X177330436Y-85307897D01*
X177347832Y-85131270D01*
X177399352Y-84961431D01*
X177483017Y-84804906D01*
X177546060Y-84728088D01*
X177595609Y-84667711D01*
X177697066Y-84584449D01*
X177732804Y-84555119D01*
X177889329Y-84471454D01*
X178059168Y-84419934D01*
X178131135Y-84412846D01*
X178191535Y-84406897D01*
X178280055Y-84406897D01*
X178340455Y-84412846D01*
X178340455Y-84412846D01*
G37*
G36*
X137164206Y-83820000D02*
G01*
X135890000Y-85094206D01*
X134615794Y-83820000D01*
X135890000Y-82545794D01*
X137164206Y-83820000D01*
X137164206Y-83820000D01*
G37*
G36*
X176550187Y-82617365D02*
G01*
X176616371Y-82623883D01*
X176786210Y-82675403D01*
X176942735Y-82759068D01*
X176978473Y-82788398D01*
X177079930Y-82871660D01*
X177128628Y-82931000D01*
X177192522Y-83008855D01*
X177276187Y-83165380D01*
X177327707Y-83335219D01*
X177345103Y-83511846D01*
X177327707Y-83688473D01*
X177276187Y-83858312D01*
X177192522Y-84014837D01*
X177163192Y-84050575D01*
X177079930Y-84152032D01*
X176978473Y-84235294D01*
X176942735Y-84264624D01*
X176786210Y-84348289D01*
X176616371Y-84399809D01*
X176550187Y-84406327D01*
X176484004Y-84412846D01*
X176395484Y-84412846D01*
X176329301Y-84406327D01*
X176263117Y-84399809D01*
X176093278Y-84348289D01*
X175936753Y-84264624D01*
X175901015Y-84235294D01*
X175799558Y-84152032D01*
X175716296Y-84050575D01*
X175686966Y-84014837D01*
X175603301Y-83858312D01*
X175551781Y-83688473D01*
X175534385Y-83511846D01*
X175551781Y-83335219D01*
X175603301Y-83165380D01*
X175686966Y-83008855D01*
X175750860Y-82931000D01*
X175799558Y-82871660D01*
X175901015Y-82788398D01*
X175936753Y-82759068D01*
X176093278Y-82675403D01*
X176263117Y-82623883D01*
X176329301Y-82617365D01*
X176395484Y-82610846D01*
X176484004Y-82610846D01*
X176550187Y-82617365D01*
X176550187Y-82617365D01*
G37*
G36*
X126105256Y-79671298D02*
G01*
X126211579Y-79692447D01*
X126512042Y-79816903D01*
X126782451Y-79997585D01*
X127012415Y-80227549D01*
X127193097Y-80497958D01*
X127317553Y-80798421D01*
X127381000Y-81117391D01*
X127381000Y-81442609D01*
X127317553Y-81761579D01*
X127193097Y-82062042D01*
X127012415Y-82332451D01*
X126782451Y-82562415D01*
X126512042Y-82743097D01*
X126211579Y-82867553D01*
X126105256Y-82888702D01*
X125892611Y-82931000D01*
X125567389Y-82931000D01*
X125354744Y-82888702D01*
X125248421Y-82867553D01*
X124947958Y-82743097D01*
X124677549Y-82562415D01*
X124447585Y-82332451D01*
X124266903Y-82062042D01*
X124142447Y-81761579D01*
X124079000Y-81442609D01*
X124079000Y-81117391D01*
X124142447Y-80798421D01*
X124266903Y-80497958D01*
X124447585Y-80227549D01*
X124677549Y-79997585D01*
X124947958Y-79816903D01*
X125248421Y-79692447D01*
X125354744Y-79671298D01*
X125567389Y-79629000D01*
X125892611Y-79629000D01*
X126105256Y-79671298D01*
X126105256Y-79671298D01*
G37*
G36*
X188335256Y-79671298D02*
G01*
X188441579Y-79692447D01*
X188742042Y-79816903D01*
X189012451Y-79997585D01*
X189242415Y-80227549D01*
X189423097Y-80497958D01*
X189547553Y-80798421D01*
X189611000Y-81117391D01*
X189611000Y-81442609D01*
X189547553Y-81761579D01*
X189423097Y-82062042D01*
X189242415Y-82332451D01*
X189012451Y-82562415D01*
X188742042Y-82743097D01*
X188441579Y-82867553D01*
X188335256Y-82888702D01*
X188122611Y-82931000D01*
X187797389Y-82931000D01*
X187584744Y-82888702D01*
X187478421Y-82867553D01*
X187177958Y-82743097D01*
X186907549Y-82562415D01*
X186677585Y-82332451D01*
X186496903Y-82062042D01*
X186372447Y-81761579D01*
X186309000Y-81442609D01*
X186309000Y-81117391D01*
X186372447Y-80798421D01*
X186496903Y-80497958D01*
X186677585Y-80227549D01*
X186907549Y-79997585D01*
X187177958Y-79816903D01*
X187478421Y-79692447D01*
X187584744Y-79671298D01*
X187797389Y-79629000D01*
X188122611Y-79629000D01*
X188335256Y-79671298D01*
X188335256Y-79671298D01*
G37*
G36*
X149970442Y-80385518D02*
G01*
X150036627Y-80392037D01*
X150206466Y-80443557D01*
X150362991Y-80527222D01*
X150398729Y-80556552D01*
X150500186Y-80639814D01*
X150583448Y-80741271D01*
X150612778Y-80777009D01*
X150696443Y-80933534D01*
X150747963Y-81103373D01*
X150765359Y-81280000D01*
X150747963Y-81456627D01*
X150696443Y-81626466D01*
X150612778Y-81782991D01*
X150583448Y-81818729D01*
X150500186Y-81920186D01*
X150398729Y-82003448D01*
X150362991Y-82032778D01*
X150206466Y-82116443D01*
X150036627Y-82167963D01*
X149970443Y-82174481D01*
X149904260Y-82181000D01*
X149815740Y-82181000D01*
X149749557Y-82174481D01*
X149683373Y-82167963D01*
X149513534Y-82116443D01*
X149357009Y-82032778D01*
X149321271Y-82003448D01*
X149219814Y-81920186D01*
X149136552Y-81818729D01*
X149107222Y-81782991D01*
X149023557Y-81626466D01*
X148972037Y-81456627D01*
X148954641Y-81280000D01*
X148972037Y-81103373D01*
X149023557Y-80933534D01*
X149107222Y-80777009D01*
X149136552Y-80741271D01*
X149219814Y-80639814D01*
X149321271Y-80556552D01*
X149357009Y-80527222D01*
X149513534Y-80443557D01*
X149683373Y-80392037D01*
X149749558Y-80385518D01*
X149815740Y-80379000D01*
X149904260Y-80379000D01*
X149970442Y-80385518D01*
X149970442Y-80385518D01*
G37*
G36*
X152510442Y-80385518D02*
G01*
X152576627Y-80392037D01*
X152746466Y-80443557D01*
X152902991Y-80527222D01*
X152938729Y-80556552D01*
X153040186Y-80639814D01*
X153123448Y-80741271D01*
X153152778Y-80777009D01*
X153236443Y-80933534D01*
X153287963Y-81103373D01*
X153305359Y-81280000D01*
X153287963Y-81456627D01*
X153236443Y-81626466D01*
X153152778Y-81782991D01*
X153123448Y-81818729D01*
X153040186Y-81920186D01*
X152938729Y-82003448D01*
X152902991Y-82032778D01*
X152746466Y-82116443D01*
X152576627Y-82167963D01*
X152510443Y-82174481D01*
X152444260Y-82181000D01*
X152355740Y-82181000D01*
X152289557Y-82174481D01*
X152223373Y-82167963D01*
X152053534Y-82116443D01*
X151897009Y-82032778D01*
X151861271Y-82003448D01*
X151759814Y-81920186D01*
X151676552Y-81818729D01*
X151647222Y-81782991D01*
X151563557Y-81626466D01*
X151512037Y-81456627D01*
X151494641Y-81280000D01*
X151512037Y-81103373D01*
X151563557Y-80933534D01*
X151647222Y-80777009D01*
X151676552Y-80741271D01*
X151759814Y-80639814D01*
X151861271Y-80556552D01*
X151897009Y-80527222D01*
X152053534Y-80443557D01*
X152223373Y-80392037D01*
X152289558Y-80385518D01*
X152355740Y-80379000D01*
X152444260Y-80379000D01*
X152510442Y-80385518D01*
X152510442Y-80385518D01*
G37*
G36*
X155050442Y-80385518D02*
G01*
X155116627Y-80392037D01*
X155286466Y-80443557D01*
X155442991Y-80527222D01*
X155478729Y-80556552D01*
X155580186Y-80639814D01*
X155663448Y-80741271D01*
X155692778Y-80777009D01*
X155776443Y-80933534D01*
X155827963Y-81103373D01*
X155845359Y-81280000D01*
X155827963Y-81456627D01*
X155776443Y-81626466D01*
X155692778Y-81782991D01*
X155663448Y-81818729D01*
X155580186Y-81920186D01*
X155478729Y-82003448D01*
X155442991Y-82032778D01*
X155286466Y-82116443D01*
X155116627Y-82167963D01*
X155050443Y-82174481D01*
X154984260Y-82181000D01*
X154895740Y-82181000D01*
X154829557Y-82174481D01*
X154763373Y-82167963D01*
X154593534Y-82116443D01*
X154437009Y-82032778D01*
X154401271Y-82003448D01*
X154299814Y-81920186D01*
X154216552Y-81818729D01*
X154187222Y-81782991D01*
X154103557Y-81626466D01*
X154052037Y-81456627D01*
X154034641Y-81280000D01*
X154052037Y-81103373D01*
X154103557Y-80933534D01*
X154187222Y-80777009D01*
X154216552Y-80741271D01*
X154299814Y-80639814D01*
X154401271Y-80556552D01*
X154437009Y-80527222D01*
X154593534Y-80443557D01*
X154763373Y-80392037D01*
X154829558Y-80385518D01*
X154895740Y-80379000D01*
X154984260Y-80379000D01*
X155050442Y-80385518D01*
X155050442Y-80385518D01*
G37*
G36*
X157590442Y-80385518D02*
G01*
X157656627Y-80392037D01*
X157826466Y-80443557D01*
X157982991Y-80527222D01*
X158018729Y-80556552D01*
X158120186Y-80639814D01*
X158203448Y-80741271D01*
X158232778Y-80777009D01*
X158316443Y-80933534D01*
X158367963Y-81103373D01*
X158385359Y-81280000D01*
X158367963Y-81456627D01*
X158316443Y-81626466D01*
X158232778Y-81782991D01*
X158203448Y-81818729D01*
X158120186Y-81920186D01*
X158018729Y-82003448D01*
X157982991Y-82032778D01*
X157826466Y-82116443D01*
X157656627Y-82167963D01*
X157590443Y-82174481D01*
X157524260Y-82181000D01*
X157435740Y-82181000D01*
X157369557Y-82174481D01*
X157303373Y-82167963D01*
X157133534Y-82116443D01*
X156977009Y-82032778D01*
X156941271Y-82003448D01*
X156839814Y-81920186D01*
X156756552Y-81818729D01*
X156727222Y-81782991D01*
X156643557Y-81626466D01*
X156592037Y-81456627D01*
X156574641Y-81280000D01*
X156592037Y-81103373D01*
X156643557Y-80933534D01*
X156727222Y-80777009D01*
X156756552Y-80741271D01*
X156839814Y-80639814D01*
X156941271Y-80556552D01*
X156977009Y-80527222D01*
X157133534Y-80443557D01*
X157303373Y-80392037D01*
X157369558Y-80385518D01*
X157435740Y-80379000D01*
X157524260Y-80379000D01*
X157590442Y-80385518D01*
X157590442Y-80385518D01*
G37*
G36*
X160130442Y-80385518D02*
G01*
X160196627Y-80392037D01*
X160366466Y-80443557D01*
X160522991Y-80527222D01*
X160558729Y-80556552D01*
X160660186Y-80639814D01*
X160743448Y-80741271D01*
X160772778Y-80777009D01*
X160856443Y-80933534D01*
X160907963Y-81103373D01*
X160925359Y-81280000D01*
X160907963Y-81456627D01*
X160856443Y-81626466D01*
X160772778Y-81782991D01*
X160743448Y-81818729D01*
X160660186Y-81920186D01*
X160558729Y-82003448D01*
X160522991Y-82032778D01*
X160366466Y-82116443D01*
X160196627Y-82167963D01*
X160130443Y-82174481D01*
X160064260Y-82181000D01*
X159975740Y-82181000D01*
X159909557Y-82174481D01*
X159843373Y-82167963D01*
X159673534Y-82116443D01*
X159517009Y-82032778D01*
X159481271Y-82003448D01*
X159379814Y-81920186D01*
X159296552Y-81818729D01*
X159267222Y-81782991D01*
X159183557Y-81626466D01*
X159132037Y-81456627D01*
X159114641Y-81280000D01*
X159132037Y-81103373D01*
X159183557Y-80933534D01*
X159267222Y-80777009D01*
X159296552Y-80741271D01*
X159379814Y-80639814D01*
X159481271Y-80556552D01*
X159517009Y-80527222D01*
X159673534Y-80443557D01*
X159843373Y-80392037D01*
X159909558Y-80385518D01*
X159975740Y-80379000D01*
X160064260Y-80379000D01*
X160130442Y-80385518D01*
X160130442Y-80385518D01*
G37*
G36*
X163461000Y-82181000D02*
G01*
X161659000Y-82181000D01*
X161659000Y-80379000D01*
X163461000Y-80379000D01*
X163461000Y-82181000D01*
X163461000Y-82181000D01*
G37*
M02*
